font.ufo
<glyph name="exclam" format="1">
  <advance width="406"/>
  <unicode hex="0021"/>
  <outline>
    <contour>
      <point x="179" y="195" type="line"/>
      <point x="234" y="195" type="line"/>
      <point x="242" y="747" type="line"/>
      <point x="171" y="747" type="line"/>
    </contour>
    <contour>
      <point x="209" y="0" type="curve" smooth="yes"/>
      <point x="236" y="0"/>
      <point x="258" y="22"/>
      <point x="258" y="49" type="curve" smooth="yes"/>
      <point x="258" y="76"/>
      <point x="236" y="98"/>
      <point x="209" y="98" type="curve" smooth="yes"/>
      <point x="182" y="98"/>
      <point x="160" y="76"/>
      <point x="160" y="49" type="curve" smooth="yes"/>
      <point x="160" y="22"/>
      <point x="182" y="0"/>
    </contour>
  </outline>
</glyph>
<glyph name="quotedbl" format="1">
  <advance width="253"/>
  <unicode hex="0022"/>
  <outline>
    <contour>
      <point x="42" y="602" type="line"/>
      <point x="91" y="602" type="line"/>
      <point x="103" y="795" type="line"/>
      <point x="30" y="795" type="line"/>
    </contour>
    <contour>
      <point x="162" y="602" type="line"/>
      <point x="211" y="602" type="line"/>
      <point x="223" y="795" type="line"/>
      <point x="150" y="795" type="line"/>
    </contour>
  </outline>
</glyph>
<glyph name="numbersign" format="1">
  <advance width="827"/>
  <unicode hex="0023"/>
  <outline>
    <contour>
      <point x="154" y="0" type="line"/>
      <point x="223" y="0" type="line"/>
      <point x="381" y="740" type="line"/>
      <point x="312" y="740" type="line"/>
    </contour>
    <contour>
      <point x="443" y="0" type="line"/>
      <point x="512" y="0" type="line"/>
      <point x="670" y="740" type="line"/>
      <point x="601" y="740" type="line"/>
    </contour>
    <contour>
      <point x="43" y="218" type="line"/>
      <point x="714" y="218" type="line"/>
      <point x="714" y="276" type="line"/>
      <point x="43" y="276" type="line"/>
    </contour>
    <contour>
      <point x="98" y="465" type="line"/>
      <point x="769" y="465" type="line"/>
      <point x="769" y="523" type="line"/>
      <point x="98" y="523" type="line"/>
    </contour>
  </outline>
</glyph>
<glyph name="percent" format="1">
  <advance width="650"/>
  <unicode hex="0025"/>
  <outline>
    <contour>
      <point x="50" y="558" type="curve" smooth="yes"/>
      <point x="50" y="471"/>
      <point x="110" y="415"/>
      <point x="190" y="415" type="curve" smooth="yes"/>
      <point x="270" y="415"/>
      <point x="330" y="471"/>
      <point x="330" y="558" type="curve" smooth="yes"/>
      <point x="330" y="644"/>
      <point x="270" y="700"/>
      <point x="190" y="700" type="curve" smooth="yes"/>
      <point x="110" y="700"/>
      <point x="50" y="644"/>
    </contour>
    <contour>
      <point x="190" y="655" type="curve" smooth="yes"/>
      <point x="235" y="655"/>
      <point x="264" y="627"/>
      <point x="264" y="558" type="curve" smooth="yes"/>
      <point x="264" y="489"/>
      <point x="235" y="460"/>
      <point x="190" y="460" type="curve" smooth="yes"/>
      <point x="145" y="460"/>
      <point x="115" y="489"/>
      <point x="115" y="558" type="curve" smooth="yes"/>
      <point x="115" y="627"/>
      <point x="145" y="655"/>
    </contour>
    <contour>
      <point x="84" y="0" type="line"/>
      <point x="155" y="0" type="line"/>
      <point x="565" y="690" type="line"/>
      <point x="494" y="690" type="line"/>
    </contour>
    <contour>
      <point x="320" y="133" type="curve" smooth="yes"/>
      <point x="320" y="46"/>
      <point x="380" y="-10"/>
      <point x="460" y="-10" type="curve" smooth="yes"/>
      <point x="540" y="-10"/>
      <point x="600" y="46"/>
      <point x="600" y="133" type="curve" smooth="yes"/>
      <point x="600" y="219"/>
      <point x="540" y="275"/>
      <point x="460" y="275" type="curve" smooth="yes"/>
      <point x="380" y="275"/>
      <point x="320" y="219"/>
    </contour>
    <contour>
      <point x="460" y="230" type="curve" smooth="yes"/>
      <point x="505" y="230"/>
      <point x="534" y="202"/>
      <point x="534" y="133" type="curve" smooth="yes"/>
      <point x="534" y="64"/>
      <point x="505" y="35"/>
      <point x="460" y="35" type="curve" smooth="yes"/>
      <point x="415" y="35"/>
      <point x="385" y="64"/>
      <point x="385" y="133" type="curve" smooth="yes"/>
      <point x="385" y="202"/>
      <point x="415" y="230"/>
    </contour>
  </outline>
</glyph>
<glyph name="ampersand" format="1">
  <advance width="659"/>
  <unicode hex="0026"/>
  <outline>
    <contour>
      <point x="109" y="191" type="curve" smooth="yes"/>
      <point x="109" y="271"/>
      <point x="166" y="332"/>
      <point x="238" y="332" type="curve" smooth="yes"/>
      <point x="310" y="332"/>
      <point x="369" y="271"/>
      <point x="369" y="191" type="curve" smooth="yes"/>
      <point x="369" y="111"/>
      <point x="310" y="48"/>
      <point x="238" y="48" type="curve" smooth="yes"/>
      <point x="166" y="48"/>
      <point x="109" y="111"/>
    </contour>
    <contour>
      <point x="156" y="585" type="curve" smooth="yes"/>
      <point x="156" y="527"/>
      <point x="185" y="476"/>
      <point x="228" y="422" type="curve" smooth="yes"/>
      <point x="255" y="387" type="line"/>
      <point x="247" y="388"/>
      <point x="244" y="388"/>
      <point x="238" y="388" type="curve" smooth="yes"/>
      <point x="129" y="388"/>
      <point x="40" y="310"/>
      <point x="40" y="190" type="curve" smooth="yes"/>
      <point x="40" y="70"/>
      <point x="129" y="-8"/>
      <point x="238" y="-8" type="curve" smooth="yes"/>
      <point x="347" y="-8"/>
      <point x="429" y="74"/>
      <point x="436" y="178" type="curve"/>
      <point x="413" y="181" type="line"/>
      <point x="552" y="0" type="line"/>
      <point x="640" y="0" type="line"/>
      <point x="282" y="464" type="line" smooth="yes"/>
      <point x="240" y="519"/>
      <point x="229" y="550"/>
      <point x="229" y="585" type="curve" smooth="yes"/>
      <point x="229" y="640"/>
      <point x="269" y="684"/>
      <point x="329" y="684" type="curve" smooth="yes"/>
      <point x="389" y="684"/>
      <point x="429" y="640"/>
      <point x="429" y="585" type="curve" smooth="yes"/>
      <point x="429" y="574"/>
      <point x="427" y="556"/>
      <point x="424" y="544" type="curve"/>
      <point x="497" y="544" type="line"/>
      <point x="500" y="556"/>
      <point x="502" y="574"/>
      <point x="502" y="585" type="curve" smooth="yes"/>
      <point x="502" y="664"/>
      <point x="439" y="740"/>
      <point x="329" y="740" type="curve" smooth="yes"/>
      <point x="219" y="740"/>
      <point x="156" y="664"/>
    </contour>
  </outline>
</glyph>
<glyph name="quotesingle" format="1">
  <advance width="133"/>
  <unicode hex="0027"/>
  <outline>
    <contour>
      <point x="42" y="602" type="line"/>
      <point x="91" y="602" type="line"/>
      <point x="103" y="795" type="line"/>
      <point x="30" y="795" type="line"/>
    </contour>
  </outline>
</glyph>
<glyph name="parenright" format="1">
  <advance width="583"/>
  <unicode hex="0029"/>
  <outline>
    <contour>
      <point x="147" y="988" type="curve"/>
      <point x="69" y="988" type="line"/>
      <point x="69" y="981" type="line"/>
      <point x="260" y="833"/>
      <point x="341" y="611"/>
      <point x="341" y="403" type="curve" smooth="yes"/>
      <point x="341" y="194"/>
      <point x="260" y="-28"/>
      <point x="69" y="-176" type="curve"/>
      <point x="69" y="-183" type="line"/>
      <point x="147" y="-183" type="line"/>
      <point x="304" y="-69"/>
      <point x="409" y="154"/>
      <point x="409" y="403" type="curve" smooth="yes"/>
      <point x="409" y="651"/>
      <point x="304" y="874"/>
    </contour>
  </outline>
</glyph>
<glyph name="asterisk" format="1">
  <advance width="481"/>
  <unicode hex="002A"/>
  <outline>
    <contour>
      <point x="275" y="732" type="line"/>
      <point x="202" y="732" type="line"/>
      <point x="218" y="575" type="line"/>
      <point x="91" y="669" type="line"/>
      <point x="54" y="603" type="line"/>
      <point x="201" y="546" type="line"/>
      <point x="54" y="489" type="line"/>
      <point x="91" y="423" type="line"/>
      <point x="218" y="517" type="line"/>
      <point x="202" y="360" type="line"/>
      <point x="275" y="360" type="line"/>
      <point x="256" y="517" type="line"/>
      <point x="381" y="425" type="line"/>
      <point x="416" y="489" type="line"/>
      <point x="268" y="546" type="line"/>
      <point x="416" y="603" type="line"/>
      <point x="381" y="667" type="line"/>
      <point x="256" y="575" type="line"/>
    </contour>
  </outline>
</glyph>
<glyph name="plus" format="1">
  <advance width="765"/>
  <unicode hex="002B"/>
  <outline>
    <contour>
      <point x="350" y="625" type="line"/>
      <point x="350" y="115" type="line"/>
      <point x="415" y="115" type="line"/>
      <point x="415" y="625" type="line"/>
    </contour>
    <contour>
      <point x="128" y="340" type="line"/>
      <point x="637" y="340" type="line"/>
      <point x="637" y="400" type="line"/>
      <point x="128" y="400" type="line"/>
    </contour>
  </outline>
</glyph>
<glyph name="comma" format="1">
  <advance width="172"/>
  <unicode hex="002C"/>
  <outline>
    <contour>
      <point x="41" y="56" type="line"/>
      <point x="41" y="-20" type="line"/>
      <point x="86" y="-20" type="line"/>
      <point x="86" y="-45" type="line" smooth="yes"/>
      <point x="86" y="-77"/>
      <point x="73" y="-94"/>
      <point x="40" y="-94" type="curve"/>
      <point x="40" y="-132" type="line"/>
      <point x="116" y="-132"/>
      <point x="149" y="-87"/>
      <point x="122" y="56" type="curve"/>
    </contour>
  </outline>
</glyph>
<glyph name="period" format="1">
  <advance width="218"/>
  <unicode hex="002E"/>
  <outline>
    <contour>
      <point x="109" y="0" type="curve" smooth="yes"/>
      <point x="136" y="0"/>
      <point x="158" y="22"/>
      <point x="158" y="49" type="curve" smooth="yes"/>
      <point x="158" y="76"/>
      <point x="136" y="98"/>
      <point x="109" y="98" type="curve" smooth="yes"/>
      <point x="82" y="98"/>
      <point x="60" y="76"/>
      <point x="60" y="49" type="curve" smooth="yes"/>
      <point x="60" y="22"/>
      <point x="82" y="0"/>
    </contour>
  </outline>
</glyph>
<glyph name="slash" format="1">
  <advance width="562"/>
  <unicode hex="002F"/>
  <outline>
    <contour>
      <point x="101" y="-166" type="line"/>
      <point x="171" y="-166" type="line"/>
      <point x="446" y="940" type="line"/>
      <point x="375" y="940" type="line"/>
    </contour>
  </outline>
</glyph>
<glyph name="one" format="1">
  <advance width="295"/>
  <unicode hex="0031"/>
  <outline>
    <contour>
      <point x="130" y="0" type="line"/>
      <point x="195" y="0" type="line"/>
      <point x="195" y="710" type="line"/>
      <point x="59" y="710" type="line"/>
      <point x="59" y="650" type="line"/>
      <point x="130" y="650" type="line"/>
    </contour>
  </outline>
</glyph>
<glyph name="four" format="1">
  <advance width="623"/>
  <unicode hex="0034"/>
  <outline>
    <contour>
      <point x="426" y="0" type="line"/>
      <point x="491" y="0" type="line"/>
      <point x="491" y="170" type="line"/>
      <point x="593" y="170" type="line"/>
      <point x="593" y="230" type="line"/>
      <point x="491" y="230" type="line"/>
      <point x="491" y="720" type="line"/>
      <point x="395" y="720" type="line"/>
      <point x="44" y="215" type="line"/>
      <point x="44" y="170" type="line"/>
      <point x="426" y="170" type="line"/>
    </contour>
    <contour>
      <point x="128" y="230" type="line"/>
      <point x="426" y="665" type="line"/>
      <point x="426" y="230" type="line"/>
    </contour>
  </outline>
</glyph>
<glyph name="six" format="1">
  <advance width="646"/>
  <unicode hex="0036"/>
  <outline>
    <contour>
      <point x="550" y="576" type="line"/>
      <point x="539" y="666"/>
      <point x="467" y="747"/>
      <point x="338" y="747" type="curve" smooth="yes"/>
      <point x="157" y="747"/>
      <point x="85" y="602"/>
      <point x="85" y="389" type="curve" smooth="yes"/>
      <point x="85" y="176"/>
      <point x="118" y="0"/>
      <point x="343" y="0" type="curve" smooth="yes"/>
      <point x="504" y="0"/>
      <point x="576" y="112"/>
      <point x="576" y="242" type="curve" smooth="yes"/>
      <point x="576" y="394"/>
      <point x="484" y="485"/>
      <point x="352" y="485" type="curve" smooth="yes"/>
      <point x="255" y="485"/>
      <point x="178" y="440"/>
      <point x="142" y="369" type="curve"/>
      <point x="146" y="611"/>
      <point x="211" y="687"/>
      <point x="338" y="687" type="curve" smooth="yes"/>
      <point x="426" y="687"/>
      <point x="469" y="652"/>
      <point x="488" y="576" type="curve"/>
    </contour>
    <contour>
      <point x="339" y="424" type="curve" smooth="yes"/>
      <point x="455" y="424"/>
      <point x="512" y="355"/>
      <point x="512" y="238" type="curve" smooth="yes"/>
      <point x="512" y="128"/>
      <point x="445" y="60"/>
      <point x="342" y="60" type="curve" smooth="yes"/>
      <point x="211" y="60"/>
      <point x="155" y="139"/>
      <point x="155" y="248" type="curve" smooth="yes"/>
      <point x="155" y="372"/>
      <point x="252" y="424"/>
    </contour>
  </outline>
</glyph>
<glyph name="less" format="1">
  <advance width="658"/>
  <unicode hex="003C"/>
  <outline>
    <contour>
      <point x="212" y="370" type="line"/>
      <point x="464" y="602" type="line"/>
      <point x="376" y="602" type="line"/>
      <point x="124" y="370" type="line"/>
      <point x="376" y="138" type="line"/>
      <point x="464" y="138" type="line"/>
    </contour>
  </outline>
</glyph>
<glyph name="equal" format="1">
  <advance width="769"/>
  <unicode hex="003D"/>
  <outline>
    <contour>
      <point x="130" y="237" type="line"/>
      <point x="639" y="237" type="line"/>
      <point x="639" y="297" type="line"/>
      <point x="130" y="297" type="line"/>
    </contour>
    <contour>
      <point x="130" y="443" type="line"/>
      <point x="639" y="443" type="line"/>
      <point x="639" y="503" type="line"/>
      <point x="130" y="503" type="line"/>
    </contour>
  </outline>
</glyph>
<glyph name="greater" format="1">
  <advance width="614"/>
  <unicode hex="003E"/>
  <outline>
    <contour>
      <point x="150" y="138" type="line"/>
      <point x="238" y="138" type="line"/>
      <point x="490" y="370" type="line"/>
      <point x="238" y="602" type="line"/>
      <point x="150" y="602" type="line"/>
      <point x="402" y="370" type="line"/>
    </contour>
  </outline>
</glyph>
<glyph name="question" format="1">
  <advance width="619"/>
  <unicode hex="003F"/>
  <outline>
    <contour>
      <point x="101" y="539" type="curve"/>
      <point x="166" y="539" type="line"/>
      <point x="166" y="629"/>
      <point x="225" y="677"/>
      <point x="314" y="677" type="curve" smooth="yes"/>
      <point x="408" y="677"/>
      <point x="462" y="624"/>
      <point x="462" y="534" type="curve" smooth="yes"/>
      <point x="462" y="401"/>
      <point x="379" y="378"/>
      <point x="251" y="379" type="curve" smooth="yes"/>
      <point x="218" y="379" type="line"/>
      <point x="218" y="185" type="line"/>
      <point x="284" y="185" type="line"/>
      <point x="284" y="327" type="line"/>
      <point x="442" y="328"/>
      <point x="527" y="381"/>
      <point x="527" y="535" type="curve" smooth="yes"/>
      <point x="527" y="659"/>
      <point x="444" y="737"/>
      <point x="314" y="737" type="curve" smooth="yes"/>
      <point x="191" y="737"/>
      <point x="101" y="662"/>
    </contour>
    <contour>
      <point x="204" y="39" type="curve" smooth="yes"/>
      <point x="204" y="12"/>
      <point x="226" y="-10"/>
      <point x="253" y="-10" type="curve" smooth="yes"/>
      <point x="280" y="-10"/>
      <point x="302" y="12"/>
      <point x="302" y="39" type="curve" smooth="yes"/>
      <point x="302" y="66"/>
      <point x="280" y="88"/>
      <point x="253" y="88" type="curve" smooth="yes"/>
      <point x="226" y="88"/>
      <point x="204" y="66"/>
    </contour>
  </outline>
</glyph>
<glyph name="D" format="1">
  <advance width="685"/>
  <unicode hex="0044"/>
  <outline>
    <contour>
      <point x="343" y="690" type="move" name="top"/>
    </contour>
    <contour>
      <point x="287" y="690" type="curve" smooth="yes"/>
      <point x="75" y="690" type="line"/>
      <point x="75" y="0" type="line"/>
      <point x="287" y="0" type="line" smooth="yes"/>
      <point x="510" y="0"/>
      <point x="643" y="121"/>
      <point x="643" y="341" type="curve" smooth="yes"/>
      <point x="643" y="560"/>
      <point x="510" y="690"/>
    </contour>
    <contour>
      <point x="145" y="54" type="line"/>
      <point x="145" y="628" type="line"/>
      <point x="287" y="628" type="line" smooth="yes"/>
      <point x="475" y="628"/>
      <point x="571" y="519"/>
      <point x="571" y="341" type="curve" smooth="yes"/>
      <point x="571" y="163"/>
      <point x="475" y="54"/>
      <point x="287" y="54" type="curve" smooth="yes"/>
    </contour>
  </outline>
</glyph>
<glyph name="E" format="1">
  <advance width="487"/>
  <unicode hex="0045"/>
  <outline>
    <contour>
      <point x="244" y="690" type="move" name="top"/>
    </contour>
    <contour>
      <point x="426" y="0" type="move" name="ogonek"/>
    </contour>
    <contour>
      <point x="244" y="0" type="move" name="bottom"/>
    </contour>
    <contour>
      <point x="426" y="690" type="line"/>
      <point x="75" y="690" type="line"/>
      <point x="75" y="0" type="line"/>
      <point x="426" y="0" type="line"/>
      <point x="426" y="56" type="line"/>
      <point x="145" y="56" type="line"/>
      <point x="145" y="319" type="line"/>
      <point x="396" y="319" type="line"/>
      <point x="396" y="375" type="line"/>
      <point x="145" y="375" type="line"/>
      <point x="145" y="633" type="line"/>
      <point x="426" y="633" type="line"/>
    </contour>
  </outline>
</glyph>
<glyph name="F" format="1">
  <advance width="468"/>
  <unicode hex="0046"/>
  <outline>
    <contour>
      <point x="75" y="0" type="line"/>
      <point x="145" y="0" type="line"/>
      <point x="145" y="319" type="line"/>
      <point x="386" y="319" type="line"/>
      <point x="386" y="375" type="line"/>
      <point x="145" y="375" type="line"/>
      <point x="145" y="633" type="line"/>
      <point x="447" y="633" type="line"/>
      <point x="447" y="690" type="line"/>
      <point x="75" y="690" type="line"/>
    </contour>
  </outline>
</glyph>
<glyph name="G" format="1">
  <advance width="780"/>
  <unicode hex="0047"/>
  <outline>
    <contour>
      <point x="390" y="690" type="move" name="top"/>
    </contour>
    <contour>
      <point x="390" y="0" type="move" name="bottom"/>
    </contour>
    <contour>
      <point x="40" y="345" type="curve" smooth="yes"/>
      <point x="40" y="139"/>
      <point x="196" y="-6"/>
      <point x="391" y="-6" type="curve" smooth="yes"/>
      <point x="576" y="-6"/>
      <point x="722" y="121"/>
      <point x="741" y="315" type="curve"/>
      <point x="741" y="371" type="line"/>
      <point x="358" y="371" type="line"/>
      <point x="358" y="315" type="line"/>
      <point x="668" y="315" type="line"/>
      <point x="653" y="154"/>
      <point x="548" y="54"/>
      <point x="391" y="54" type="curve" smooth="yes"/>
      <point x="233" y="54"/>
      <point x="112" y="168"/>
      <point x="112" y="345" type="curve" smooth="yes"/>
      <point x="112" y="523"/>
      <point x="233" y="636"/>
      <point x="391" y="636" type="curve" smooth="yes"/>
      <point x="492" y="636"/>
      <point x="576" y="590"/>
      <point x="619" y="509" type="curve"/>
      <point x="704" y="509" type="line"/>
      <point x="647" y="634"/>
      <point x="529" y="697"/>
      <point x="391" y="697" type="curve" smooth="yes"/>
      <point x="196" y="697"/>
      <point x="40" y="552"/>
    </contour>
  </outline>
</glyph>
<glyph name="H" format="1">
  <advance width="660"/>
  <unicode hex="0048"/>
  <outline>
    <contour>
      <point x="75" y="0" type="line"/>
      <point x="145" y="0" type="line"/>
      <point x="145" y="690" type="line"/>
      <point x="75" y="690" type="line"/>
    </contour>
    <contour>
      <point x="515" y="0" type="line"/>
      <point x="585" y="0" type="line"/>
      <point x="585" y="690" type="line"/>
      <point x="515" y="690" type="line"/>
    </contour>
    <contour>
      <point x="125" y="319" type="line"/>
      <point x="544" y="319" type="line"/>
      <point x="544" y="375" type="line"/>
      <point x="125" y="375" type="line"/>
    </contour>
  </outline>
</glyph>
<glyph name="I" format="1">
  <advance width="220"/>
  <unicode hex="0049"/>
  <outline>
    <contour>
      <point x="110" y="690" type="move" name="top"/>
    </contour>
    <contour>
      <point x="145" y="1" type="move" name="ogonek"/>
    </contour>
    <contour>
      <point x="75" y="0" type="line"/>
      <point x="145" y="0" type="line"/>
      <point x="145" y="690" type="line"/>
      <point x="75" y="690" type="line"/>
    </contour>
  </outline>
</glyph>
<glyph name="K" format="1">
  <advance width="565"/>
  <unicode hex="004B"/>
  <outline>
    <contour>
      <point x="283" y="690" type="move" name="top"/>
    </contour>
    <contour>
      <point x="283" y="0" type="move" name="bottom"/>
    </contour>
    <contour>
      <point x="75" y="0" type="line"/>
      <point x="145" y="0" type="line"/>
      <point x="145" y="690" type="line"/>
      <point x="75" y="690" type="line"/>
    </contour>
    <contour>
      <point x="118" y="338" type="line"/>
      <point x="440" y="0" type="line"/>
      <point x="535" y="0" type="line"/>
      <point x="186" y="355" type="line"/>
      <point x="179" y="318" type="line"/>
      <point x="535" y="690" type="line"/>
      <point x="444" y="690" type="line"/>
    </contour>
  </outline>
</glyph>
<glyph name="L" format="1">
  <advance width="416"/>
  <unicode hex="004C"/>
  <outline>
    <contour>
      <point x="230" y="10" type="move" name="commaaccent"/>
    </contour>
    <contour>
      <point x="208" y="690" type="move" name="top"/>
    </contour>
    <contour>
      <point x="396" y="690" type="move" name="topright"/>
    </contour>
    <contour>
      <point x="230" y="0" type="move" name="bottom"/>
    </contour>
    <contour>
      <point x="75" y="690" type="line"/>
      <point x="75" y="0" type="line"/>
      <point x="396" y="0" type="line"/>
      <point x="396" y="54" type="line"/>
      <point x="145" y="54" type="line"/>
      <point x="145" y="690" type="line"/>
    </contour>
  </outline>
</glyph>
<glyph name="M" format="1">
  <advance width="833"/>
  <unicode hex="004D"/>
  <outline>
    <contour>
      <point x="75" y="0" type="line"/>
      <point x="145" y="0" type="line"/>
      <point x="145" y="586" type="line"/>
      <point x="118" y="586" type="line"/>
      <point x="396" y="0" type="line"/>
      <point x="437" y="0" type="line"/>
      <point x="714" y="586" type="line"/>
      <point x="688" y="586" type="line"/>
      <point x="688" y="0" type="line"/>
      <point x="758" y="0" type="line"/>
      <point x="758" y="690" type="line"/>
      <point x="693" y="690" type="line"/>
      <point x="408" y="82" type="line"/>
      <point x="426" y="82" type="line"/>
      <point x="140" y="690" type="line"/>
      <point x="75" y="690" type="line"/>
    </contour>
  </outline>
</glyph>
<glyph name="N" format="1">
  <advance width="677"/>
  <unicode hex="004E"/>
  <outline>
    <contour>
      <point x="339" y="690" type="move" name="top"/>
    </contour>
    <contour>
      <point x="339" y="0" type="move" name="bottom"/>
    </contour>
    <contour>
      <point x="532" y="690" type="line"/>
      <point x="532" y="112" type="line"/>
      <point x="145" y="690" type="line"/>
      <point x="75" y="690" type="line"/>
      <point x="75" y="0" type="line"/>
      <point x="145" y="0" type="line"/>
      <point x="145" y="578" type="line"/>
      <point x="532" y="0" type="line"/>
      <point x="602" y="0" type="line"/>
      <point x="602" y="690" type="line"/>
    </contour>
  </outline>
</glyph>
<glyph name="O" format="1">
  <advance width="781"/>
  <unicode hex="004F"/>
  <outline>
    <contour>
      <point x="391" y="690" type="move" name="top"/>
    </contour>
    <contour>
      <point x="40" y="345" type="curve" smooth="yes"/>
      <point x="40" y="139"/>
      <point x="196" y="-7"/>
      <point x="391" y="-7" type="curve" smooth="yes"/>
      <point x="587" y="-7"/>
      <point x="742" y="139"/>
      <point x="742" y="345" type="curve" smooth="yes"/>
      <point x="742" y="552"/>
      <point x="587" y="697"/>
      <point x="391" y="697" type="curve" smooth="yes"/>
      <point x="196" y="697"/>
      <point x="40" y="552"/>
    </contour>
    <contour>
      <point x="670" y="345" type="curve" smooth="yes"/>
      <point x="670" y="168"/>
      <point x="549" y="53"/>
      <point x="391" y="53" type="curve" smooth="yes"/>
      <point x="233" y="53"/>
      <point x="111" y="168"/>
      <point x="111" y="345" type="curve" smooth="yes"/>
      <point x="111" y="523"/>
      <point x="233" y="636"/>
      <point x="391" y="636" type="curve" smooth="yes"/>
      <point x="549" y="636"/>
      <point x="670" y="523"/>
    </contour>
  </outline>
</glyph>
<glyph name="P" format="1">
  <advance width="562"/>
  <unicode hex="0050"/>
  <outline>
    <contour>
      <point x="145" y="346" type="line"/>
      <point x="145" y="633" type="line"/>
      <point x="286" y="633" type="line" smooth="yes"/>
      <point x="404" y="633"/>
      <point x="451" y="578"/>
      <point x="451" y="489" type="curve" smooth="yes"/>
      <point x="451" y="403"/>
      <point x="404" y="346"/>
      <point x="286" y="346" type="curve" smooth="yes"/>
    </contour>
    <contour>
      <point x="522" y="489" type="curve" smooth="yes"/>
      <point x="522" y="604"/>
      <point x="446" y="690"/>
      <point x="286" y="690" type="curve" smooth="yes"/>
      <point x="75" y="690" type="line"/>
      <point x="75" y="0" type="line"/>
      <point x="145" y="0" type="line"/>
      <point x="145" y="289" type="line"/>
      <point x="286" y="289" type="line" smooth="yes"/>
      <point x="448" y="289"/>
      <point x="522" y="375"/>
    </contour>
  </outline>
</glyph>
<glyph name="Q" format="1">
  <advance width="782"/>
  <unicode hex="0051"/>
  <outline>
    <contour>
      <point x="478" y="30" type="line"/>
      <point x="657" y="-135" type="line"/>
      <point x="754" y="-135" type="line"/>
      <point x="535" y="68" type="line"/>
    </contour>
    <component base="O"/>
  </outline>
</glyph>
<glyph name="V" format="1">
  <advance width="668"/>
  <unicode hex="0056"/>
  <outline>
    <contour>
      <point x="300" y="0" type="line"/>
      <point x="368" y="0" type="line"/>
      <point x="639" y="690" type="line"/>
      <point x="565" y="690" type="line"/>
      <point x="333" y="79" type="line"/>
      <point x="103" y="690" type="line"/>
      <point x="29" y="690" type="line"/>
    </contour>
  </outline>
</glyph>
<glyph name="W" format="1">
  <advance width="963"/>
  <unicode hex="0057"/>
  <outline>
    <contour>
      <point x="224" y="-1" type="line"/>
      <point x="300" y="0" type="line"/>
      <point x="497" y="648" type="line"/>
      <point x="463" y="648" type="line"/>
      <point x="644" y="0" type="line"/>
      <point x="720" y="0" type="line"/>
      <point x="934" y="690" type="line"/>
      <point x="861" y="690" type="line"/>
      <point x="670" y="38" type="line"/>
      <point x="695" y="37" type="line"/>
      <point x="519" y="690" type="line"/>
      <point x="443" y="690" type="line"/>
      <point x="252" y="40" type="line"/>
      <point x="274" y="40" type="line"/>
      <point x="102" y="690" type="line"/>
      <point x="29" y="690" type="line"/>
    </contour>
  </outline>
</glyph>
<glyph name="Z" format="1">
  <advance width="528"/>
  <unicode hex="005A"/>
  <outline>
    <contour>
      <point x="264" y="690" type="move" name="top"/>
    </contour>
    <contour>
      <point x="478" y="690" type="line"/>
      <point x="50" y="690" type="line"/>
      <point x="50" y="633" type="line"/>
      <point x="398" y="633" type="line"/>
      <point x="50" y="56" type="line"/>
      <point x="50" y="0" type="line"/>
      <point x="478" y="0" type="line"/>
      <point x="478" y="56" type="line"/>
      <point x="130" y="56" type="line"/>
      <point x="478" y="633" type="line"/>
    </contour>
  </outline>
</glyph>
<glyph name="bracketleft" format="1">
  <advance width="465"/>
  <unicode hex="005B"/>
  <outline>
    <contour>
      <point x="170" y="-166" type="line"/>
      <point x="306" y="-166" type="line"/>
      <point x="306" y="-106" type="line"/>
      <point x="235" y="-106" type="line"/>
      <point x="235" y="880" type="line"/>
      <point x="306" y="880" type="line"/>
      <point x="306" y="940" type="line"/>
      <point x="170" y="940" type="line"/>
    </contour>
  </outline>
</glyph>
<glyph name="backslash" format="1">
  <advance width="651"/>
  <unicode hex="005C"/>
  <outline>
    <contour>
      <point x="220" y="940" type="line"/>
      <point x="149" y="940" type="line"/>
      <point x="474" y="-166" type="line"/>
      <point x="544" y="-166" type="line"/>
    </contour>
  </outline>
</glyph>
<glyph name="bracketright" format="1">
  <advance width="465"/>
  <unicode hex="005D"/>
  <outline>
    <contour>
      <point x="295" y="940" type="line"/>
      <point x="159" y="940" type="line"/>
      <point x="159" y="880" type="line"/>
      <point x="230" y="880" type="line"/>
      <point x="230" y="-106" type="line"/>
      <point x="159" y="-106" type="line"/>
      <point x="159" y="-166" type="line"/>
      <point x="295" y="-166" type="line"/>
    </contour>
  </outline>
</glyph>
<glyph name="asciicircum" format="1">
  <advance width="611"/>
  <unicode hex="005E"/>
  <outline>
    <contour>
      <point x="495" y="171" type="line"/>
      <point x="571" y="171" type="line"/>
      <point x="337" y="690" type="line"/>
      <point x="274" y="690" type="line"/>
      <point x="40" y="171" type="line"/>
      <point x="116" y="171" type="line"/>
      <point x="306" y="599" type="line"/>
    </contour>
  </outline>
</glyph>
<glyph name="underscore" format="1">
  <advance width="813"/>
  <unicode hex="005F"/>
  <outline>
    <contour>
      <point x="158" y="-100" type="line"/>
      <point x="667" y="-100" type="line"/>
      <point x="667" y="-40" type="line"/>
      <point x="158" y="-40" type="line"/>
    </contour>
  </outline>
</glyph>
<glyph name="c" format="1">
  <advance width="600"/>
  <unicode hex="0063"/>
  <outline>
    <contour>
      <point x="300" y="546" type="move" name="top"/>
    </contour>
    <contour>
      <point x="300" y="0" type="move" name="bottom"/>
    </contour>
    <contour>
      <point x="40" y="273" type="curve" smooth="yes"/>
      <point x="40" y="103"/>
      <point x="148" y="-10"/>
      <point x="303" y="-10" type="curve" smooth="yes"/>
      <point x="438" y="-10"/>
      <point x="515" y="64"/>
      <point x="547" y="162" type="curve"/>
      <point x="472" y="162" type="line"/>
      <point x="450" y="89"/>
      <point x="391" y="46"/>
      <point x="303" y="46" type="curve" smooth="yes"/>
      <point x="194" y="46"/>
      <point x="112" y="122"/>
      <point x="112" y="273" type="curve" smooth="yes"/>
      <point x="112" y="425"/>
      <point x="194" y="500"/>
      <point x="303" y="500" type="curve" smooth="yes"/>
      <point x="391" y="500"/>
      <point x="450" y="456"/>
      <point x="472" y="384" type="curve"/>
      <point x="547" y="384" type="line"/>
      <point x="515" y="490"/>
      <point x="438" y="556"/>
      <point x="303" y="556" type="curve" smooth="yes"/>
      <point x="148" y="556"/>
      <point x="40" y="443"/>
    </contour>
  </outline>
</glyph>
<glyph name="e" format="1">
  <advance width="605"/>
  <unicode hex="0065"/>
  <outline>
    <contour>
      <point x="303" y="546" type="move" name="top"/>
    </contour>
    <contour>
      <point x="453" y="56" type="move" name="ogonek"/>
    </contour>
    <contour>
      <point x="303" y="0" type="move" name="bottom"/>
    </contour>
    <contour>
      <point x="89" y="248" type="line"/>
      <point x="562" y="248" type="line"/>
      <point x="565" y="267"/>
      <point x="566" y="285"/>
      <point x="566" y="302" type="curve" smooth="yes"/>
      <point x="566" y="443"/>
      <point x="467" y="556"/>
      <point x="312" y="556" type="curve" smooth="yes"/>
      <point x="148" y="556"/>
      <point x="40" y="444"/>
      <point x="40" y="273" type="curve" smooth="yes"/>
      <point x="40" y="103"/>
      <point x="148" y="-10"/>
      <point x="303" y="-10" type="curve" smooth="yes"/>
      <point x="438" y="-10"/>
      <point x="515" y="67"/>
      <point x="547" y="151" type="curve"/>
      <point x="472" y="151" type="line"/>
      <point x="450" y="92"/>
      <point x="391" y="46"/>
      <point x="303" y="46" type="curve" smooth="yes"/>
      <point x="195" y="46"/>
      <point x="112" y="123"/>
      <point x="112" y="259" type="curve" smooth="yes"/>
      <point x="112" y="285" type="line" smooth="yes"/>
      <point x="112" y="422"/>
      <point x="195" y="500"/>
      <point x="303" y="500" type="curve" smooth="yes"/>
      <point x="410" y="500"/>
      <point x="494" y="426"/>
      <point x="494" y="303" type="curve"/>
      <point x="89" y="303" type="line"/>
    </contour>
  </outline>
</glyph>
<glyph name="f" format="1">
  <advance width="328"/>
  <unicode hex="0066"/>
  <outline>
    <contour>
      <point x="99" y="0" type="line"/>
      <point x="169" y="0" type="line"/>
      <point x="169" y="599" type="line" smooth="yes"/>
      <point x="169" y="675"/>
      <point x="198" y="707"/>
      <point x="288" y="707" type="curve"/>
      <point x="288" y="763" type="line"/>
      <point x="157" y="763"/>
      <point x="99" y="714"/>
      <point x="99" y="599" type="curve" smooth="yes"/>
    </contour>
    <contour>
      <point x="23" y="491" type="line"/>
      <point x="296" y="491" type="line"/>
      <point x="296" y="546" type="line"/>
      <point x="23" y="546" type="line"/>
    </contour>
  </outline>
</glyph>
<glyph name="l" format="1">
  <advance width="220"/>
  <unicode hex="006C"/>
  <outline>
    <contour>
      <point x="110" y="10" type="move" name="commaaccent"/>
    </contour>
    <contour>
      <point x="110" y="740" type="move" name="top"/>
    </contour>
    <contour>
      <point x="200" y="546" type="move" name="topright"/>
    </contour>
    <contour>
      <point x="110" y="0" type="move" name="bottom"/>
    </contour>
    <contour>
      <point x="75" y="0" type="line"/>
      <point x="145" y="0" type="line"/>
      <point x="145" y="740" type="line"/>
      <point x="75" y="740" type="line"/>
    </contour>
  </outline>
</glyph>
<glyph name="o" format="1">
  <advance width="626"/>
  <unicode hex="006F"/>
  <outline>
    <contour>
      <point x="313" y="546" type="move" name="top"/>
    </contour>
    <contour>
      <point x="40" y="273" type="curve" smooth="yes"/>
      <point x="40" y="103"/>
      <point x="149" y="-10"/>
      <point x="303" y="-10" type="curve" smooth="yes"/>
      <point x="458" y="-10"/>
      <point x="586" y="103"/>
      <point x="586" y="273" type="curve" smooth="yes"/>
      <point x="586" y="444"/>
      <point x="467" y="556"/>
      <point x="313" y="556" type="curve" smooth="yes"/>
      <point x="159" y="556"/>
      <point x="40" y="444"/>
    </contour>
    <contour>
      <point x="513" y="273" type="curve" smooth="yes"/>
      <point x="513" y="126"/>
      <point x="410" y="46"/>
      <point x="303" y="46" type="curve" smooth="yes"/>
      <point x="195" y="46"/>
      <point x="111" y="126"/>
      <point x="111" y="273" type="curve" smooth="yes"/>
      <point x="111" y="421"/>
      <point x="202" y="500"/>
      <point x="309" y="500" type="curve" smooth="yes"/>
      <point x="417" y="500"/>
      <point x="513" y="421"/>
    </contour>
  </outline>
</glyph>
<glyph name="q" format="1">
  <advance width="662"/>
  <unicode hex="0071"/>
  <outline>
    <contour>
      <point x="40" y="278" type="curve" smooth="yes"/>
      <point x="40" y="108"/>
      <point x="154" y="-10"/>
      <point x="304" y="-10" type="curve" smooth="yes"/>
      <point x="408" y="-10"/>
      <point x="483" y="49"/>
      <point x="517" y="120" type="curve"/>
      <point x="517" y="-258" type="line"/>
      <point x="587" y="-258" type="line"/>
      <point x="587" y="546" type="line"/>
      <point x="517" y="546" type="line"/>
      <point x="517" y="427" type="line"/>
      <point x="483" y="498"/>
      <point x="408" y="556"/>
      <point x="304" y="556" type="curve" smooth="yes"/>
      <point x="154" y="556"/>
      <point x="40" y="448"/>
    </contour>
    <contour>
      <point x="517" y="273" type="curve" smooth="yes"/>
      <point x="517" y="135"/>
      <point x="422" y="50"/>
      <point x="314" y="50" type="curve" smooth="yes"/>
      <point x="207" y="50"/>
      <point x="112" y="140"/>
      <point x="112" y="278" type="curve" smooth="yes"/>
      <point x="112" y="416"/>
      <point x="207" y="496"/>
      <point x="314" y="496" type="curve" smooth="yes"/>
      <point x="422" y="496"/>
      <point x="517" y="411"/>
    </contour>
  </outline>
</glyph>
<glyph name="s" format="1">
  <advance width="518"/>
  <unicode hex="0073"/>
  <outline>
    <contour>
      <point x="259" y="546" type="move" name="top"/>
    </contour>
    <contour>
      <point x="259" y="0" type="move" name="bottom"/>
    </contour>
    <contour>
      <point x="60" y="395" type="curve" smooth="yes"/>
      <point x="60" y="192"/>
      <point x="387" y="299"/>
      <point x="387" y="140" type="curve" smooth="yes"/>
      <point x="387" y="84"/>
      <point x="344" y="46"/>
      <point x="258" y="46" type="curve" smooth="yes"/>
      <point x="182" y="46"/>
      <point x="135" y="94"/>
      <point x="132" y="161" type="curve"/>
      <point x="60" y="161" type="line"/>
      <point x="66" y="56"/>
      <point x="138" y="-10"/>
      <point x="258" y="-10" type="curve" smooth="yes"/>
      <point x="378" y="-10"/>
      <point x="458" y="52"/>
      <point x="458" y="140" type="curve" smooth="yes"/>
      <point x="458" y="357"/>
      <point x="131" y="241"/>
      <point x="131" y="403" type="curve" smooth="yes"/>
      <point x="131" y="455"/>
      <point x="174" y="500"/>
      <point x="254" y="500" type="curve" smooth="yes"/>
      <point x="331" y="500"/>
      <point x="373" y="449"/>
      <point x="376" y="385" type="curve"/>
      <point x="448" y="385" type="line"/>
      <point x="442" y="490"/>
      <point x="376" y="556"/>
      <point x="260" y="556" type="curve" smooth="yes"/>
      <point x="140" y="556"/>
      <point x="60" y="483"/>
    </contour>
  </outline>
</glyph>
<glyph name="u" format="1">
  <advance width="609"/>
  <unicode hex="0075"/>
  <outline>
    <contour>
      <point x="305" y="546" type="move" name="top"/>
    </contour>
    <contour>
      <point x="534" y="0" type="move" name="ogonek"/>
    </contour>
    <contour>
      <point x="534" y="546" type="line"/>
      <point x="464" y="546" type="line"/>
      <point x="464" y="0" type="line"/>
      <point x="534" y="0" type="line"/>
    </contour>
    <contour>
      <point x="139" y="546" type="line"/>
      <point x="70" y="546" type="line"/>
      <point x="70" y="221" type="line" smooth="yes"/>
      <point x="70" y="64"/>
      <point x="170" y="-10"/>
      <point x="283" y="-10" type="curve" smooth="yes"/>
      <point x="384" y="-10"/>
      <point x="472" y="47"/>
      <point x="492" y="172" type="curve"/>
      <point x="464" y="234" type="line"/>
      <point x="464" y="111"/>
      <point x="399" y="50"/>
      <point x="301" y="50" type="curve" smooth="yes"/>
      <point x="203" y="50"/>
      <point x="139" y="111"/>
      <point x="139" y="234" type="curve" smooth="yes"/>
    </contour>
  </outline>
</glyph>
<glyph name="v" format="1">
  <advance width="537"/>
  <unicode hex="0076"/>
  <outline>
    <contour>
      <point x="14" y="546" type="line"/>
      <point x="233" y="0" type="line"/>
      <point x="304" y="0" type="line"/>
      <point x="523" y="546" type="line"/>
      <point x="448" y="546" type="line"/>
      <point x="268" y="69" type="line"/>
      <point x="89" y="546" type="line"/>
    </contour>
  </outline>
</glyph>
<glyph name="w" format="1">
  <advance width="792"/>
  <unicode hex="0077"/>
  <outline>
    <contour>
      <point x="190" y="0" type="line"/>
      <point x="261" y="0" type="line"/>
      <point x="416" y="526" type="line"/>
      <point x="377" y="526" type="line"/>
      <point x="533" y="0" type="line"/>
      <point x="604" y="0" type="line"/>
      <point x="778" y="546" type="line"/>
      <point x="704" y="546" type="line"/>
      <point x="556" y="34" type="line"/>
      <point x="580" y="34" type="line"/>
      <point x="436" y="546" type="line"/>
      <point x="366" y="546" type="line"/>
      <point x="213" y="34" type="line"/>
      <point x="237" y="34" type="line"/>
      <point x="88" y="546" type="line"/>
      <point x="14" y="546" type="line"/>
    </contour>
  </outline>
</glyph>
<glyph name="z" format="1">
  <advance width="437"/>
  <unicode hex="007A"/>
  <outline>
    <contour>
      <point x="219" y="546" type="move" name="top"/>
    </contour>
    <contour>
      <point x="396" y="546" type="line"/>
      <point x="40" y="546" type="line"/>
      <point x="40" y="491" type="line"/>
      <point x="319" y="491" type="line"/>
      <point x="40" y="56" type="line"/>
      <point x="40" y="0" type="line"/>
      <point x="396" y="0" type="line"/>
      <point x="396" y="56" type="line"/>
      <point x="117" y="56" type="line"/>
      <point x="396" y="491" type="line"/>
    </contour>
  </outline>
</glyph>
<glyph name="bar" format="1">
  <advance width="280"/>
  <unicode hex="007C"/>
  <outline>
    <contour>
      <point x="105" y="790" type="line"/>
      <point x="105" y="-100" type="line"/>
      <point x="175" y="-100" type="line"/>
      <point x="175" y="790" type="line"/>
    </contour>
  </outline>
</glyph>
<glyph name="cent" format="1">
  <advance width="737"/>
  <unicode hex="00A2"/>
  <outline>
    <contour>
      <point x="331" y="464" type="curve" smooth="yes"/>
      <point x="429" y="464"/>
      <point x="472" y="420"/>
      <point x="492" y="363" type="curve"/>
      <point x="557" y="363" type="line"/>
      <point x="541" y="447"/>
      <point x="466" y="524"/>
      <point x="331" y="524" type="curve" smooth="yes"/>
      <point x="158" y="524"/>
      <point x="75" y="396"/>
      <point x="75" y="261" type="curve" smooth="yes"/>
      <point x="75" y="128"/>
      <point x="158" y="0"/>
      <point x="331" y="0" type="curve" smooth="yes"/>
      <point x="466" y="0"/>
      <point x="541" y="77"/>
      <point x="557" y="161" type="curve"/>
      <point x="492" y="161" type="line"/>
      <point x="472" y="104"/>
      <point x="429" y="60"/>
      <point x="331" y="60" type="curve" smooth="yes"/>
      <point x="217" y="60"/>
      <point x="140" y="135"/>
      <point x="140" y="262" type="curve"/>
      <point x="140" y="389"/>
      <point x="217" y="464"/>
    </contour>
    <contour>
      <point x="303" y="491" type="line"/>
      <point x="358" y="491" type="line"/>
      <point x="358" y="614" type="line"/>
      <point x="303" y="614" type="line"/>
    </contour>
    <contour>
      <point x="303" y="-90" type="line"/>
      <point x="358" y="-90" type="line"/>
      <point x="358" y="33" type="line"/>
      <point x="303" y="33" type="line"/>
    </contour>
  </outline>
</glyph>
<glyph name="sterling" format="1">
  <advance width="632"/>
  <unicode hex="00A3"/>
  <outline>
    <contour>
      <point x="112" y="492" type="curve" smooth="yes"/>
      <point x="112" y="369"/>
      <point x="166" y="342"/>
      <point x="166" y="240" type="curve" smooth="yes"/>
      <point x="166" y="148"/>
      <point x="134" y="100"/>
      <point x="91" y="45" type="curve"/>
      <point x="108" y="0" type="line"/>
      <point x="534" y="0" type="line"/>
      <point x="534" y="60" type="line"/>
      <point x="164" y="60" type="line"/>
      <point x="206" y="110"/>
      <point x="232" y="163"/>
      <point x="232" y="239" type="curve"/>
      <point x="232" y="317"/>
      <point x="177" y="395"/>
      <point x="177" y="488" type="curve" smooth="yes"/>
      <point x="177" y="600"/>
      <point x="247" y="640"/>
      <point x="324" y="640" type="curve" smooth="yes"/>
      <point x="424" y="640"/>
      <point x="464" y="579"/>
      <point x="464" y="498" type="curve"/>
      <point x="526" y="498" type="line"/>
      <point x="524" y="608"/>
      <point x="464" y="700"/>
      <point x="322" y="700" type="curve" smooth="yes"/>
      <point x="201" y="700"/>
      <point x="112" y="612"/>
    </contour>
    <contour>
      <point x="47" y="364" type="line"/>
      <point x="47" y="314" type="line"/>
      <point x="405" y="314" type="line"/>
      <point x="405" y="364" type="line"/>
    </contour>
  </outline>
</glyph>
<glyph name="currency" format="1">
  <advance width="526"/>
  <unicode hex="00A4"/>
  <outline>
    <contour>
      <point x="94" y="377" type="curve" smooth="yes"/>
      <point x="94" y="271"/>
      <point x="161" y="202"/>
      <point x="257" y="202" type="curve" smooth="yes"/>
      <point x="353" y="202"/>
      <point x="432" y="271"/>
      <point x="432" y="377" type="curve" smooth="yes"/>
      <point x="432" y="483"/>
      <point x="358" y="552"/>
      <point x="263" y="552" type="curve" smooth="yes"/>
      <point x="168" y="552"/>
      <point x="94" y="483"/>
    </contour>
    <contour>
      <point x="374" y="377" type="curve" smooth="yes"/>
      <point x="374" y="292"/>
      <point x="317" y="248"/>
      <point x="258" y="248" type="curve" smooth="yes"/>
      <point x="198" y="248"/>
      <point x="151" y="292"/>
      <point x="151" y="377" type="curve" smooth="yes"/>
      <point x="151" y="461"/>
      <point x="201" y="507"/>
      <point x="261" y="507" type="curve" smooth="yes"/>
      <point x="321" y="507"/>
      <point x="374" y="461"/>
    </contour>
    <contour>
      <point x="351" y="251" type="line"/>
      <point x="427" y="175" type="line"/>
      <point x="466" y="214" type="line"/>
      <point x="389" y="290" type="line"/>
    </contour>
    <contour>
      <point x="138" y="292" type="line"/>
      <point x="60" y="214" type="line"/>
      <point x="99" y="175" type="line"/>
      <point x="175" y="251" type="line"/>
    </contour>
    <contour>
      <point x="177" y="502" type="line"/>
      <point x="99" y="580" type="line"/>
      <point x="60" y="541" type="line"/>
      <point x="140" y="462" type="line"/>
    </contour>
    <contour>
      <point x="388" y="463" type="line"/>
      <point x="466" y="541" type="line"/>
      <point x="427" y="580" type="line"/>
      <point x="348" y="501" type="line"/>
    </contour>
  </outline>
</glyph>
<glyph name="yen" format="1">
  <advance width="541"/>
  <unicode hex="00A5"/>
  <outline>
    <contour>
      <point x="292" y="312" type="line"/>
      <point x="506" y="315" type="line"/>
      <point x="506" y="372" type="line"/>
      <point x="317" y="372" type="line"/>
    </contour>
    <contour>
      <point x="36" y="140" type="line"/>
      <point x="506" y="140" type="line"/>
      <point x="506" y="197" type="line"/>
      <point x="36" y="197" type="line"/>
    </contour>
    <contour>
      <point x="236" y="272" type="line"/>
      <point x="236" y="0" type="line"/>
      <point x="306" y="0" type="line"/>
      <point x="306" y="272" type="line"/>
      <point x="526" y="690" type="line"/>
      <point x="450" y="690" type="line"/>
      <point x="250" y="296" type="line"/>
      <point x="291" y="296" type="line"/>
      <point x="90" y="690" type="line"/>
      <point x="15" y="690" type="line"/>
    </contour>
    <contour>
      <point x="36" y="315" type="line"/>
      <point x="250" y="312" type="line"/>
      <point x="225" y="372" type="line"/>
      <point x="36" y="372" type="line"/>
    </contour>
  </outline>
</glyph>
<glyph name="brokenbar" format="1">
  <advance width="280"/>
  <unicode hex="00A6"/>
  <outline>
    <contour>
      <point x="105" y="270" type="line"/>
      <point x="105" y="-100" type="line"/>
      <point x="175" y="-100" type="line"/>
      <point x="175" y="270" type="line"/>
    </contour>
    <contour>
      <point x="175" y="420" type="line"/>
      <point x="175" y="790" type="line"/>
      <point x="105" y="790" type="line"/>
      <point x="105" y="420" type="line"/>
    </contour>
  </outline>
</glyph>
<glyph name="section" format="1">
  <advance width="571"/>
  <unicode hex="00A7"/>
  <outline>
    <contour>
      <point x="81" y="541" type="curve" smooth="yes"/>
      <point x="81" y="456"/>
      <point x="152" y="430"/>
      <point x="221" y="402" type="curve"/>
      <point x="224" y="412" type="line"/>
      <point x="121" y="401"/>
      <point x="49" y="334"/>
      <point x="49" y="244" type="curve" smooth="yes"/>
      <point x="49" y="144"/>
      <point x="122" y="96"/>
      <point x="262" y="54" type="curve" smooth="yes"/>
      <point x="392" y="14"/>
      <point x="424" y="-8"/>
      <point x="424" y="-56" type="curve" smooth="yes"/>
      <point x="424" y="-120"/>
      <point x="373" y="-152"/>
      <point x="284" y="-152" type="curve" smooth="yes"/>
      <point x="195" y="-152"/>
      <point x="159" y="-106"/>
      <point x="155" y="-56" type="curve"/>
      <point x="91" y="-56" type="line"/>
      <point x="91" y="-148"/>
      <point x="177" y="-203"/>
      <point x="284" y="-203" type="curve" smooth="yes"/>
      <point x="418" y="-203"/>
      <point x="490" y="-136"/>
      <point x="490" y="-53" type="curve" smooth="yes"/>
      <point x="490" y="32"/>
      <point x="419" y="58"/>
      <point x="350" y="86" type="curve"/>
      <point x="346" y="76" type="line"/>
      <point x="453" y="88"/>
      <point x="522" y="157"/>
      <point x="522" y="244" type="curve"/>
      <point x="522" y="344"/>
      <point x="449" y="392"/>
      <point x="309" y="434" type="curve" smooth="yes"/>
      <point x="179" y="474"/>
      <point x="147" y="496"/>
      <point x="147" y="544" type="curve" smooth="yes"/>
      <point x="147" y="608"/>
      <point x="198" y="640"/>
      <point x="287" y="640" type="curve" smooth="yes"/>
      <point x="376" y="640"/>
      <point x="412" y="594"/>
      <point x="416" y="544" type="curve"/>
      <point x="480" y="544" type="line"/>
      <point x="480" y="636"/>
      <point x="394" y="691"/>
      <point x="287" y="691" type="curve" smooth="yes"/>
      <point x="153" y="691"/>
      <point x="81" y="624"/>
    </contour>
    <contour>
      <point x="454" y="244" type="curve" smooth="yes"/>
      <point x="454" y="178"/>
      <point x="393" y="120"/>
      <point x="288" y="120" type="curve" smooth="yes"/>
      <point x="183" y="120"/>
      <point x="117" y="178"/>
      <point x="117" y="244" type="curve"/>
      <point x="117" y="310"/>
      <point x="178" y="368"/>
      <point x="283" y="368" type="curve" smooth="yes"/>
      <point x="385" y="368"/>
      <point x="454" y="313"/>
    </contour>
  </outline>
</glyph>
<glyph name="dieresis" format="1">
  <advance width="268"/>
  <unicode hex="00A8"/>
  <outline>
    <contour>
      <point x="134" y="546" type="move" name="_top"/>
    </contour>
    <contour>
      <point x="59" y="620" type="curve" smooth="yes"/>
      <point x="86" y="620"/>
      <point x="108" y="642"/>
      <point x="108" y="669" type="curve" smooth="yes"/>
      <point x="108" y="696"/>
      <point x="86" y="718"/>
      <point x="59" y="718" type="curve" smooth="yes"/>
      <point x="32" y="718"/>
      <point x="10" y="696"/>
      <point x="10" y="669" type="curve" smooth="yes"/>
      <point x="10" y="642"/>
      <point x="32" y="620"/>
    </contour>
    <contour>
      <point x="209" y="620" type="curve" smooth="yes"/>
      <point x="236" y="620"/>
      <point x="258" y="642"/>
      <point x="258" y="669" type="curve" smooth="yes"/>
      <point x="258" y="696"/>
      <point x="236" y="718"/>
      <point x="209" y="718" type="curve" smooth="yes"/>
      <point x="182" y="718"/>
      <point x="160" y="696"/>
      <point x="160" y="669" type="curve" smooth="yes"/>
      <point x="160" y="642"/>
      <point x="182" y="620"/>
    </contour>
  </outline>
</glyph>
<glyph name="copyright" format="1">
  <advance width="790"/>
  <unicode hex="00A9"/>
  <outline>
    <contour>
      <point x="740" y="344" type="curve" smooth="yes"/>
      <point x="740" y="137"/>
      <point x="600" y="-10"/>
      <point x="395" y="-10" type="curve" smooth="yes"/>
      <point x="190" y="-10"/>
      <point x="50" y="137"/>
      <point x="50" y="344" type="curve" smooth="yes"/>
      <point x="50" y="551"/>
      <point x="190" y="697"/>
      <point x="395" y="697" type="curve" smooth="yes"/>
      <point x="600" y="697"/>
      <point x="740" y="551"/>
    </contour>
    <contour>
      <point x="91" y="344" type="curve" smooth="yes"/>
      <point x="91" y="154"/>
      <point x="208" y="26"/>
      <point x="395" y="26" type="curve" smooth="yes"/>
      <point x="582" y="26"/>
      <point x="699" y="154"/>
      <point x="699" y="344" type="curve" smooth="yes"/>
      <point x="699" y="536"/>
      <point x="582" y="661"/>
      <point x="395" y="661" type="curve" smooth="yes"/>
      <point x="208" y="661"/>
      <point x="91" y="536"/>
    </contour>
    <contour>
      <point x="179" y="345" type="curve" smooth="yes"/>
      <point x="179" y="205"/>
      <point x="277" y="112"/>
      <point x="395" y="112" type="curve" smooth="yes"/>
      <point x="497" y="112"/>
      <point x="569" y="174"/>
      <point x="596" y="254" type="curve"/>
      <point x="525" y="254" type="line"/>
      <point x="508" y="204"/>
      <point x="468" y="167"/>
      <point x="395" y="167" type="curve" smooth="yes"/>
      <point x="316" y="167"/>
      <point x="250" y="221"/>
      <point x="250" y="345" type="curve" smooth="yes"/>
      <point x="250" y="471"/>
      <point x="316" y="523"/>
      <point x="395" y="523" type="curve" smooth="yes"/>
      <point x="458" y="523"/>
      <point x="508" y="496"/>
      <point x="525" y="436" type="curve"/>
      <point x="596" y="436" type="line"/>
      <point x="569" y="523"/>
      <point x="497" y="578"/>
      <point x="395" y="578" type="curve" smooth="yes"/>
      <point x="277" y="578"/>
      <point x="179" y="485"/>
    </contour>
  </outline>
</glyph>
<glyph name="ordfeminine" format="1">
  <advance width="445"/>
  <unicode hex="00AA"/>
  <outline>
    <contour>
      <point x="35" y="531" type="curve" smooth="yes"/>
      <point x="35" y="426"/>
      <point x="108" y="347"/>
      <point x="200" y="347" type="curve" smooth="yes"/>
      <point x="267" y="347"/>
      <point x="315" y="382"/>
      <point x="337" y="424" type="curve"/>
      <point x="337" y="353" type="line"/>
      <point x="395" y="353" type="line"/>
      <point x="395" y="703" type="line"/>
      <point x="337" y="703" type="line"/>
      <point x="337" y="633" type="line"/>
      <point x="315" y="675"/>
      <point x="267" y="709"/>
      <point x="200" y="709" type="curve" smooth="yes"/>
      <point x="108" y="709"/>
      <point x="35" y="636"/>
    </contour>
    <contour>
      <point x="337" y="528" type="curve" smooth="yes"/>
      <point x="337" y="446"/>
      <point x="281" y="396"/>
      <point x="217" y="396" type="curve" smooth="yes"/>
      <point x="154" y="396"/>
      <point x="97" y="449"/>
      <point x="97" y="531" type="curve" smooth="yes"/>
      <point x="97" y="612"/>
      <point x="154" y="660"/>
      <point x="217" y="660" type="curve" smooth="yes"/>
      <point x="281" y="660"/>
      <point x="337" y="610"/>
    </contour>
  </outline>
</glyph>
<glyph name="guillemotleft" format="1">
  <advance width="435"/>
  <unicode hex="00AB"/>
  <outline>
    <contour>
      <point x="113" y="295" type="line"/>
      <point x="215" y="470" type="line"/>
      <point x="144" y="470" type="line"/>
      <point x="45" y="295" type="line"/>
      <point x="144" y="120" type="line"/>
      <point x="215" y="120" type="line"/>
    </contour>
    <contour>
      <point x="283" y="295" type="line"/>
      <point x="385" y="470" type="line"/>
      <point x="314" y="470" type="line"/>
      <point x="215" y="295" type="line"/>
      <point x="314" y="120" type="line"/>
      <point x="385" y="120" type="line"/>
    </contour>
  </outline>
</glyph>
<glyph name="logicalnot" format="1">
  <advance width="729"/>
  <unicode hex="00AC"/>
  <outline>
    <contour>
      <point x="49" y="373" type="line"/>
      <point x="610" y="373" type="line"/>
      <point x="610" y="230" type="line"/>
      <point x="679" y="230" type="line"/>
      <point x="679" y="430" type="line"/>
      <point x="49" y="430" type="line"/>
    </contour>
  </outline>
</glyph>
<glyph name="macron" format="1">
  <advance width="359"/>
  <unicode hex="00AF"/>
  <outline>
    <contour>
      <point x="180" y="546" type="move" name="_top"/>
    </contour>
    <contour>
      <point x="10" y="640" type="line"/>
      <point x="349" y="640" type="line"/>
      <point x="349" y="700" type="line"/>
      <point x="10" y="700" type="line"/>
    </contour>
  </outline>
</glyph>
<glyph name="plusminus" format="1">
  <advance width="769"/>
  <unicode hex="00B1"/>
  <outline>
    <contour>
      <point x="352" y="625" type="line"/>
      <point x="352" y="174" type="line"/>
      <point x="417" y="174" type="line"/>
      <point x="417" y="625" type="line"/>
    </contour>
    <contour>
      <point x="130" y="380" type="line"/>
      <point x="639" y="380" type="line"/>
      <point x="639" y="440" type="line"/>
      <point x="130" y="440" type="line"/>
    </contour>
    <contour>
      <point x="130" y="136" type="line"/>
      <point x="639" y="136" type="line"/>
      <point x="639" y="196" type="line"/>
      <point x="130" y="196" type="line"/>
    </contour>
  </outline>
</glyph>
<glyph name="threesuperior" format="1">
  <advance width="317"/>
  <unicode hex="00B3"/>
  <outline>
    <contour>
      <point x="23" y="623" type="curve"/>
      <point x="81" y="623" type="line"/>
      <point x="91" y="647"/>
      <point x="111" y="660"/>
      <point x="147" y="660" type="curve" smooth="yes"/>
      <point x="190" y="660"/>
      <point x="216" y="637"/>
      <point x="216" y="602" type="curve" smooth="yes"/>
      <point x="216" y="567"/>
      <point x="187" y="548"/>
      <point x="146" y="548" type="curve" smooth="yes"/>
      <point x="98" y="548" type="line"/>
      <point x="98" y="505" type="line"/>
      <point x="146" y="505" type="line" smooth="yes"/>
      <point x="187" y="505"/>
      <point x="216" y="485"/>
      <point x="216" y="450" type="curve" smooth="yes"/>
      <point x="216" y="415"/>
      <point x="187" y="393"/>
      <point x="146" y="393" type="curve" smooth="yes"/>
      <point x="109" y="393"/>
      <point x="82" y="410"/>
      <point x="76" y="446" type="curve"/>
      <point x="20" y="446" type="line"/>
      <point x="26" y="385"/>
      <point x="67" y="347"/>
      <point x="147" y="347" type="curve" smooth="yes"/>
      <point x="227" y="347"/>
      <point x="277" y="393"/>
      <point x="277" y="444" type="curve" smooth="yes"/>
      <point x="277" y="486"/>
      <point x="249" y="513"/>
      <point x="213" y="524" type="curve"/>
      <point x="213" y="526" type="line"/>
      <point x="249" y="537"/>
      <point x="277" y="566"/>
      <point x="277" y="608" type="curve" smooth="yes"/>
      <point x="277" y="666"/>
      <point x="214" y="709"/>
      <point x="148" y="709" type="curve" smooth="yes"/>
      <point x="86" y="709"/>
      <point x="31" y="676"/>
    </contour>
  </outline>
</glyph>
<glyph name="acute" format="1">
  <advance width="225"/>
  <unicode hex="00B4"/>
  <outline>
    <contour>
      <point x="123" y="546" type="move" name="_top"/>
    </contour>
    <contour>
      <point x="10" y="642" type="line"/>
      <point x="10" y="585" type="line"/>
      <point x="215" y="700" type="line"/>
      <point x="215" y="770" type="line"/>
    </contour>
  </outline>
</glyph>
<glyph name="mu.math" format="1">
  <advance width="614"/>
  <unicode hex="00B5"/>
  <outline>
    <contour>
      <point x="539" y="546" type="line"/>
      <point x="469" y="546" type="line"/>
      <point x="469" y="0" type="line"/>
      <point x="539" y="0" type="line"/>
    </contour>
    <contour>
      <point x="469" y="234" type="line"/>
      <point x="469" y="111"/>
      <point x="404" y="50"/>
      <point x="306" y="50" type="curve" smooth="yes"/>
      <point x="208" y="50"/>
      <point x="144" y="111"/>
      <point x="144" y="234" type="curve" smooth="yes"/>
      <point x="144" y="546" type="line"/>
      <point x="75" y="546" type="line"/>
      <point x="75" y="-258" type="line"/>
      <point x="144" y="-258" type="line"/>
      <point x="144" y="68" type="line"/>
      <point x="132" y="54" type="line"/>
      <point x="171" y="11"/>
      <point x="228" y="-10"/>
      <point x="288" y="-10" type="curve" smooth="yes"/>
      <point x="389" y="-10"/>
      <point x="477" y="47"/>
      <point x="497" y="172" type="curve"/>
    </contour>
  </outline>
</glyph>
<glyph name="onesuperior" format="1">
  <advance width="177"/>
  <unicode hex="00B9"/>
  <outline>
    <contour>
      <point x="69" y="352" type="line"/>
      <point x="127" y="352" type="line"/>
      <point x="127" y="704" type="line"/>
      <point x="20" y="704" type="line"/>
      <point x="20" y="661" type="line"/>
      <point x="69" y="661" type="line"/>
    </contour>
  </outline>
</glyph>
<glyph name="ordmasculine" format="1">
  <advance width="429"/>
  <unicode hex="00BA"/>
  <outline>
    <contour>
      <point x="35" y="527" type="curve" smooth="yes"/>
      <point x="35" y="419"/>
      <point x="111" y="347"/>
      <point x="209" y="347" type="curve" smooth="yes"/>
      <point x="307" y="347"/>
      <point x="394" y="419"/>
      <point x="394" y="527" type="curve" smooth="yes"/>
      <point x="394" y="637"/>
      <point x="313" y="709"/>
      <point x="215" y="709" type="curve" smooth="yes"/>
      <point x="117" y="709"/>
      <point x="35" y="637"/>
    </contour>
    <contour>
      <point x="332" y="527" type="curve" smooth="yes"/>
      <point x="332" y="440"/>
      <point x="272" y="394"/>
      <point x="209" y="394" type="curve" smooth="yes"/>
      <point x="146" y="394"/>
      <point x="97" y="440"/>
      <point x="97" y="527" type="curve" smooth="yes"/>
      <point x="97" y="616"/>
      <point x="150" y="663"/>
      <point x="213" y="663" type="curve" smooth="yes"/>
      <point x="276" y="663"/>
      <point x="332" y="616"/>
    </contour>
  </outline>
</glyph>
<glyph name="guillemotright" format="1">
  <advance width="435"/>
  <unicode hex="00BB"/>
  <outline>
    <contour>
      <point x="291" y="120" type="line"/>
      <point x="390" y="295" type="line"/>
      <point x="291" y="470" type="line"/>
      <point x="220" y="470" type="line"/>
      <point x="322" y="295" type="line"/>
      <point x="220" y="120" type="line"/>
    </contour>
    <contour>
      <point x="121" y="120" type="line"/>
      <point x="220" y="295" type="line"/>
      <point x="121" y="470" type="line"/>
      <point x="50" y="470" type="line"/>
      <point x="152" y="295" type="line"/>
      <point x="50" y="120" type="line"/>
    </contour>
  </outline>
</glyph>
<glyph name="onehalf" format="1">
  <advance width="607"/>
  <unicode hex="00BD"/>
  <outline>
    <contour>
      <point x="44" y="0" type="line"/>
      <point x="106" y="0" type="line"/>
      <point x="466" y="690" type="line"/>
      <point x="404" y="690" type="line"/>
    </contour>
    <component base="twosuperior" xOffset="319" yOffset="-353"/>
    <component base="onesuperior" xOffset="10"/>
  </outline>
</glyph>
<glyph name="threequarters" format="1">
  <advance width="625"/>
  <unicode hex="00BE"/>
  <outline>
    <contour>
      <point x="88" y="0" type="line"/>
      <point x="150" y="0" type="line"/>
      <point x="566" y="690" type="line"/>
      <point x="504" y="690" type="line"/>
    </contour>
    <contour>
      <point x="545" y="113" type="line"/>
      <point x="545" y="354" type="line"/>
      <point x="472" y="354" type="line"/>
      <point x="309" y="106" type="line"/>
      <point x="309" y="71" type="line"/>
      <point x="487" y="71" type="line"/>
      <point x="487" y="0" type="line"/>
      <point x="545" y="0" type="line"/>
      <point x="545" y="71" type="line"/>
      <point x="595" y="71" type="line"/>
      <point x="595" y="113" type="line"/>
    </contour>
    <contour>
      <point x="371" y="113" type="line"/>
      <point x="487" y="292" type="line"/>
      <point x="487" y="113" type="line"/>
    </contour>
    <component base="threesuperior"/>
  </outline>
</glyph>
<glyph name="AE" format="1">
  <advance width="873"/>
  <unicode hex="00C6"/>
  <outline>
    <contour>
      <point x="148" y="161" type="line"/>
      <point x="492" y="161" type="line"/>
      <point x="492" y="217" type="line"/>
      <point x="180" y="217" type="line"/>
    </contour>
    <contour>
      <point x="812" y="633" type="line"/>
      <point x="812" y="690" type="line"/>
      <point x="420" y="690" type="line"/>
      <point x="14" y="0" type="line"/>
      <point x="90" y="0" type="line"/>
      <point x="461" y="636" type="line"/>
      <point x="461" y="0" type="line"/>
      <point x="812" y="0" type="line"/>
      <point x="812" y="56" type="line"/>
      <point x="531" y="56" type="line"/>
      <point x="531" y="319" type="line"/>
      <point x="782" y="319" type="line"/>
      <point x="782" y="375" type="line"/>
      <point x="531" y="375" type="line"/>
      <point x="531" y="633" type="line"/>
    </contour>
  </outline>
</glyph>
<glyph name="Eth" format="1">
  <advance width="705"/>
  <unicode hex="00D0"/>
  <outline>
    <contour>
      <point x="0" y="311" type="line"/>
      <point x="369" y="311" type="line"/>
      <point x="369" y="371" type="line"/>
      <point x="0" y="371" type="line"/>
    </contour>
    <contour>
      <point x="307" y="690" type="curve" smooth="yes"/>
      <point x="95" y="690" type="line"/>
      <point x="95" y="0" type="line"/>
      <point x="307" y="0" type="line" smooth="yes"/>
      <point x="530" y="0"/>
      <point x="663" y="121"/>
      <point x="663" y="341" type="curve" smooth="yes"/>
      <point x="663" y="560"/>
      <point x="530" y="690"/>
    </contour>
    <contour>
      <point x="165" y="54" type="line"/>
      <point x="165" y="628" type="line"/>
      <point x="307" y="628" type="line" smooth="yes"/>
      <point x="495" y="628"/>
      <point x="591" y="519"/>
      <point x="591" y="341" type="curve" smooth="yes"/>
      <point x="591" y="163"/>
      <point x="495" y="54"/>
      <point x="307" y="54" type="curve" smooth="yes"/>
    </contour>
  </outline>
</glyph>
<glyph name="multiply" format="1">
  <advance width="736"/>
  <unicode hex="00D7"/>
  <outline>
    <contour>
      <point x="163" y="533" type="line"/>
      <point x="532" y="163" type="line"/>
      <point x="575" y="206" type="line"/>
      <point x="206" y="576" type="line"/>
    </contour>
    <contour>
      <point x="206" y="163" type="line"/>
      <point x="576" y="530" type="line"/>
      <point x="530" y="576" type="line"/>
      <point x="160" y="209" type="line"/>
    </contour>
  </outline>
</glyph>
<glyph name="Oslash" format="1">
  <advance width="781"/>
  <unicode hex="00D8"/>
  <outline>
    <contour>
      <point x="29" y="0" type="line"/>
      <point x="110" y="0" type="line"/>
      <point x="753" y="690" type="line"/>
      <point x="672" y="690" type="line"/>
    </contour>
    <component base="O"/>
  </outline>
</glyph>
<glyph name="Thorn" format="1">
  <advance width="562"/>
  <unicode hex="00DE"/>
  <outline>
    <contour>
      <point x="145" y="202" type="line"/>
      <point x="145" y="489" type="line"/>
      <point x="286" y="489" type="line" smooth="yes"/>
      <point x="404" y="489"/>
      <point x="451" y="434"/>
      <point x="451" y="345" type="curve" smooth="yes"/>
      <point x="451" y="259"/>
      <point x="404" y="202"/>
      <point x="286" y="202" type="curve" smooth="yes"/>
    </contour>
    <contour>
      <point x="522" y="345" type="curve" smooth="yes"/>
      <point x="522" y="460"/>
      <point x="446" y="546"/>
      <point x="286" y="546" type="curve" smooth="yes"/>
      <point x="145" y="546" type="line"/>
      <point x="145" y="690" type="line"/>
      <point x="75" y="690" type="line"/>
      <point x="75" y="0" type="line"/>
      <point x="145" y="0" type="line"/>
      <point x="145" y="145" type="line"/>
      <point x="286" y="145" type="line" smooth="yes"/>
      <point x="448" y="145"/>
      <point x="522" y="231"/>
    </contour>
  </outline>
</glyph>
<glyph name="germandbls" format="1">
  <advance width="631"/>
  <unicode hex="00DF"/>
  <outline>
    <contour>
      <point x="75" y="563" type="curve" smooth="yes"/>
      <point x="75" y="0" type="line"/>
      <point x="145" y="0" type="line"/>
      <point x="145" y="567" type="line" smooth="yes"/>
      <point x="145" y="641"/>
      <point x="198" y="690"/>
      <point x="266" y="690" type="curve" smooth="yes"/>
      <point x="333" y="690"/>
      <point x="381" y="641"/>
      <point x="381" y="575" type="curve" smooth="yes"/>
      <point x="381" y="525"/>
      <point x="358" y="488"/>
      <point x="313" y="465" type="curve" smooth="yes"/>
      <point x="276" y="446" type="line"/>
      <point x="276" y="404" type="line"/>
      <point x="437" y="299" type="line" smooth="yes"/>
      <point x="501" y="257"/>
      <point x="528" y="217"/>
      <point x="528" y="167" type="curve" smooth="yes"/>
      <point x="528" y="108"/>
      <point x="492" y="52"/>
      <point x="411" y="52" type="curve" smooth="yes"/>
      <point x="336" y="52"/>
      <point x="297" y="95"/>
      <point x="293" y="153" type="curve"/>
      <point x="227" y="153" type="line"/>
      <point x="227" y="46"/>
      <point x="321" y="-10"/>
      <point x="411" y="-10" type="curve" smooth="yes"/>
      <point x="501" y="-10"/>
      <point x="600" y="51"/>
      <point x="600" y="167" type="curve" smooth="yes"/>
      <point x="600" y="251"/>
      <point x="563" y="306"/>
      <point x="470" y="365" type="curve" smooth="yes"/>
      <point x="330" y="455" type="line"/>
      <point x="316" y="416" type="line"/>
      <point x="350" y="433" type="line" smooth="yes"/>
      <point x="418" y="467"/>
      <point x="453" y="516"/>
      <point x="453" y="583" type="curve" smooth="yes"/>
      <point x="453" y="665"/>
      <point x="394" y="750"/>
      <point x="266" y="750" type="curve" smooth="yes"/>
      <point x="160" y="750"/>
      <point x="75" y="680"/>
    </contour>
  </outline>
</glyph>
<glyph name="eth" format="1">
  <advance width="624"/>
  <unicode hex="00F0"/>
  <outline>
    <contour>
      <point x="513" y="273" type="curve" smooth="yes"/>
      <point x="513" y="126"/>
      <point x="410" y="46"/>
      <point x="303" y="46" type="curve" smooth="yes"/>
      <point x="195" y="46"/>
      <point x="111" y="126"/>
      <point x="111" y="273" type="curve" smooth="yes"/>
      <point x="111" y="421"/>
      <point x="202" y="500"/>
      <point x="309" y="500" type="curve" smooth="yes"/>
      <point x="417" y="500"/>
      <point x="513" y="421"/>
    </contour>
    <contour>
      <point x="40" y="273" type="curve" smooth="yes"/>
      <point x="40" y="103"/>
      <point x="149" y="-10"/>
      <point x="303" y="-10" type="curve" smooth="yes"/>
      <point x="466" y="-10"/>
      <point x="584" y="98"/>
      <point x="584" y="317" type="curve" smooth="yes"/>
      <point x="584" y="483"/>
      <point x="510" y="618"/>
      <point x="358" y="740" type="curve"/>
      <point x="273" y="740" type="line"/>
      <point x="398" y="640"/>
      <point x="460" y="571"/>
      <point x="497" y="479" type="curve"/>
      <point x="446" y="530"/>
      <point x="392" y="556"/>
      <point x="313" y="556" type="curve" smooth="yes"/>
      <point x="159" y="556"/>
      <point x="40" y="444"/>
    </contour>
    <contour>
      <point x="260" y="645" type="line"/>
      <point x="260" y="588" type="line"/>
      <point x="555" y="690" type="line"/>
      <point x="555" y="747" type="line"/>
    </contour>
  </outline>
</glyph>
<glyph name="divide" format="1">
  <advance width="735"/>
  <unicode hex="00F7"/>
  <outline>
    <contour>
      <point x="383" y="108" type="curve" smooth="yes"/>
      <point x="410" y="108"/>
      <point x="432" y="130"/>
      <point x="432" y="157" type="curve" smooth="yes"/>
      <point x="432" y="184"/>
      <point x="410" y="206"/>
      <point x="383" y="206" type="curve" smooth="yes"/>
      <point x="356" y="206"/>
      <point x="334" y="184"/>
      <point x="334" y="157" type="curve" smooth="yes"/>
      <point x="334" y="130"/>
      <point x="356" y="108"/>
    </contour>
    <contour>
      <point x="383" y="534" type="curve" smooth="yes"/>
      <point x="410" y="534"/>
      <point x="432" y="556"/>
      <point x="432" y="583" type="curve" smooth="yes"/>
      <point x="432" y="610"/>
      <point x="410" y="632"/>
      <point x="383" y="632" type="curve" smooth="yes"/>
      <point x="356" y="632"/>
      <point x="334" y="610"/>
      <point x="334" y="583" type="curve" smooth="yes"/>
      <point x="334" y="556"/>
      <point x="356" y="534"/>
    </contour>
    <contour>
      <point x="128" y="340" type="line"/>
      <point x="637" y="340" type="line"/>
      <point x="637" y="400" type="line"/>
      <point x="128" y="400" type="line"/>
    </contour>
  </outline>
</glyph>
<glyph name="thorn" format="1">
  <advance width="662"/>
  <unicode hex="00FE"/>
  <outline>
    <contour>
      <point x="145" y="427" type="curve"/>
      <point x="145" y="740" type="line"/>
      <point x="75" y="740" type="line"/>
      <point x="75" y="-258" type="line"/>
      <point x="145" y="-258" type="line"/>
      <point x="145" y="120" type="line"/>
      <point x="179" y="49"/>
      <point x="254" y="-10"/>
      <point x="358" y="-10" type="curve" smooth="yes"/>
      <point x="508" y="-10"/>
      <point x="622" y="108"/>
      <point x="622" y="278" type="curve" smooth="yes"/>
      <point x="622" y="448"/>
      <point x="508" y="556"/>
      <point x="358" y="556" type="curve" smooth="yes"/>
      <point x="254" y="556"/>
      <point x="179" y="498"/>
    </contour>
    <contour>
      <point x="550" y="278" type="curve" smooth="yes"/>
      <point x="550" y="140"/>
      <point x="455" y="50"/>
      <point x="347" y="50" type="curve" smooth="yes"/>
      <point x="240" y="50"/>
      <point x="145" y="135"/>
      <point x="145" y="273" type="curve" smooth="yes"/>
      <point x="145" y="411"/>
      <point x="240" y="496"/>
      <point x="347" y="496" type="curve" smooth="yes"/>
      <point x="455" y="496"/>
      <point x="550" y="416"/>
    </contour>
  </outline>
</glyph>
<glyph name="Aogonek" format="1">
  <advance width="685"/>
  <unicode hex="0104"/>
  <outline>
    <contour>
      <point x="157" y="161" type="line"/>
      <point x="530" y="161" type="line"/>
      <point x="511" y="217" type="line"/>
      <point x="175" y="217" type="line"/>
    </contour>
    <contour>
      <point x="53" y="0" type="line"/>
      <point x="123" y="0" type="line"/>
      <point x="352" y="628" type="line"/>
      <point x="334" y="628" type="line"/>
      <point x="571" y="-24" type="line"/>
      <point x="584" y="2" type="line"/>
      <point x="507" y="0"/>
      <point x="459" y="-39"/>
      <point x="459" y="-98" type="curve" smooth="yes"/>
      <point x="459" y="-158"/>
      <point x="509" y="-199"/>
      <point x="585" y="-199" type="curve" smooth="yes"/>
      <point x="662" y="-199" type="line"/>
      <point x="662" y="-144" type="line"/>
      <point x="587" y="-144" type="line" smooth="yes"/>
      <point x="552" y="-144"/>
      <point x="531" y="-128"/>
      <point x="531" y="-98" type="curve" smooth="yes"/>
      <point x="531" y="-68"/>
      <point x="552" y="-53"/>
      <point x="587" y="-53" type="curve" smooth="yes"/>
      <point x="632" y="-53" type="line"/>
      <point x="632" y="2" type="line"/>
      <point x="379" y="690" type="line"/>
      <point x="307" y="690" type="line"/>
    </contour>
  </outline>
</glyph>
<glyph name="dcroat" format="1">
  <advance width="662"/>
  <unicode hex="0111"/>
  <outline>
    <contour>
      <point x="430" y="590" type="line"/>
      <point x="649" y="590" type="line"/>
      <point x="649" y="643" type="line"/>
      <point x="430" y="643" type="line"/>
    </contour>
    <component base="d"/>
  </outline>
</glyph>
<glyph name="dotlessi" format="1">
  <advance width="220"/>
  <unicode hex="0131"/>
  <outline>
    <contour>
      <point x="110" y="546" type="move" name="top"/>
    </contour>
    <contour>
      <point x="198" y="10" type="move" name="ogonek"/>
    </contour>
    <contour>
      <point x="75" y="0" type="line"/>
      <point x="145" y="0" type="line"/>
      <point x="145" y="546" type="line"/>
      <point x="75" y="546" type="line"/>
    </contour>
  </outline>
</glyph>
<glyph name="lslash" format="1">
  <advance width="220"/>
  <unicode hex="0142"/>
  <outline>
    <contour>
      <point x="0" y="275" type="line"/>
      <point x="220" y="371" type="line"/>
      <point x="220" y="431" type="line"/>
      <point x="0" y="335" type="line"/>
    </contour>
    <contour>
      <point x="75" y="0" type="line"/>
      <point x="145" y="0" type="line"/>
      <point x="145" y="740" type="line"/>
      <point x="75" y="740" type="line"/>
    </contour>
  </outline>
</glyph>
<glyph name="oe" format="1">
  <advance width="1079"/>
  <unicode hex="0153"/>
  <outline>
    <contour>
      <point x="513" y="273" type="curve" smooth="yes"/>
      <point x="513" y="126"/>
      <point x="410" y="46"/>
      <point x="303" y="46" type="curve" smooth="yes"/>
      <point x="195" y="46"/>
      <point x="111" y="126"/>
      <point x="111" y="273" type="curve" smooth="yes"/>
      <point x="111" y="421"/>
      <point x="202" y="500"/>
      <point x="309" y="500" type="curve" smooth="yes"/>
      <point x="417" y="500"/>
      <point x="513" y="421"/>
    </contour>
    <contour>
      <point x="40" y="273" type="curve" smooth="yes"/>
      <point x="40" y="103"/>
      <point x="149" y="-10"/>
      <point x="303" y="-10" type="curve" smooth="yes"/>
      <point x="407" y="-10"/>
      <point x="498" y="40"/>
      <point x="547" y="125" type="curve"/>
      <point x="591" y="40"/>
      <point x="673" y="-10"/>
      <point x="777" y="-10" type="curve" smooth="yes"/>
      <point x="912" y="-10"/>
      <point x="989" y="67"/>
      <point x="1021" y="151" type="curve"/>
      <point x="946" y="151" type="line"/>
      <point x="924" y="92"/>
      <point x="865" y="46"/>
      <point x="777" y="46" type="curve" smooth="yes"/>
      <point x="669" y="46"/>
      <point x="586" y="123"/>
      <point x="586" y="259" type="curve" smooth="yes"/>
      <point x="586" y="285" type="line" smooth="yes"/>
      <point x="586" y="422"/>
      <point x="669" y="500"/>
      <point x="777" y="500" type="curve" smooth="yes"/>
      <point x="884" y="500"/>
      <point x="968" y="426"/>
      <point x="968" y="303" type="curve"/>
      <point x="554" y="303" type="line"/>
      <point x="554" y="248" type="line"/>
      <point x="1036" y="248" type="line"/>
      <point x="1039" y="267"/>
      <point x="1040" y="285"/>
      <point x="1040" y="302" type="curve" smooth="yes"/>
      <point x="1040" y="443"/>
      <point x="941" y="556"/>
      <point x="786" y="556" type="curve" smooth="yes"/>
      <point x="677" y="556"/>
      <point x="593" y="507"/>
      <point x="549" y="424" type="curve"/>
      <point x="502" y="507"/>
      <point x="415" y="556"/>
      <point x="313" y="556" type="curve" smooth="yes"/>
      <point x="159" y="556"/>
      <point x="40" y="444"/>
    </contour>
  </outline>
</glyph>
<glyph name="Uogonek" format="1">
  <advance width="658"/>
  <unicode hex="0172"/>
  <outline>
    <contour>
      <point x="75" y="232" type="line"/>
      <point x="75" y="84"/>
      <point x="167" y="9"/>
      <point x="288" y="-5" type="curve"/>
      <point x="282" y="-17"/>
      <point x="279" y="-31"/>
      <point x="279" y="-46" type="curve" smooth="yes"/>
      <point x="279" y="-106"/>
      <point x="329" y="-147"/>
      <point x="405" y="-147" type="curve" smooth="yes"/>
      <point x="482" y="-147" type="line"/>
      <point x="482" y="-92" type="line"/>
      <point x="407" y="-92" type="line" smooth="yes"/>
      <point x="372" y="-92"/>
      <point x="351" y="-76"/>
      <point x="351" y="-46" type="curve" smooth="yes"/>
      <point x="351" y="-20"/>
      <point x="368" y="-10"/>
      <point x="422" y="5" type="curve" smooth="yes"/>
      <point x="494" y="25"/>
      <point x="584" y="84"/>
      <point x="584" y="232" type="curve" smooth="yes"/>
      <point x="584" y="690" type="line"/>
      <point x="514" y="690" type="line"/>
      <point x="514" y="232" type="line" smooth="yes"/>
      <point x="514" y="104"/>
      <point x="439" y="51"/>
      <point x="330" y="51" type="curve" smooth="yes"/>
      <point x="221" y="51"/>
      <point x="145" y="104"/>
      <point x="145" y="232" type="curve" smooth="yes"/>
      <point x="145" y="690" type="line"/>
      <point x="75" y="690" type="line"/>
    </contour>
  </outline>
</glyph>
<glyph name="circumflex" format="1">
  <advance width="288"/>
  <unicode hex="02C6"/>
  <outline>
    <contour>
      <point x="144" y="546" type="move" name="_top"/>
    </contour>
    <contour>
      <point x="278" y="664" type="line"/>
      <point x="144" y="746" type="line"/>
      <point x="10" y="664" type="line"/>
      <point x="10" y="598" type="line"/>
      <point x="144" y="683" type="line"/>
      <point x="278" y="598" type="line"/>
    </contour>
  </outline>
</glyph>
<glyph name="caron" format="1">
  <advance width="288"/>
  <unicode hex="02C7"/>
  <outline>
    <contour>
      <point x="144" y="546" type="move" name="_top"/>
    </contour>
    <contour>
      <point x="144" y="661" type="line"/>
      <point x="10" y="746" type="line"/>
      <point x="10" y="680" type="line"/>
      <point x="144" y="598" type="line"/>
      <point x="278" y="680" type="line"/>
      <point x="278" y="746" type="line"/>
    </contour>
  </outline>
</glyph>
<glyph name="breve" format="1">
  <advance width="290"/>
  <unicode hex="02D8"/>
  <outline>
    <contour>
      <point x="145" y="546" type="move" name="_top"/>
    </contour>
    <contour>
      <point x="280" y="732" type="curve" smooth="yes"/>
      <point x="280" y="748" type="line"/>
      <point x="230" y="748" type="line"/>
      <point x="230" y="700"/>
      <point x="210" y="672"/>
      <point x="145" y="672" type="curve" smooth="yes"/>
      <point x="80" y="672"/>
      <point x="60" y="700"/>
      <point x="60" y="748" type="curve"/>
      <point x="10" y="748" type="line"/>
      <point x="10" y="733" type="line" smooth="yes"/>
      <point x="10" y="669"/>
      <point x="55" y="612"/>
      <point x="145" y="612" type="curve" smooth="yes"/>
      <point x="235" y="612"/>
      <point x="280" y="668"/>
    </contour>
  </outline>
</glyph>
<glyph name="ogonek" format="1">
  <advance width="243"/>
  <unicode hex="02DB"/>
  <outline>
    <contour>
      <point x="183" y="0" type="move" name="_ogonek"/>
    </contour>
    <contour>
      <point x="10" y="-98" type="curve" smooth="yes"/>
      <point x="10" y="-158"/>
      <point x="60" y="-199"/>
      <point x="136" y="-199" type="curve" smooth="yes"/>
      <point x="213" y="-199" type="line"/>
      <point x="213" y="-144" type="line"/>
      <point x="138" y="-144" type="line" smooth="yes"/>
      <point x="103" y="-144"/>
      <point x="82" y="-128"/>
      <point x="82" y="-98" type="curve" smooth="yes"/>
      <point x="82" y="-68"/>
      <point x="103" y="-53"/>
      <point x="138" y="-53" type="curve" smooth="yes"/>
      <point x="183" y="-53" type="line"/>
      <point x="183" y="2" type="line"/>
      <point x="140" y="2" type="line"/>
      <point x="60" y="2"/>
      <point x="10" y="-38"/>
    </contour>
  </outline>
</glyph>
<glyph name="tilde" format="1">
  <advance width="314"/>
  <unicode hex="02DC"/>
  <outline>
    <contour>
      <point x="148" y="546" type="move" name="_top"/>
    </contour>
    <contour>
      <point x="10" y="606" type="curve"/>
      <point x="60" y="606" type="line"/>
      <point x="63" y="634"/>
      <point x="81" y="647"/>
      <point x="102" y="647" type="curve" smooth="yes"/>
      <point x="142" y="647"/>
      <point x="157" y="603"/>
      <point x="207" y="603" type="curve" smooth="yes"/>
      <point x="257" y="603"/>
      <point x="297" y="637"/>
      <point x="304" y="696" type="curve"/>
      <point x="254" y="696" type="line"/>
      <point x="251" y="668"/>
      <point x="233" y="655"/>
      <point x="212" y="655" type="curve" smooth="yes"/>
      <point x="172" y="655"/>
      <point x="157" y="699"/>
      <point x="107" y="699" type="curve" smooth="yes"/>
      <point x="57" y="699"/>
      <point x="17" y="665"/>
    </contour>
  </outline>
</glyph>
<glyph name="hungarumlaut" format="1">
  <advance width="304"/>
  <unicode hex="02DD"/>
  <outline>
    <contour>
      <point x="112" y="546" type="move" name="_top"/>
    </contour>
    <contour>
      <point x="224" y="740" type="line"/>
      <point x="149" y="601" type="line"/>
      <point x="199" y="601" type="line"/>
      <point x="294" y="740" type="line"/>
    </contour>
    <contour>
      <point x="75" y="740" type="line"/>
      <point x="10" y="601" type="line"/>
      <point x="60" y="601" type="line"/>
      <point x="145" y="740" type="line"/>
    </contour>
  </outline>
</glyph>
<glyph name="pi" format="1">
  <advance width="706"/>
  <unicode hex="03C0"/>
  <outline>
    <contour>
      <point x="40" y="489" type="line"/>
      <point x="121" y="489" type="line"/>
      <point x="121" y="0" type="line"/>
      <point x="190" y="0" type="line"/>
      <point x="190" y="489" type="line"/>
      <point x="506" y="489" type="line"/>
      <point x="506" y="0" type="line"/>
      <point x="575" y="0" type="line"/>
      <point x="575" y="489" type="line"/>
      <point x="656" y="489" type="line"/>
      <point x="656" y="546" type="line"/>
      <point x="40" y="546" type="line"/>
    </contour>
  </outline>
</glyph>
<glyph name="dvVisarga" format="1">
  <advance width="148"/>
  <unicode hex="0903"/>
  <outline>
    <contour>
      <point x="74" y="455" type="curve" smooth="yes"/>
      <point x="101" y="455"/>
      <point x="123" y="477"/>
      <point x="123" y="504" type="curve" smooth="yes"/>
      <point x="123" y="531"/>
      <point x="101" y="553"/>
      <point x="74" y="553" type="curve" smooth="yes"/>
      <point x="47" y="553"/>
      <point x="25" y="531"/>
      <point x="25" y="504" type="curve" smooth="yes"/>
      <point x="25" y="477"/>
      <point x="47" y="455"/>
    </contour>
    <contour>
      <point x="74" y="150" type="curve" smooth="yes"/>
      <point x="101" y="150"/>
      <point x="123" y="172"/>
      <point x="123" y="199" type="curve" smooth="yes"/>
      <point x="123" y="226"/>
      <point x="101" y="248"/>
      <point x="74" y="248" type="curve" smooth="yes"/>
      <point x="47" y="248"/>
      <point x="25" y="226"/>
      <point x="25" y="199" type="curve" smooth="yes"/>
      <point x="25" y="172"/>
      <point x="47" y="150"/>
    </contour>
  </outline>
</glyph>
<glyph name="dvEcandra" format="1">
  <advance width="615"/>
  <unicode hex="090D"/>
  <outline>
    <contour>
      <point x="162" y="1000" type="curve"/>
      <point x="102" y="1000" type="line"/>
      <point x="102" y="902"/>
      <point x="161" y="822"/>
      <point x="302" y="822" type="curve" smooth="yes"/>
      <point x="443" y="822"/>
      <point x="502" y="902"/>
      <point x="502" y="1000" type="curve"/>
      <point x="442" y="1000" type="line"/>
      <point x="442" y="934"/>
      <point x="407" y="877"/>
      <point x="302" y="877" type="curve" smooth="yes"/>
      <point x="202" y="877"/>
      <point x="162" y="934"/>
    </contour>
    <component base="dvE" xOffset="-37"/>
  </outline>
</glyph>
<glyph name="dvKA" format="1">
  <advance width="1018"/>
  <unicode hex="0915"/>
  <outline>
    <contour>
      <point x="552" y="0" type="move" name="blwm.virama"/>
    </contour>
    <contour>
      <point x="552" y="740" type="move" name="abvm.e"/>
    </contour>
    <contour>
      <point x="552" y="0" type="move" name="blwm.u"/>
    </contour>
    <contour>
      <point x="313" y="109" type="curve" smooth="yes"/>
      <point x="468" y="109"/>
      <point x="528" y="225"/>
      <point x="518" y="336" type="curve"/>
      <point x="487" y="339" type="line"/>
      <point x="487" y="236"/>
      <point x="431" y="169"/>
      <point x="323" y="169" type="curve" smooth="yes"/>
      <point x="216" y="169"/>
      <point x="153" y="230"/>
      <point x="153" y="339" type="curve"/>
      <point x="153" y="447"/>
      <point x="213" y="510"/>
      <point x="321" y="510" type="curve" smooth="yes"/>
      <point x="426" y="510"/>
      <point x="487" y="447"/>
      <point x="487" y="339" type="curve"/>
      <point x="518" y="342" type="line"/>
      <point x="528" y="455"/>
      <point x="466" y="570"/>
      <point x="313" y="570" type="curve" smooth="yes"/>
      <point x="178" y="570"/>
      <point x="88" y="476"/>
      <point x="88" y="339" type="curve"/>
      <point x="88" y="202"/>
      <point x="180" y="109"/>
    </contour>
    <contour>
      <point x="666" y="114" type="line"/>
      <point x="827" y="100"/>
      <point x="942" y="189"/>
      <point x="942" y="339" type="curve" smooth="yes"/>
      <point x="942" y="475"/>
      <point x="856" y="571"/>
      <point x="719" y="571" type="curve" smooth="yes"/>
      <point x="568" y="571"/>
      <point x="511" y="450"/>
      <point x="524" y="325" type="curve"/>
      <point x="552" y="319" type="line"/>
      <point x="552" y="438"/>
      <point x="603" y="511"/>
      <point x="709" y="511" type="curve" smooth="yes"/>
      <point x="818" y="511"/>
      <point x="877" y="446"/>
      <point x="877" y="339" type="curve" smooth="yes"/>
      <point x="877" y="218"/>
      <point x="786" y="164"/>
      <point x="666" y="174" type="curve"/>
    </contour>
    <contour>
      <point x="1058" y="740" type="line"/>
      <point x="-40" y="740" type="line"/>
      <point x="-40" y="680" type="line"/>
      <point x="487" y="680" type="line"/>
      <point x="487" y="0" type="line"/>
      <point x="552" y="0" type="line"/>
      <point x="552" y="340"/>
      <point x="552" y="680"/>
      <point x="552" y="680" type="curve"/>
      <point x="1058" y="680" type="line"/>
    </contour>
  </outline>
</glyph>
<glyph name="dvNGA" format="1">
  <advance width="645"/>
  <unicode hex="0919"/>
  <outline>
    <contour>
      <point x="360" y="-25" type="move" name="blwm.virama"/>
    </contour>
    <contour>
      <point x="469" y="740" type="move" name="abvm.e"/>
    </contour>
    <contour>
      <point x="359" y="-108" type="move" name="blwm.u"/>
    </contour>
    <contour>
      <point x="685" y="680" type="line"/>
      <point x="685" y="740" type="line"/>
      <point x="-40" y="740" type="line"/>
      <point x="-40" y="680" type="line"/>
    </contour>
    <contour>
      <point x="404" y="512" type="line"/>
      <point x="469" y="512" type="line"/>
      <point x="469" y="718" type="line"/>
      <point x="404" y="718" type="line"/>
    </contour>
    <contour>
      <point x="82" y="202" type="line"/>
      <point x="84" y="66"/>
      <point x="179" y="-10"/>
      <point x="324" y="-10" type="curve" smooth="yes"/>
      <point x="451" y="-10"/>
      <point x="529" y="63"/>
      <point x="529" y="156" type="curve" smooth="yes"/>
      <point x="529" y="298"/>
      <point x="413" y="316"/>
      <point x="301" y="316" type="curve" smooth="yes"/>
      <point x="222" y="316"/>
      <point x="162" y="329"/>
      <point x="162" y="410" type="curve" smooth="yes"/>
      <point x="162" y="488"/>
      <point x="230" y="501"/>
      <point x="305" y="501" type="curve" smooth="yes"/>
      <point x="469" y="501" type="line"/>
      <point x="469" y="531" type="line"/>
      <point x="469" y="561" type="line"/>
      <point x="304" y="561" type="line" smooth="yes"/>
      <point x="200" y="561"/>
      <point x="97" y="531"/>
      <point x="97" y="410" type="curve" smooth="yes"/>
      <point x="97" y="289"/>
      <point x="190" y="258"/>
      <point x="315" y="258" type="curve" smooth="yes"/>
      <point x="388" y="258"/>
      <point x="464" y="252"/>
      <point x="464" y="162" type="curve" smooth="yes"/>
      <point x="464" y="84"/>
      <point x="407" y="50"/>
      <point x="321" y="50" type="curve"/>
      <point x="203" y="50"/>
      <point x="152" y="110"/>
      <point x="146" y="202" type="curve"/>
    </contour>
    <contour>
      <point x="566" y="335" type="curve" smooth="yes"/>
      <point x="593" y="335"/>
      <point x="615" y="357"/>
      <point x="615" y="384" type="curve" smooth="yes"/>
      <point x="615" y="411"/>
      <point x="593" y="433"/>
      <point x="566" y="433" type="curve" smooth="yes"/>
      <point x="539" y="433"/>
      <point x="517" y="411"/>
      <point x="517" y="384" type="curve" smooth="yes"/>
      <point x="517" y="357"/>
      <point x="539" y="335"/>
    </contour>
  </outline>
</glyph>
<glyph name="dvJA" format="1">
  <advance width="819"/>
  <unicode hex="091C"/>
  <outline>
    <contour>
      <point x="139" y="398" type="curve" smooth="yes"/>
      <point x="139" y="518" type="line"/>
      <point x="74" y="518" type="line"/>
      <point x="74" y="376" type="line" smooth="yes"/>
      <point x="74" y="231"/>
      <point x="96" y="106"/>
      <point x="263" y="106" type="curve" smooth="yes"/>
      <point x="430" y="106"/>
      <point x="452" y="231"/>
      <point x="452" y="376" type="curve" smooth="yes"/>
      <point x="452" y="518" type="line"/>
      <point x="387" y="518" type="line"/>
      <point x="387" y="398" type="line" smooth="yes"/>
      <point x="387" y="265"/>
      <point x="387" y="166"/>
      <point x="263" y="166" type="curve" smooth="yes"/>
      <point x="139" y="166"/>
      <point x="139" y="265"/>
    </contour>
    <contour>
      <point x="654" y="460" type="line"/>
      <point x="654" y="0" type="line"/>
      <point x="719" y="0" type="line"/>
      <point x="719" y="680" type="line"/>
      <point x="859" y="680" type="line"/>
      <point x="859" y="740" type="line"/>
      <point x="-40" y="740" type="line"/>
      <point x="-40" y="680" type="line"/>
      <point x="654" y="680" type="line"/>
      <point x="654" y="518" type="line"/>
      <point x="392" y="518" type="line"/>
      <point x="392" y="460" type="line"/>
    </contour>
  </outline>
</glyph>
<glyph name="dvJHA" format="1">
  <advance width="819"/>
  <unicode hex="091D"/>
  <outline>
    <contour>
      <point x="859" y="680" type="line"/>
      <point x="859" y="740" type="line"/>
      <point x="-40" y="740" type="line"/>
      <point x="-40" y="680" type="line"/>
    </contour>
    <contour>
      <point x="654" y="0" type="line"/>
      <point x="719" y="0" type="line"/>
      <point x="719" y="705" type="line"/>
      <point x="654" y="705" type="line"/>
    </contour>
    <contour>
      <point x="418" y="522" type="line"/>
      <point x="483" y="522" type="line"/>
      <point x="483" y="718" type="line"/>
      <point x="418" y="718" type="line"/>
    </contour>
    <contour>
      <point x="705" y="290" type="line"/>
      <point x="705" y="343" type="line"/>
      <point x="297" y="343" type="line"/>
      <point x="230" y="343"/>
      <point x="176" y="354"/>
      <point x="176" y="430" type="curve" smooth="yes"/>
      <point x="176" y="509"/>
      <point x="244" y="511"/>
      <point x="319" y="511" type="curve" smooth="yes"/>
      <point x="483" y="511" type="line"/>
      <point x="483" y="541" type="line"/>
      <point x="483" y="571" type="line"/>
      <point x="318" y="571" type="line" smooth="yes"/>
      <point x="214" y="571"/>
      <point x="111" y="554"/>
      <point x="111" y="430" type="curve" smooth="yes"/>
      <point x="111" y="304"/>
      <point x="206" y="288"/>
      <point x="325" y="288" type="curve" smooth="yes"/>
      <point x="396" y="288"/>
      <point x="457" y="284"/>
      <point x="457" y="198" type="curve" smooth="yes"/>
      <point x="457" y="130"/>
      <point x="414" y="93"/>
      <point x="328" y="93" type="curve" smooth="yes"/>
      <point x="236" y="93"/>
      <point x="175" y="148"/>
      <point x="170" y="231" type="curve"/>
      <point x="105" y="231" type="line"/>
      <point x="105" y="-30" type="line"/>
      <point x="170" y="-30" type="line"/>
      <point x="170" y="114" type="line"/>
      <point x="198" y="69"/>
      <point x="260" y="34"/>
      <point x="336" y="34" type="curve" smooth="yes"/>
      <point x="463" y="34"/>
      <point x="522" y="110"/>
      <point x="522" y="192" type="curve" smooth="yes"/>
      <point x="522" y="238"/>
      <point x="495" y="276"/>
      <point x="466" y="290" type="curve"/>
    </contour>
  </outline>
</glyph>
<glyph name="dvTTA" format="1">
  <advance width="663"/>
  <unicode hex="091F"/>
  <outline>
    <contour>
      <point x="387" y="8" type="move" name="blwm.virama"/>
    </contour>
    <contour>
      <point x="444" y="740" type="move" name="abvm.e"/>
    </contour>
    <contour>
      <point x="407" y="-69" type="move" name="blwm.u"/>
    </contour>
    <contour>
      <point x="444" y="506" type="line"/>
      <point x="444" y="680" type="line"/>
      <point x="703" y="680" type="line"/>
      <point x="703" y="740" type="line"/>
      <point x="-40" y="740" type="line"/>
      <point x="-40" y="680" type="line"/>
      <point x="379" y="680" type="line"/>
      <point x="379" y="566" type="line"/>
      <point x="206" y="565"/>
      <point x="78" y="478"/>
      <point x="78" y="305" type="curve" smooth="yes"/>
      <point x="78" y="151"/>
      <point x="190" y="48"/>
      <point x="344" y="48" type="curve" smooth="yes"/>
      <point x="501" y="48"/>
      <point x="606" y="150"/>
      <point x="606" y="307" type="curve"/>
      <point x="541" y="307" type="line"/>
      <point x="541" y="184"/>
      <point x="467" y="108"/>
      <point x="344" y="108" type="curve" smooth="yes"/>
      <point x="224" y="108"/>
      <point x="143" y="185"/>
      <point x="143" y="305" type="curve" smooth="yes"/>
      <point x="143" y="444"/>
      <point x="240" y="505"/>
      <point x="379" y="506" type="curve" smooth="yes"/>
    </contour>
  </outline>
</glyph>
<glyph name="dvNNA" format="1">
  <advance width="848"/>
  <unicode hex="0923"/>
  <outline>
    <contour>
      <point x="492" y="419" type="curve" smooth="yes"/>
      <point x="492" y="705" type="line"/>
      <point x="427" y="705" type="line"/>
      <point x="427" y="418" type="line" smooth="yes"/>
      <point x="427" y="309"/>
      <point x="406" y="237"/>
      <point x="297" y="237" type="curve"/>
      <point x="188" y="237"/>
      <point x="167" y="309"/>
      <point x="167" y="418" type="curve" smooth="yes"/>
      <point x="167" y="705" type="line"/>
      <point x="102" y="705" type="line"/>
      <point x="102" y="419" type="line" smooth="yes"/>
      <point x="102" y="273"/>
      <point x="151" y="177"/>
      <point x="297" y="177" type="curve"/>
      <point x="443" y="177"/>
      <point x="492" y="273"/>
    </contour>
    <contour>
      <point x="888" y="680" type="line"/>
      <point x="888" y="740" type="line"/>
      <point x="-40" y="740" type="line"/>
      <point x="-40" y="680" type="line"/>
      <point x="683" y="680" type="line"/>
      <point x="683" y="0" type="line"/>
      <point x="748" y="0" type="line"/>
      <point x="748" y="680" type="line"/>
    </contour>
  </outline>
</glyph>
<glyph name="dvTA" format="1">
  <advance width="666"/>
  <unicode hex="0924"/>
  <outline>
    <contour>
      <point x="338" y="56" type="line"/>
      <point x="188" y="56"/>
      <point x="130" y="124"/>
      <point x="130" y="251" type="curve" smooth="yes"/>
      <point x="130" y="389"/>
      <point x="225" y="439"/>
      <point x="350" y="439" type="curve" smooth="yes"/>
      <point x="412" y="439" type="line"/>
      <point x="501" y="439" type="line"/>
      <point x="501" y="0" type="line"/>
      <point x="566" y="0" type="line"/>
      <point x="566" y="680" type="line"/>
      <point x="706" y="680" type="line"/>
      <point x="706" y="740" type="line"/>
      <point x="-40" y="740" type="line"/>
      <point x="-40" y="680" type="line"/>
      <point x="501" y="680" type="line"/>
      <point x="501" y="499" type="line"/>
      <point x="404" y="499" type="line"/>
      <point x="350" y="499" type="line" smooth="yes"/>
      <point x="183" y="499"/>
      <point x="64" y="427"/>
      <point x="64" y="251" type="curve" smooth="yes"/>
      <point x="64" y="106"/>
      <point x="140" y="-2"/>
      <point x="330" y="-2" type="curve" smooth="yes"/>
      <point x="338" y="-2" type="line"/>
    </contour>
  </outline>
</glyph>
<glyph name="dvDHA" format="1">
  <advance width="714"/>
  <unicode hex="0927"/>
  <outline>
    <contour>
      <point x="549" y="680" type="line"/>
      <point x="754" y="680" type="line"/>
      <point x="754" y="740" type="line"/>
      <point x="549" y="740" type="line"/>
    </contour>
    <contour>
      <point x="614" y="0" type="line"/>
      <point x="614" y="690" type="line"/>
      <point x="549" y="698" type="line"/>
      <point x="549" y="0" type="line"/>
    </contour>
    <contour>
      <point x="371" y="568" type="curve"/>
      <point x="433" y="568" type="line"/>
      <point x="440" y="674"/>
      <point x="379" y="750"/>
      <point x="271" y="750" type="curve" smooth="yes"/>
      <point x="171" y="750"/>
      <point x="105" y="681"/>
      <point x="105" y="586" type="curve" smooth="yes"/>
      <point x="105" y="510"/>
      <point x="153" y="457"/>
      <point x="211" y="433" type="curve"/>
      <point x="211" y="427" type="line"/>
      <point x="147" y="404"/>
      <point x="107" y="357"/>
      <point x="107" y="287" type="curve" smooth="yes"/>
      <point x="107" y="170"/>
      <point x="216" y="110"/>
      <point x="330" y="110" type="curve" smooth="yes"/>
      <point x="467" y="110"/>
      <point x="578" y="182"/>
      <point x="576" y="305" type="curve"/>
      <point x="549" y="350" type="line"/>
      <point x="549" y="238"/>
      <point x="451" y="170"/>
      <point x="340" y="170" type="curve" smooth="yes"/>
      <point x="259" y="170"/>
      <point x="172" y="202"/>
      <point x="172" y="286" type="curve" smooth="yes"/>
      <point x="172" y="371"/>
      <point x="250" y="398"/>
      <point x="335" y="398" type="curve" smooth="yes"/>
      <point x="383" y="398" type="line"/>
      <point x="383" y="457" type="line"/>
      <point x="335" y="457" type="line" smooth="yes"/>
      <point x="239" y="457"/>
      <point x="170" y="497"/>
      <point x="170" y="588" type="curve" smooth="yes"/>
      <point x="170" y="651"/>
      <point x="209" y="690"/>
      <point x="272" y="690" type="curve" smooth="yes"/>
      <point x="345" y="690"/>
      <point x="373" y="639"/>
    </contour>
  </outline>
</glyph>
<glyph name="dvNA" format="1">
  <advance width="775"/>
  <unicode hex="0928"/>
  <outline>
    <contour>
      <point x="610" y="0" type="line"/>
      <point x="675" y="0" type="line"/>
      <point x="675" y="680" type="line"/>
      <point x="815" y="680" type="line"/>
      <point x="815" y="740" type="line"/>
      <point x="-40" y="740" type="line"/>
      <point x="-40" y="680" type="line"/>
      <point x="610" y="680" type="line"/>
      <point x="610" y="487" type="line"/>
      <point x="290" y="487" type="line" smooth="yes"/>
      <point x="139" y="487"/>
      <point x="67" y="413"/>
      <point x="67" y="298" type="curve" smooth="yes"/>
      <point x="67" y="182"/>
      <point x="156" y="110"/>
      <point x="268" y="110" type="curve" smooth="yes"/>
      <point x="384" y="110"/>
      <point x="456" y="190"/>
      <point x="456" y="293" type="curve" smooth="yes"/>
      <point x="456" y="352"/>
      <point x="432" y="404"/>
      <point x="385" y="429" type="curve"/>
      <point x="610" y="429" type="line"/>
    </contour>
    <contour>
      <point x="263" y="428" type="curve" smooth="yes"/>
      <point x="343" y="428"/>
      <point x="392" y="375"/>
      <point x="392" y="298" type="curve" smooth="yes"/>
      <point x="392" y="212"/>
      <point x="331" y="169"/>
      <point x="268" y="169" type="curve" smooth="yes"/>
      <point x="198" y="169"/>
      <point x="132" y="207"/>
      <point x="132" y="298" type="curve" smooth="yes"/>
      <point x="132" y="382"/>
      <point x="193" y="428"/>
    </contour>
  </outline>
</glyph>
<glyph name="dvPA" format="1">
  <advance width="643"/>
  <unicode hex="092A"/>
  <outline>
    <contour>
      <point x="478" y="0" type="line"/>
      <point x="543" y="0" type="line"/>
      <point x="543" y="680" type="line"/>
      <point x="683" y="680" type="line"/>
      <point x="683" y="740" type="line"/>
      <point x="-40" y="740" type="line"/>
      <point x="-40" y="680" type="line"/>
      <point x="93" y="680" type="line"/>
      <point x="93" y="456" type="line" smooth="yes"/>
      <point x="93" y="315"/>
      <point x="163" y="209"/>
      <point x="304" y="209" type="curve" smooth="yes"/>
      <point x="451" y="209"/>
      <point x="491" y="311"/>
      <point x="498" y="355" type="curve"/>
      <point x="478" y="444" type="line"/>
      <point x="478" y="345"/>
      <point x="412" y="269"/>
      <point x="318" y="269" type="curve" smooth="yes"/>
      <point x="203" y="269"/>
      <point x="158" y="345"/>
      <point x="158" y="460" type="curve" smooth="yes"/>
      <point x="158" y="680" type="line"/>
      <point x="478" y="680" type="line"/>
    </contour>
  </outline>
</glyph>
<glyph name="dvYA" format="1">
  <advance width="718"/>
  <unicode hex="092F"/>
  <outline>
    <contour>
      <point x="272" y="690" type="line"/>
      <point x="272" y="645" type="line"/>
      <point x="272" y="501"/>
      <point x="271" y="450"/>
      <point x="71" y="450" type="curve"/>
      <point x="62" y="245"/>
      <point x="158" y="114"/>
      <point x="343" y="114" type="curve" smooth="yes"/>
      <point x="505" y="114"/>
      <point x="589" y="236"/>
      <point x="569" y="358" type="curve"/>
      <point x="553" y="409" type="line"/>
      <point x="553" y="272"/>
      <point x="475" y="174"/>
      <point x="350" y="174" type="curve" smooth="yes"/>
      <point x="212" y="174"/>
      <point x="138" y="266"/>
      <point x="140" y="395" type="curve"/>
      <point x="316" y="404"/>
      <point x="337" y="490"/>
      <point x="337" y="644" type="curve"/>
      <point x="337" y="698" type="line"/>
    </contour>
    <contour>
      <point x="553" y="680" type="line"/>
      <point x="553" y="0" type="line"/>
      <point x="618" y="0" type="line"/>
      <point x="618" y="680" type="line"/>
      <point x="758" y="680" type="line"/>
      <point x="758" y="740" type="line"/>
      <point x="-40" y="740" type="line"/>
      <point x="-40" y="680" type="line"/>
    </contour>
  </outline>
</glyph>
<glyph name="dvLA" format="1">
  <advance width="906"/>
  <unicode hex="0932"/>
  <outline>
    <contour>
      <point x="636" y="-18" type="move" name="blwm.virama"/>
    </contour>
    <contour>
      <point x="674" y="740" type="move" name="abvm.e"/>
    </contour>
    <contour>
      <point x="674" y="-85" type="move" name="blwm.u"/>
    </contour>
    <contour>
      <point x="490" y="231" type="line"/>
      <point x="486" y="357"/>
      <point x="519" y="451"/>
      <point x="630" y="451" type="curve" smooth="yes"/>
      <point x="731" y="451"/>
      <point x="763" y="374"/>
      <point x="763" y="272" type="curve" smooth="yes"/>
      <point x="763" y="153"/>
      <point x="701" y="72"/>
      <point x="564" y="81" type="curve"/>
      <point x="564" y="21" type="line"/>
      <point x="725" y="5"/>
      <point x="828" y="108"/>
      <point x="828" y="271" type="curve" smooth="yes"/>
      <point x="828" y="396"/>
      <point x="784" y="488"/>
      <point x="674" y="507" type="curve"/>
      <point x="674" y="680" type="line"/>
      <point x="946" y="680" type="line"/>
      <point x="946" y="740" type="line"/>
      <point x="-40" y="740" type="line"/>
      <point x="-40" y="680" type="line"/>
      <point x="609" y="680" type="line"/>
      <point x="609" y="510" type="line"/>
      <point x="533" y="503"/>
      <point x="478" y="459"/>
      <point x="458" y="385" type="curve"/>
      <point x="436" y="466"/>
      <point x="371" y="511"/>
      <point x="285" y="511" type="curve" smooth="yes"/>
      <point x="143" y="511"/>
      <point x="87" y="414"/>
      <point x="87" y="271" type="curve" smooth="yes"/>
      <point x="87" y="108"/>
      <point x="190" y="5"/>
      <point x="351" y="21" type="curve"/>
      <point x="351" y="81" type="line"/>
      <point x="214" y="72"/>
      <point x="152" y="153"/>
      <point x="152" y="272" type="curve" smooth="yes"/>
      <point x="152" y="374"/>
      <point x="184" y="451"/>
      <point x="285" y="451" type="curve" smooth="yes"/>
      <point x="396" y="451"/>
      <point x="430" y="357"/>
      <point x="426" y="231" type="curve"/>
    </contour>
  </outline>
</glyph>
<glyph name="dvVA" format="1">
  <advance width="649"/>
  <unicode hex="0935"/>
  <outline>
    <contour>
      <point x="293" y="103" type="curve" smooth="yes"/>
      <point x="450" y="103"/>
      <point x="525" y="216"/>
      <point x="515" y="333" type="curve"/>
      <point x="484" y="339" type="line"/>
      <point x="484" y="231"/>
      <point x="411" y="163"/>
      <point x="303" y="163" type="curve" smooth="yes"/>
      <point x="194" y="163"/>
      <point x="124" y="230"/>
      <point x="124" y="339" type="curve"/>
      <point x="124" y="448"/>
      <point x="194" y="515"/>
      <point x="303" y="515" type="curve" smooth="yes"/>
      <point x="411" y="515"/>
      <point x="484" y="447"/>
      <point x="484" y="339" type="curve"/>
      <point x="515" y="345" type="line"/>
      <point x="525" y="462"/>
      <point x="450" y="575"/>
      <point x="293" y="575" type="curve" smooth="yes"/>
      <point x="156" y="575"/>
      <point x="59" y="477"/>
      <point x="59" y="339" type="curve"/>
      <point x="59" y="201"/>
      <point x="156" y="103"/>
    </contour>
    <contour>
      <point x="689" y="740" type="line"/>
      <point x="-40" y="740" type="line"/>
      <point x="-40" y="680" type="line"/>
      <point x="484" y="680" type="line"/>
      <point x="484" y="0" type="line"/>
      <point x="549" y="0" type="line"/>
      <point x="549" y="340"/>
      <point x="549" y="680"/>
      <point x="549" y="680" type="curve"/>
      <point x="689" y="680" type="line"/>
    </contour>
  </outline>
</glyph>
<glyph name="dvSSA" format="1">
  <advance width="643"/>
  <unicode hex="0937"/>
  <outline>
    <contour>
      <point x="478" y="0" type="line"/>
      <point x="543" y="0" type="line"/>
      <point x="543" y="680" type="line"/>
      <point x="683" y="680" type="line"/>
      <point x="683" y="740" type="line"/>
      <point x="-40" y="740" type="line"/>
      <point x="-40" y="680" type="line"/>
      <point x="93" y="680" type="line"/>
      <point x="93" y="456" type="line" smooth="yes"/>
      <point x="93" y="315"/>
      <point x="163" y="209"/>
      <point x="304" y="209" type="curve" smooth="yes"/>
      <point x="451" y="209"/>
      <point x="491" y="311"/>
      <point x="498" y="355" type="curve"/>
      <point x="478" y="443" type="line"/>
      <point x="478" y="346"/>
      <point x="412" y="269"/>
      <point x="318" y="269" type="curve" smooth="yes"/>
      <point x="203" y="269"/>
      <point x="158" y="345"/>
      <point x="158" y="460" type="curve" smooth="yes"/>
      <point x="158" y="680" type="line"/>
      <point x="478" y="680" type="line"/>
    </contour>
    <contour>
      <point x="476" y="345" type="line"/>
      <point x="513" y="381" type="line"/>
      <point x="136" y="692" type="line"/>
      <point x="116" y="643" type="line"/>
    </contour>
  </outline>
</glyph>
<glyph name="dvHA" format="1">
  <advance width="608"/>
  <unicode hex="0939"/>
  <outline>
    <contour>
      <point x="372" y="-127" type="move" name="blwm.virama"/>
    </contour>
    <contour>
      <point x="483" y="740" type="move" name="abvm.e"/>
    </contour>
    <contour>
      <point x="370" y="-214" type="move" name="blwm.u"/>
    </contour>
    <contour>
      <point x="327" y="310" type="line"/>
      <point x="263" y="308"/>
      <point x="175" y="338"/>
      <point x="175" y="410" type="curve" smooth="yes"/>
      <point x="175" y="472"/>
      <point x="232" y="500"/>
      <point x="307" y="500" type="curve" smooth="yes"/>
      <point x="483" y="500" type="line"/>
      <point x="483" y="530" type="line"/>
      <point x="483" y="560" type="line"/>
      <point x="306" y="560" type="line" smooth="yes"/>
      <point x="188" y="560"/>
      <point x="109" y="510"/>
      <point x="109" y="412" type="curve" smooth="yes"/>
      <point x="109" y="323"/>
      <point x="192" y="260"/>
      <point x="297" y="272" type="curve"/>
    </contour>
    <contour>
      <point x="320" y="270" type="curve" smooth="yes"/>
      <point x="413" y="270"/>
      <point x="457" y="229"/>
      <point x="472" y="173" type="curve"/>
      <point x="537" y="173" type="line"/>
      <point x="528" y="256"/>
      <point x="445" y="330"/>
      <point x="320" y="330" type="curve" smooth="yes"/>
      <point x="187" y="330"/>
      <point x="95" y="244"/>
      <point x="95" y="119" type="curve"/>
      <point x="95" y="-6"/>
      <point x="187" y="-92"/>
      <point x="320" y="-92" type="curve" smooth="yes"/>
      <point x="445" y="-92"/>
      <point x="528" y="-18"/>
      <point x="537" y="65" type="curve"/>
      <point x="472" y="65" type="line"/>
      <point x="457" y="9"/>
      <point x="413" y="-32"/>
      <point x="320" y="-32" type="curve" smooth="yes"/>
      <point x="221" y="-32"/>
      <point x="160" y="33"/>
      <point x="160" y="120" type="curve"/>
      <point x="160" y="207"/>
      <point x="221" y="270"/>
    </contour>
    <contour>
      <point x="418" y="509" type="line"/>
      <point x="483" y="509" type="line"/>
      <point x="483" y="680" type="line"/>
      <point x="648" y="680" type="line"/>
      <point x="648" y="740" type="line"/>
      <point x="-40" y="740" type="line"/>
      <point x="-40" y="680" type="line"/>
      <point x="418" y="680" type="line"/>
    </contour>
  </outline>
</glyph>
<glyph name="dvmAA" format="1">
  <advance width="265"/>
  <unicode hex="093E"/>
  <outline>
    <contour>
      <point x="305" y="680" type="line"/>
      <point x="305" y="740" type="line"/>
      <point x="-40" y="740" type="line"/>
      <point x="-40" y="680" type="line"/>
      <point x="100" y="680" type="line"/>
      <point x="100" y="0" type="line"/>
      <point x="165" y="0" type="line"/>
      <point x="165" y="680" type="line"/>
    </contour>
  </outline>
</glyph>
<glyph name="dvmI" format="1">
  <advance width="265"/>
  <unicode hex="093F"/>
  <outline>
    <contour>
      <point x="789" y="750" type="curve" smooth="yes"/>
      <point x="789" y="703" type="line"/>
      <point x="854" y="703" type="line"/>
      <point x="854" y="760" type="line" smooth="yes"/>
      <point x="854" y="965"/>
      <point x="651" y="988"/>
      <point x="478" y="988" type="curve"/>
      <point x="305" y="988"/>
      <point x="102" y="965"/>
      <point x="102" y="760" type="curve" smooth="yes"/>
      <point x="102" y="703" type="line"/>
      <point x="167" y="703" type="line"/>
      <point x="167" y="750" type="line" smooth="yes"/>
      <point x="167" y="922"/>
      <point x="331" y="928"/>
      <point x="478" y="928" type="curve"/>
      <point x="625" y="928"/>
      <point x="789" y="922"/>
    </contour>
    <contour>
      <point x="305" y="680" type="line"/>
      <point x="305" y="740" type="line"/>
      <point x="-40" y="740" type="line"/>
      <point x="-40" y="680" type="line"/>
      <point x="100" y="680" type="line"/>
      <point x="100" y="0" type="line"/>
      <point x="165" y="0" type="line"/>
      <point x="165" y="680" type="line"/>
    </contour>
  </outline>
</glyph>
<glyph name="dvmU" format="1">
  <advance width="0"/>
  <unicode hex="0941"/>
  <outline>
    <contour>
      <point x="-100" y="0" type="move" name="_blwm.u"/>
    </contour>
    <contour>
      <point x="-159" y="52" type="line"/>
      <point x="-36" y="52"/>
      <point x="17" y="-13"/>
      <point x="17" y="-101" type="curve" smooth="yes"/>
      <point x="17" y="-202"/>
      <point x="-48" y="-264"/>
      <point x="-171" y="-264" type="curve" smooth="yes"/>
      <point x="-333" y="-264"/>
      <point x="-399" y="-169"/>
      <point x="-399" y="-60" type="curve"/>
      <point x="-334" y="-60" type="line"/>
      <point x="-334" y="-166"/>
      <point x="-262" y="-205"/>
      <point x="-172" y="-205" type="curve" smooth="yes"/>
      <point x="-94" y="-205"/>
      <point x="-48" y="-172"/>
      <point x="-48" y="-103" type="curve" smooth="yes"/>
      <point x="-48" y="-35"/>
      <point x="-89" y="-8"/>
      <point x="-159" y="-5" type="curve"/>
    </contour>
  </outline>
</glyph>
<glyph name="dvmAI" format="1">
  <advance width="0"/>
  <unicode hex="0948"/>
  <outline>
    <contour>
      <point x="-100" y="740" type="move" name="_abvm.e"/>
    </contour>
    <contour>
      <point x="-135" y="728" type="line"/>
      <point x="-238" y="873"/>
      <point x="-297" y="873"/>
      <point x="-427" y="873" type="curve" smooth="yes"/>
      <point x="-454" y="873" type="line"/>
      <point x="-454" y="813" type="line"/>
      <point x="-422" y="813" type="line" smooth="yes"/>
      <point x="-306" y="813"/>
      <point x="-244" y="813"/>
      <point x="-175" y="728" type="curve"/>
    </contour>
    <contour>
      <point x="-102" y="728" type="line"/>
      <point x="-226" y="968"/>
      <point x="-282" y="990"/>
      <point x="-434" y="990" type="curve" smooth="yes"/>
      <point x="-461" y="990" type="line"/>
      <point x="-461" y="930" type="line"/>
      <point x="-429" y="930" type="line" smooth="yes"/>
      <point x="-283" y="930"/>
      <point x="-244" y="895"/>
      <point x="-145" y="728" type="curve"/>
    </contour>
  </outline>
</glyph>
<glyph name="dvVirama" format="1">
  <advance width="0"/>
  <unicode hex="094D"/>
  <outline>
    <contour>
      <point x="-100" y="0" type="move" name="_blwm.virama"/>
    </contour>
    <contour>
      <point x="12" y="-214" type="line"/>
      <point x="-98" y="-62" type="line"/>
      <point x="-163" y="-62" type="line"/>
      <point x="-64" y="-214" type="line"/>
    </contour>
  </outline>
</glyph>
<glyph name="doubledanda" format="1">
  <advance width="431"/>
  <unicode hex="0965"/>
  <outline>
    <contour>
      <point x="150" y="741" type="line"/>
      <point x="150" y="0" type="line"/>
      <point x="215" y="0" type="line"/>
      <point x="215" y="741" type="line"/>
    </contour>
    <contour>
      <point x="346" y="741" type="line"/>
      <point x="346" y="0" type="line"/>
      <point x="411" y="0" type="line"/>
      <point x="411" y="741" type="line"/>
    </contour>
  </outline>
</glyph>
<glyph name="emdash" format="1">
  <advance width="919"/>
  <unicode hex="2014"/>
  <outline>
    <contour>
      <point x="100" y="340" type="line"/>
      <point x="819" y="340" type="line"/>
      <point x="819" y="400" type="line"/>
      <point x="100" y="400" type="line"/>
    </contour>
  </outline>
</glyph>
<glyph name="dagger" format="1">
  <advance width="529"/>
  <unicode hex="2020"/>
  <outline>
    <contour>
      <point x="291" y="538" type="line"/>
      <point x="299" y="779" type="line"/>
      <point x="230" y="779" type="line"/>
      <point x="238" y="538" type="line"/>
      <point x="49" y="546" type="line"/>
      <point x="49" y="489" type="line"/>
      <point x="238" y="497" type="line"/>
      <point x="230" y="-258" type="line"/>
      <point x="299" y="-258" type="line"/>
      <point x="291" y="497" type="line"/>
      <point x="480" y="489" type="line"/>
      <point x="480" y="546" type="line"/>
    </contour>
  </outline>
</glyph>
<glyph name="daggerdbl" format="1">
  <advance width="531"/>
  <unicode hex="2021"/>
  <outline>
    <contour>
      <point x="481" y="546" type="line"/>
      <point x="292" y="538" type="line"/>
      <point x="300" y="779" type="line"/>
      <point x="231" y="779" type="line"/>
      <point x="239" y="538" type="line"/>
      <point x="50" y="546" type="line"/>
      <point x="50" y="489" type="line"/>
      <point x="239" y="497" type="line"/>
      <point x="239" y="24" type="line"/>
      <point x="50" y="32" type="line"/>
      <point x="50" y="-25" type="line"/>
      <point x="239" y="-17" type="line"/>
      <point x="231" y="-258" type="line"/>
      <point x="300" y="-258" type="line"/>
      <point x="292" y="-17" type="line"/>
      <point x="481" y="-25" type="line"/>
      <point x="481" y="32" type="line"/>
      <point x="292" y="24" type="line"/>
      <point x="292" y="497" type="line"/>
      <point x="481" y="489" type="line"/>
    </contour>
  </outline>
</glyph>
<glyph name="bullet" format="1">
  <advance width="431"/>
  <unicode hex="2022"/>
  <outline>
    <contour>
      <point x="215" y="218" type="curve" smooth="yes"/>
      <point x="280" y="218"/>
      <point x="331" y="269"/>
      <point x="331" y="333" type="curve" smooth="yes"/>
      <point x="331" y="398"/>
      <point x="280" y="449"/>
      <point x="215" y="449" type="curve" smooth="yes"/>
      <point x="151" y="449"/>
      <point x="100" y="398"/>
      <point x="100" y="333" type="curve" smooth="yes"/>
      <point x="100" y="269"/>
      <point x="151" y="218"/>
    </contour>
  </outline>
</glyph>
<glyph name="perthousand" format="1">
  <advance width="970"/>
  <unicode hex="2030"/>
  <outline>
    <contour>
      <point x="50" y="558" type="curve" smooth="yes"/>
      <point x="50" y="471"/>
      <point x="110" y="415"/>
      <point x="190" y="415" type="curve" smooth="yes"/>
      <point x="270" y="415"/>
      <point x="330" y="471"/>
      <point x="330" y="558" type="curve" smooth="yes"/>
      <point x="330" y="644"/>
      <point x="270" y="700"/>
      <point x="190" y="700" type="curve" smooth="yes"/>
      <point x="110" y="700"/>
      <point x="50" y="644"/>
    </contour>
    <contour>
      <point x="190" y="655" type="curve" smooth="yes"/>
      <point x="235" y="655"/>
      <point x="264" y="627"/>
      <point x="264" y="558" type="curve" smooth="yes"/>
      <point x="264" y="489"/>
      <point x="235" y="460"/>
      <point x="190" y="460" type="curve" smooth="yes"/>
      <point x="145" y="460"/>
      <point x="115" y="489"/>
      <point x="115" y="558" type="curve" smooth="yes"/>
      <point x="115" y="627"/>
      <point x="145" y="655"/>
    </contour>
    <contour>
      <point x="84" y="0" type="line"/>
      <point x="155" y="0" type="line"/>
      <point x="565" y="690" type="line"/>
      <point x="494" y="690" type="line"/>
    </contour>
    <contour>
      <point x="320" y="133" type="curve" smooth="yes"/>
      <point x="320" y="46"/>
      <point x="380" y="-10"/>
      <point x="460" y="-10" type="curve" smooth="yes"/>
      <point x="540" y="-10"/>
      <point x="600" y="46"/>
      <point x="600" y="133" type="curve" smooth="yes"/>
      <point x="600" y="219"/>
      <point x="540" y="275"/>
      <point x="460" y="275" type="curve" smooth="yes"/>
      <point x="380" y="275"/>
      <point x="320" y="219"/>
    </contour>
    <contour>
      <point x="460" y="230" type="curve" smooth="yes"/>
      <point x="505" y="230"/>
      <point x="534" y="202"/>
      <point x="534" y="133" type="curve" smooth="yes"/>
      <point x="534" y="64"/>
      <point x="505" y="35"/>
      <point x="460" y="35" type="curve" smooth="yes"/>
      <point x="415" y="35"/>
      <point x="385" y="64"/>
      <point x="385" y="133" type="curve" smooth="yes"/>
      <point x="385" y="202"/>
      <point x="415" y="230"/>
    </contour>
    <contour>
      <point x="640" y="133" type="curve" smooth="yes"/>
      <point x="640" y="46"/>
      <point x="700" y="-10"/>
      <point x="780" y="-10" type="curve" smooth="yes"/>
      <point x="860" y="-10"/>
      <point x="920" y="46"/>
      <point x="920" y="133" type="curve" smooth="yes"/>
      <point x="920" y="219"/>
      <point x="860" y="275"/>
      <point x="780" y="275" type="curve" smooth="yes"/>
      <point x="700" y="275"/>
      <point x="640" y="219"/>
    </contour>
    <contour>
      <point x="780" y="230" type="curve" smooth="yes"/>
      <point x="825" y="230"/>
      <point x="854" y="202"/>
      <point x="854" y="133" type="curve" smooth="yes"/>
      <point x="854" y="64"/>
      <point x="825" y="35"/>
      <point x="780" y="35" type="curve" smooth="yes"/>
      <point x="735" y="35"/>
      <point x="705" y="64"/>
      <point x="705" y="133" type="curve" smooth="yes"/>
      <point x="705" y="202"/>
      <point x="735" y="230"/>
    </contour>
  </outline>
</glyph>
<glyph name="guilsinglleft" format="1">
  <advance width="265"/>
  <unicode hex="2039"/>
  <outline>
    <contour>
      <point x="113" y="295" type="line"/>
      <point x="215" y="470" type="line"/>
      <point x="144" y="470" type="line"/>
      <point x="45" y="295" type="line"/>
      <point x="144" y="120" type="line"/>
      <point x="215" y="120" type="line"/>
    </contour>
  </outline>
</glyph>
<glyph name="guilsinglright" format="1">
  <advance width="265"/>
  <unicode hex="203A"/>
  <outline>
    <contour>
      <point x="121" y="120" type="line"/>
      <point x="220" y="295" type="line"/>
      <point x="121" y="470" type="line"/>
      <point x="50" y="470" type="line"/>
      <point x="152" y="295" type="line"/>
      <point x="50" y="120" type="line"/>
    </contour>
  </outline>
</glyph>
<glyph name="fraction" format="1">
  <advance width="600"/>
  <unicode hex="2044"/>
  <outline>
    <contour>
      <point x="84" y="0" type="line"/>
      <point x="155" y="0" type="line"/>
      <point x="565" y="690" type="line"/>
      <point x="494" y="690" type="line"/>
    </contour>
  </outline>
</glyph>
<glyph name="rupee" format="1">
  <advance width="1099"/>
  <unicode hex="20A8"/>
  <outline>
    <contour>
      <point x="451" y="489" type="curve" smooth="yes"/>
      <point x="451" y="403"/>
      <point x="404" y="346"/>
      <point x="286" y="346" type="curve" smooth="yes"/>
      <point x="145" y="346" type="line"/>
      <point x="145" y="633" type="line"/>
      <point x="286" y="633" type="line" smooth="yes"/>
      <point x="404" y="633"/>
      <point x="451" y="578"/>
    </contour>
    <contour>
      <point x="75" y="690" type="line"/>
      <point x="75" y="0" type="line"/>
      <point x="145" y="0" type="line"/>
      <point x="145" y="289" type="line"/>
      <point x="286" y="289" type="line" smooth="yes"/>
      <point x="448" y="289"/>
      <point x="522" y="375"/>
      <point x="522" y="489" type="curve" smooth="yes"/>
      <point x="522" y="604"/>
      <point x="446" y="690"/>
      <point x="286" y="690" type="curve" smooth="yes"/>
    </contour>
    <contour>
      <point x="236" y="315" type="line"/>
      <point x="440" y="0" type="line"/>
      <point x="531" y="0" type="line"/>
      <point x="320" y="315" type="line"/>
    </contour>
    <contour>
      <point x="594" y="395" type="curve" smooth="yes"/>
      <point x="594" y="192"/>
      <point x="921" y="299"/>
      <point x="921" y="140" type="curve" smooth="yes"/>
      <point x="921" y="84"/>
      <point x="878" y="46"/>
      <point x="792" y="46" type="curve" smooth="yes"/>
      <point x="716" y="46"/>
      <point x="669" y="94"/>
      <point x="666" y="161" type="curve"/>
      <point x="594" y="161" type="line"/>
      <point x="600" y="56"/>
      <point x="672" y="-10"/>
      <point x="792" y="-10" type="curve" smooth="yes"/>
      <point x="912" y="-10"/>
      <point x="992" y="52"/>
      <point x="992" y="140" type="curve" smooth="yes"/>
      <point x="992" y="357"/>
      <point x="665" y="241"/>
      <point x="665" y="403" type="curve" smooth="yes"/>
      <point x="665" y="455"/>
      <point x="708" y="500"/>
      <point x="788" y="500" type="curve" smooth="yes"/>
      <point x="865" y="500"/>
      <point x="907" y="449"/>
      <point x="910" y="385" type="curve"/>
      <point x="982" y="385" type="line"/>
      <point x="976" y="490"/>
      <point x="910" y="556"/>
      <point x="794" y="556" type="curve" smooth="yes"/>
      <point x="674" y="556"/>
      <point x="594" y="483"/>
    </contour>
  </outline>
</glyph>
<glyph name="Omega.math" format="1">
  <advance width="782"/>
  <unicode hex="2126"/>
  <outline>
    <contour>
      <point x="40" y="345" type="curve" smooth="yes"/>
      <point x="40" y="214"/>
      <point x="111" y="94"/>
      <point x="228" y="48" type="curve"/>
      <point x="240" y="57" type="line"/>
      <point x="55" y="57" type="line"/>
      <point x="55" y="0" type="line"/>
      <point x="331" y="0" type="line"/>
      <point x="331" y="59" type="line"/>
      <point x="203" y="84"/>
      <point x="111" y="191"/>
      <point x="111" y="345" type="curve" smooth="yes"/>
      <point x="111" y="520"/>
      <point x="230" y="636"/>
      <point x="391" y="636" type="curve" smooth="yes"/>
      <point x="549" y="636"/>
      <point x="671" y="523"/>
      <point x="671" y="345" type="curve" smooth="yes"/>
      <point x="671" y="191"/>
      <point x="579" y="84"/>
      <point x="451" y="59" type="curve"/>
      <point x="451" y="0" type="line"/>
      <point x="727" y="0" type="line"/>
      <point x="727" y="57" type="line"/>
      <point x="542" y="57" type="line"/>
      <point x="554" y="48" type="line"/>
      <point x="671" y="94"/>
      <point x="742" y="214"/>
      <point x="742" y="345" type="curve" smooth="yes"/>
      <point x="742" y="552"/>
      <point x="586" y="697"/>
      <point x="391" y="697" type="curve" smooth="yes"/>
      <point x="196" y="697"/>
      <point x="40" y="552"/>
    </contour>
  </outline>
</glyph>
<glyph name="Delta.math" format="1">
  <advance width="666"/>
  <unicode hex="2206"/>
  <outline>
    <contour>
      <point x="20" y="55" type="line"/>
      <point x="20" y="0" type="line"/>
      <point x="646" y="0" type="line"/>
      <point x="646" y="55" type="line"/>
      <point x="362" y="690" type="line"/>
      <point x="303" y="690" type="line"/>
    </contour>
    <contour>
      <point x="575" y="55" type="line"/>
      <point x="91" y="55" type="line"/>
      <point x="332" y="610" type="line"/>
    </contour>
  </outline>
</glyph>
<glyph name="product" format="1">
  <advance width="736"/>
  <unicode hex="220F"/>
  <outline>
    <contour>
      <point x="40" y="633" type="line"/>
      <point x="121" y="633" type="line"/>
      <point x="121" y="0" type="line"/>
      <point x="190" y="0" type="line"/>
      <point x="190" y="633" type="line"/>
      <point x="546" y="633" type="line"/>
      <point x="546" y="0" type="line"/>
      <point x="615" y="0" type="line"/>
      <point x="615" y="633" type="line"/>
      <point x="696" y="633" type="line"/>
      <point x="696" y="690" type="line"/>
      <point x="40" y="690" type="line"/>
    </contour>
  </outline>
</glyph>
<glyph name="summation" format="1">
  <advance width="436"/>
  <unicode hex="2211"/>
  <outline>
    <contour>
      <point x="40" y="610" type="line"/>
      <point x="309" y="310" type="line"/>
      <point x="40" y="20" type="line"/>
      <point x="40" y="-60" type="line"/>
      <point x="396" y="-60" type="line"/>
      <point x="396" y="-5" type="line"/>
      <point x="87" y="-5" type="line"/>
      <point x="96" y="-10" type="line"/>
      <point x="368" y="284" type="line"/>
      <point x="368" y="339" type="line"/>
      <point x="96" y="640" type="line"/>
      <point x="87" y="635" type="line"/>
      <point x="396" y="635" type="line"/>
      <point x="396" y="690" type="line"/>
      <point x="40" y="690" type="line"/>
    </contour>
  </outline>
</glyph>
<glyph name="minus" format="1">
  <advance width="589"/>
  <unicode hex="2212"/>
  <outline>
    <contour>
      <point x="100" y="340" type="line"/>
      <point x="489" y="340" type="line"/>
      <point x="489" y="400" type="line"/>
      <point x="100" y="400" type="line"/>
    </contour>
  </outline>
</glyph>
<glyph name="infinity" format="1">
  <advance width="643"/>
  <unicode hex="221E"/>
  <outline>
    <contour>
      <point x="25" y="347" type="curve" smooth="yes"/>
      <point x="25" y="257"/>
      <point x="92" y="206"/>
      <point x="165" y="205" type="curve" smooth="yes"/>
      <point x="256" y="204"/>
      <point x="323" y="279"/>
      <point x="341" y="356" type="curve"/>
      <point x="311" y="394" type="line"/>
      <point x="293" y="322"/>
      <point x="233" y="262"/>
      <point x="172" y="262" type="curve" smooth="yes"/>
      <point x="123" y="262"/>
      <point x="88" y="292"/>
      <point x="88" y="347" type="curve" smooth="yes"/>
      <point x="88" y="402"/>
      <point x="123" y="433"/>
      <point x="172" y="433" type="curve" smooth="yes"/>
      <point x="276" y="433"/>
      <point x="334" y="205"/>
      <point x="471" y="205" type="curve" smooth="yes"/>
      <point x="551" y="205"/>
      <point x="618" y="258"/>
      <point x="618" y="348" type="curve" smooth="yes"/>
      <point x="618" y="438"/>
      <point x="548" y="489"/>
      <point x="478" y="490" type="curve" smooth="yes"/>
      <point x="387" y="491"/>
      <point x="320" y="416"/>
      <point x="302" y="339" type="curve"/>
      <point x="332" y="301" type="line"/>
      <point x="350" y="373"/>
      <point x="410" y="433"/>
      <point x="471" y="433" type="curve" smooth="yes"/>
      <point x="520" y="433"/>
      <point x="555" y="403"/>
      <point x="555" y="348" type="curve" smooth="yes"/>
      <point x="555" y="293"/>
      <point x="520" y="262"/>
      <point x="471" y="262" type="curve" smooth="yes"/>
      <point x="367" y="262"/>
      <point x="309" y="490"/>
      <point x="172" y="490" type="curve" smooth="yes"/>
      <point x="92" y="490"/>
      <point x="25" y="437"/>
    </contour>
  </outline>
</glyph>
<glyph name="notequal" format="1">
  <advance width="770"/>
  <unicode hex="2260"/>
  <outline>
    <contour>
      <point x="130" y="137" type="line"/>
      <point x="204" y="137" type="line"/>
      <point x="640" y="603" type="line"/>
      <point x="565" y="603" type="line"/>
    </contour>
    <component base="equal"/>
  </outline>
</glyph>
<glyph name="lessequal" format="1">
  <advance width="550"/>
  <unicode hex="2264"/>
  <outline>
    <contour>
      <point x="178" y="424" type="line"/>
      <point x="178" y="393" type="line"/>
      <point x="450" y="602" type="line"/>
      <point x="352" y="602" type="line"/>
      <point x="100" y="408" type="line"/>
      <point x="352" y="214" type="line"/>
      <point x="450" y="214" type="line"/>
    </contour>
    <contour>
      <point x="100" y="120" type="line"/>
      <point x="446" y="120" type="line"/>
      <point x="446" y="171" type="line"/>
      <point x="100" y="171" type="line"/>
    </contour>
  </outline>
</glyph>
<glyph name="lozenge" format="1">
  <advance width="551"/>
  <unicode hex="25CA"/>
  <outline>
    <contour>
      <point x="40" y="349" type="line"/>
      <point x="275" y="113" type="line"/>
      <point x="511" y="349" type="line"/>
      <point x="276" y="585" type="line"/>
    </contour>
    <contour>
      <point x="431" y="349" type="line"/>
      <point x="275" y="193" type="line"/>
      <point x="120" y="349" type="line"/>
      <point x="276" y="505" type="line"/>
    </contour>
  </outline>
</glyph>
<glyph name="commaaccent" format="1">
  <advance width="111"/>
  <unicode hex="F6C3"/>
  <outline>
    <contour>
      <point x="55" y="0" type="move" name="_bottom"/>
    </contour>
    <contour>
      <point x="-41" y="-50" type="move" name="_topright"/>
    </contour>
    <contour>
      <point x="11" y="-50" type="line"/>
      <point x="11" y="-126" type="line"/>
      <point x="56" y="-126" type="line"/>
      <point x="56" y="-151" type="line" smooth="yes"/>
      <point x="56" y="-183"/>
      <point x="43" y="-200"/>
      <point x="10" y="-200" type="curve"/>
      <point x="10" y="-238" type="line"/>
      <point x="68" y="-238"/>
      <point x="101" y="-212"/>
      <point x="101" y="-135" type="curve" smooth="yes"/>
      <point x="101" y="-111"/>
      <point x="98" y="-83"/>
      <point x="92" y="-50" type="curve"/>
    </contour>
  </outline>
</glyph>
<glyph name=".notdef" format="1">
  <advance width="750"/>
  <outline>
    <contour>
      <point x="180" y="0" type="line"/>
      <point x="570" y="0" type="line"/>
      <point x="570" y="701" type="line"/>
      <point x="180" y="701" type="line"/>
    </contour>
    <contour>
      <point x="234" y="651" type="line"/>
      <point x="516" y="651" type="line"/>
      <point x="516" y="50" type="line"/>
      <point x="234" y="50" type="line"/>
    </contour>
  </outline>
</glyph>
<glyph name="dvAbbreviationsign" format="1">
  <advance width="486"/>
  <outline>
    <contour>
      <point x="253" y="409" type="curve" smooth="yes"/>
      <point x="160" y="409"/>
      <point x="94" y="343"/>
      <point x="94" y="258" type="curve" smooth="yes"/>
      <point x="94" y="166"/>
      <point x="159" y="97"/>
      <point x="258" y="97" type="curve" smooth="yes"/>
      <point x="349" y="97"/>
      <point x="415" y="162"/>
      <point x="415" y="248" type="curve" smooth="yes"/>
      <point x="415" y="343"/>
      <point x="356" y="409"/>
    </contour>
    <contour>
      <point x="254" y="353" type="curve" smooth="yes"/>
      <point x="321" y="353"/>
      <point x="358" y="311"/>
      <point x="358" y="249" type="curve" smooth="yes"/>
      <point x="358" y="194"/>
      <point x="317" y="153"/>
      <point x="259" y="153" type="curve" smooth="yes"/>
      <point x="195" y="153"/>
      <point x="150" y="194"/>
      <point x="150" y="257" type="curve" smooth="yes"/>
      <point x="150" y="311"/>
      <point x="195" y="353"/>
    </contour>
  </outline>
</glyph>
<glyph name="dvAnusvara.amI" format="1">
  <advance width="0"/>
  <outline>
    <contour>
      <point x="-100" y="740" type="move" name="_abvm.i"/>
    </contour>
    <contour>
      <point x="9" y="815" type="curve" smooth="yes"/>
      <point x="36" y="815"/>
      <point x="58" y="837"/>
      <point x="58" y="864" type="curve" smooth="yes"/>
      <point x="58" y="891"/>
      <point x="36" y="913"/>
      <point x="9" y="913" type="curve" smooth="yes"/>
      <point x="-18" y="913"/>
      <point x="-40" y="891"/>
      <point x="-40" y="864" type="curve" smooth="yes"/>
      <point x="-40" y="837"/>
      <point x="-18" y="815"/>
    </contour>
  </outline>
</glyph>
<glyph name="dvBH_R_YA" format="1">
  <advance width="1217"/>
  <outline>
    <contour>
      <point x="383" y="331" type="line"/>
      <point x="383" y="233"/>
      <point x="362" y="174"/>
      <point x="274" y="174" type="curve" smooth="yes"/>
      <point x="209" y="174"/>
      <point x="162" y="219"/>
      <point x="162" y="283" type="curve" smooth="yes"/>
      <point x="162" y="374"/>
      <point x="227" y="395"/>
      <point x="321" y="395" type="curve" smooth="yes"/>
      <point x="628" y="395" type="line"/>
      <point x="651" y="453" type="line"/>
      <point x="328" y="453" type="line" smooth="yes"/>
      <point x="172" y="453"/>
      <point x="97" y="400"/>
      <point x="97" y="285" type="curve" smooth="yes"/>
      <point x="97" y="185"/>
      <point x="176" y="115"/>
      <point x="275" y="115" type="curve" smooth="yes"/>
      <point x="394" y="115"/>
      <point x="447" y="190"/>
      <point x="447" y="331" type="curve" smooth="yes"/>
      <point x="447" y="541" type="line" smooth="yes"/>
      <point x="447" y="666"/>
      <point x="399" y="745"/>
      <point x="284" y="745" type="curve" smooth="yes"/>
      <point x="168" y="745"/>
      <point x="122" y="665"/>
      <point x="122" y="536" type="curve"/>
      <point x="185" y="536" type="line"/>
      <point x="185" y="627"/>
      <point x="205" y="685"/>
      <point x="283" y="685" type="curve" smooth="yes"/>
      <point x="362" y="685"/>
      <point x="383" y="625"/>
      <point x="383" y="541" type="curve"/>
    </contour>
    <contour>
      <point x="358" y="-10" type="line"/>
      <point x="441" y="-10" type="line"/>
      <point x="645" y="245" type="line"/>
      <point x="645" y="316" type="line"/>
    </contour>
    <contour>
      <point x="771" y="690" type="line"/>
      <point x="771" y="645" type="line"/>
      <point x="771" y="497"/>
      <point x="770" y="453"/>
      <point x="570" y="453" type="curve"/>
      <point x="561" y="248"/>
      <point x="657" y="114"/>
      <point x="842" y="114" type="curve" smooth="yes"/>
      <point x="1004" y="114"/>
      <point x="1088" y="236"/>
      <point x="1068" y="358" type="curve"/>
      <point x="1052" y="409" type="line"/>
      <point x="1052" y="272"/>
      <point x="974" y="174"/>
      <point x="849" y="174" type="curve" smooth="yes"/>
      <point x="711" y="174"/>
      <point x="637" y="266"/>
      <point x="639" y="395" type="curve"/>
      <point x="815" y="404"/>
      <point x="836" y="490"/>
      <point x="836" y="644" type="curve"/>
      <point x="836" y="698" type="line"/>
    </contour>
    <contour>
      <point x="1052" y="680" type="line"/>
      <point x="1052" y="0" type="line"/>
      <point x="1117" y="0" type="line"/>
      <point x="1117" y="680" type="line"/>
      <point x="1257" y="680" type="line"/>
      <point x="1257" y="740" type="line"/>
      <point x="563" y="740" type="line"/>
      <point x="563" y="680" type="line"/>
    </contour>
  </outline>
</glyph>
<glyph name="dvB_BHA" format="1">
  <advance width="1206"/>
  <outline>
    <contour>
      <point x="665" y="680" type="line"/>
      <point x="665" y="740" type="line"/>
      <point x="-40" y="740" type="line"/>
      <point x="-40" y="680" type="line"/>
    </contour>
    <contour>
      <point x="62" y="339" type="curve" smooth="yes"/>
      <point x="62" y="188"/>
      <point x="175" y="94"/>
      <point x="324" y="94" type="curve" smooth="yes"/>
      <point x="473" y="94"/>
      <point x="582" y="188"/>
      <point x="582" y="339" type="curve" smooth="yes"/>
      <point x="582" y="490"/>
      <point x="473" y="584"/>
      <point x="324" y="584" type="curve" smooth="yes"/>
      <point x="175" y="584"/>
      <point x="62" y="490"/>
    </contour>
    <contour>
      <point x="127" y="339" type="curve" smooth="yes"/>
      <point x="127" y="455"/>
      <point x="208" y="524"/>
      <point x="324" y="524" type="curve" smooth="yes"/>
      <point x="440" y="524"/>
      <point x="521" y="455"/>
      <point x="521" y="339" type="curve" smooth="yes"/>
      <point x="521" y="223"/>
      <point x="440" y="154"/>
      <point x="324" y="154" type="curve" smooth="yes"/>
      <point x="208" y="154"/>
      <point x="127" y="223"/>
    </contour>
    <contour>
      <point x="484" y="182" type="line"/>
      <point x="522" y="220" type="line"/>
      <point x="158" y="513" type="line"/>
      <point x="137" y="462" type="line"/>
    </contour>
    <contour>
      <point x="1041" y="0" type="line"/>
      <point x="1106" y="0" type="line"/>
      <point x="1106" y="730" type="line"/>
      <point x="1041" y="730" type="line"/>
    </contour>
    <contour>
      <point x="1246" y="680" type="line"/>
      <point x="1246" y="740" type="line"/>
      <point x="1041" y="740" type="line"/>
      <point x="1041" y="680" type="line"/>
    </contour>
    <contour>
      <point x="606" y="536" type="line"/>
      <point x="606" y="627"/>
      <point x="626" y="685"/>
      <point x="704" y="685" type="curve" smooth="yes"/>
      <point x="783" y="685"/>
      <point x="804" y="625"/>
      <point x="804" y="541" type="curve"/>
      <point x="804" y="326" type="line" smooth="yes"/>
      <point x="804" y="228"/>
      <point x="783" y="169"/>
      <point x="695" y="169" type="curve" smooth="yes"/>
      <point x="630" y="169"/>
      <point x="583" y="214"/>
      <point x="583" y="278" type="curve" smooth="yes"/>
      <point x="583" y="369"/>
      <point x="648" y="390"/>
      <point x="742" y="390" type="curve" smooth="yes"/>
      <point x="1084" y="390" type="line"/>
      <point x="1084" y="448" type="line"/>
      <point x="749" y="448" type="line" smooth="yes"/>
      <point x="593" y="448"/>
      <point x="518" y="395"/>
      <point x="518" y="280" type="curve" smooth="yes"/>
      <point x="518" y="180"/>
      <point x="597" y="110"/>
      <point x="696" y="110" type="curve" smooth="yes"/>
      <point x="815" y="110"/>
      <point x="868" y="185"/>
      <point x="868" y="326" type="curve" smooth="yes"/>
      <point x="868" y="541" type="line"/>
      <point x="868" y="666"/>
      <point x="820" y="745"/>
      <point x="705" y="745" type="curve" smooth="yes"/>
      <point x="589" y="745"/>
      <point x="543" y="665"/>
      <point x="543" y="536" type="curve"/>
    </contour>
  </outline>
</glyph>
<glyph name="dvB_JHA" format="1">
  <advance width="1216"/>
  <outline>
    <contour>
      <point x="582" y="680" type="line"/>
      <point x="582" y="740" type="line"/>
      <point x="-40" y="740" type="line"/>
      <point x="-40" y="680" type="line"/>
    </contour>
    <contour>
      <point x="501" y="213" type="line"/>
      <point x="530" y="257" type="line"/>
      <point x="181" y="539" type="line"/>
      <point x="154" y="493" type="line"/>
    </contour>
    <contour>
      <point x="509" y="399" type="line"/>
      <point x="509" y="283"/>
      <point x="458" y="198"/>
      <point x="342" y="198" type="curve" smooth="yes"/>
      <point x="233" y="198"/>
      <point x="164" y="260"/>
      <point x="164" y="365" type="curve" smooth="yes"/>
      <point x="164" y="476"/>
      <point x="241" y="540"/>
      <point x="359" y="540" type="curve" smooth="yes"/>
      <point x="389" y="540"/>
      <point x="432" y="534"/>
      <point x="461" y="525" type="curve"/>
      <point x="461" y="584" type="line"/>
      <point x="431" y="594"/>
      <point x="383" y="599"/>
      <point x="351" y="599" type="curve" smooth="yes"/>
      <point x="178" y="599"/>
      <point x="99" y="493"/>
      <point x="99" y="365" type="curve" smooth="yes"/>
      <point x="99" y="225"/>
      <point x="198" y="137"/>
      <point x="343" y="137" type="curve" smooth="yes"/>
      <point x="492" y="137"/>
      <point x="571" y="250"/>
      <point x="568" y="402" type="curve"/>
    </contour>
    <contour>
      <point x="1256" y="680" type="line"/>
      <point x="1256" y="740" type="line"/>
      <point x="357" y="740" type="line"/>
      <point x="357" y="680" type="line"/>
    </contour>
    <contour>
      <point x="1051" y="0" type="line"/>
      <point x="1116" y="0" type="line"/>
      <point x="1116" y="705" type="line"/>
      <point x="1051" y="705" type="line"/>
    </contour>
    <contour>
      <point x="815" y="512" type="line"/>
      <point x="880" y="512" type="line"/>
      <point x="880" y="708" type="line"/>
      <point x="815" y="708" type="line"/>
    </contour>
    <contour>
      <point x="522" y="148" type="line"/>
      <point x="522" y="-73" type="line"/>
      <point x="587" y="-73" type="line"/>
      <point x="587" y="54" type="line"/>
      <point x="620" y="15"/>
      <point x="668" y="-9"/>
      <point x="744" y="-9" type="curve" smooth="yes"/>
      <point x="871" y="-9"/>
      <point x="919" y="71"/>
      <point x="919" y="149" type="curve" smooth="yes"/>
      <point x="919" y="195"/>
      <point x="897" y="244"/>
      <point x="861" y="267" type="curve"/>
      <point x="1102" y="267" type="line"/>
      <point x="1102" y="320" type="line"/>
      <point x="694" y="320" type="line" smooth="yes"/>
      <point x="627" y="320"/>
      <point x="573" y="344"/>
      <point x="573" y="420" type="curve" smooth="yes"/>
      <point x="573" y="499"/>
      <point x="641" y="501"/>
      <point x="716" y="501" type="curve" smooth="yes"/>
      <point x="880" y="501" type="line"/>
      <point x="880" y="531" type="line"/>
      <point x="880" y="561" type="line"/>
      <point x="715" y="561" type="line" smooth="yes"/>
      <point x="611" y="561"/>
      <point x="508" y="544"/>
      <point x="508" y="420" type="curve" smooth="yes"/>
      <point x="508" y="294"/>
      <point x="597" y="265"/>
      <point x="716" y="265" type="curve" smooth="yes"/>
      <point x="794" y="265"/>
      <point x="854" y="250"/>
      <point x="854" y="160" type="curve" smooth="yes"/>
      <point x="854" y="97"/>
      <point x="824" y="49"/>
      <point x="738" y="49" type="curve" smooth="yes"/>
      <point x="658" y="49"/>
      <point x="602" y="83"/>
      <point x="589" y="148" type="curve"/>
    </contour>
  </outline>
</glyph>
<glyph name="dvB_SHA" format="1">
  <advance width="1183"/>
  <outline>
    <contour>
      <point x="629" y="680" type="line"/>
      <point x="662" y="740" type="line"/>
      <point x="-40" y="740" type="line"/>
      <point x="-40" y="680" type="line"/>
    </contour>
    <contour>
      <point x="645" y="680" type="line"/>
      <point x="663" y="688"/>
      <point x="685" y="690"/>
      <point x="706" y="690" type="curve" smooth="yes"/>
      <point x="789" y="690"/>
      <point x="841" y="640"/>
      <point x="841" y="552" type="curve" smooth="yes"/>
      <point x="841" y="414"/>
      <point x="741" y="398"/>
      <point x="614" y="398" type="curve" smooth="yes"/>
      <point x="578" y="398"/>
      <point x="560" y="399"/>
      <point x="521" y="400" type="curve"/>
      <point x="521" y="197" type="line" smooth="yes"/>
      <point x="521" y="68"/>
      <point x="590" y="-1"/>
      <point x="707" y="-1" type="curve" smooth="yes"/>
      <point x="853" y="-1"/>
      <point x="890" y="100"/>
      <point x="893" y="220" type="curve"/>
      <point x="827" y="220" type="line"/>
      <point x="825" y="121"/>
      <point x="804" y="59"/>
      <point x="707" y="59" type="curve" smooth="yes"/>
      <point x="627" y="59"/>
      <point x="587" y="105"/>
      <point x="587" y="197" type="curve" smooth="yes"/>
      <point x="587" y="342" type="line"/>
      <point x="609" y="341"/>
      <point x="611" y="340"/>
      <point x="632" y="340" type="curve" smooth="yes"/>
      <point x="782" y="340"/>
      <point x="906" y="378"/>
      <point x="906" y="553" type="curve" smooth="yes"/>
      <point x="906" y="664"/>
      <point x="828" y="750"/>
      <point x="705" y="750" type="curve" smooth="yes"/>
      <point x="633" y="750"/>
      <point x="582" y="724"/>
      <point x="547" y="680" type="curve"/>
    </contour>
    <contour>
      <point x="1223" y="680" type="line"/>
      <point x="1223" y="740" type="line"/>
      <point x="1018" y="740" type="line"/>
      <point x="1018" y="0" type="line"/>
      <point x="1083" y="0" type="line"/>
      <point x="1083" y="680" type="line"/>
    </contour>
    <contour>
      <point x="62" y="339" type="curve" smooth="yes"/>
      <point x="62" y="188"/>
      <point x="175" y="94"/>
      <point x="324" y="94" type="curve" smooth="yes"/>
      <point x="473" y="94"/>
      <point x="584" y="188"/>
      <point x="584" y="339" type="curve" smooth="yes"/>
      <point x="584" y="490"/>
      <point x="473" y="584"/>
      <point x="324" y="584" type="curve" smooth="yes"/>
      <point x="175" y="584"/>
      <point x="62" y="490"/>
    </contour>
    <contour>
      <point x="127" y="339" type="curve" smooth="yes"/>
      <point x="127" y="455"/>
      <point x="208" y="524"/>
      <point x="324" y="524" type="curve" smooth="yes"/>
      <point x="440" y="524"/>
      <point x="521" y="455"/>
      <point x="521" y="339" type="curve" smooth="yes"/>
      <point x="521" y="223"/>
      <point x="440" y="154"/>
      <point x="324" y="154" type="curve" smooth="yes"/>
      <point x="208" y="154"/>
      <point x="127" y="223"/>
    </contour>
    <contour>
      <point x="484" y="182" type="line"/>
      <point x="522" y="220" type="line"/>
      <point x="158" y="513" type="line"/>
      <point x="137" y="462" type="line"/>
    </contour>
  </outline>
</glyph>
<glyph name="dvB_VA" format="1">
  <advance width="1111"/>
  <outline>
    <contour>
      <point x="585" y="680" type="line"/>
      <point x="585" y="740" type="line"/>
      <point x="-40" y="740" type="line"/>
      <point x="-40" y="680" type="line"/>
    </contour>
    <contour>
      <point x="62" y="339" type="curve" smooth="yes"/>
      <point x="62" y="188"/>
      <point x="175" y="94"/>
      <point x="324" y="94" type="curve" smooth="yes"/>
      <point x="473" y="94"/>
      <point x="582" y="188"/>
      <point x="582" y="339" type="curve" smooth="yes"/>
      <point x="582" y="490"/>
      <point x="473" y="584"/>
      <point x="324" y="584" type="curve" smooth="yes"/>
      <point x="175" y="584"/>
      <point x="62" y="490"/>
    </contour>
    <contour>
      <point x="127" y="339" type="curve" smooth="yes"/>
      <point x="127" y="455"/>
      <point x="208" y="524"/>
      <point x="324" y="524" type="curve" smooth="yes"/>
      <point x="440" y="524"/>
      <point x="521" y="455"/>
      <point x="521" y="339" type="curve" smooth="yes"/>
      <point x="521" y="223"/>
      <point x="440" y="154"/>
      <point x="324" y="154" type="curve" smooth="yes"/>
      <point x="208" y="154"/>
      <point x="127" y="223"/>
    </contour>
    <contour>
      <point x="484" y="182" type="line"/>
      <point x="522" y="220" type="line"/>
      <point x="158" y="513" type="line"/>
      <point x="137" y="462" type="line"/>
    </contour>
    <component base="dvVA" xOffset="462"/>
  </outline>
</glyph>
<glyph name="dvC_CA" format="1">
  <advance width="1103"/>
  <outline>
    <contour>
      <point x="647" y="740" type="line"/>
      <point x="-40" y="740" type="line"/>
      <point x="-40" y="680" type="line"/>
      <point x="647" y="680" type="line"/>
    </contour>
    <contour>
      <point x="470" y="531" type="line"/>
      <point x="48" y="531" type="line"/>
      <point x="48" y="474" type="line"/>
      <point x="470" y="474" type="line"/>
    </contour>
    <contour>
      <point x="527" y="324" type="line"/>
      <point x="521" y="235"/>
      <point x="479" y="164"/>
      <point x="371" y="164" type="curve" smooth="yes"/>
      <point x="270" y="164"/>
      <point x="208" y="218"/>
      <point x="208" y="315" type="curve" smooth="yes"/>
      <point x="208" y="416"/>
      <point x="280" y="474"/>
      <point x="388" y="474" type="curve"/>
      <point x="367" y="497" type="line"/>
      <point x="242" y="509"/>
      <point x="144" y="442"/>
      <point x="144" y="315" type="curve" smooth="yes"/>
      <point x="144" y="184"/>
      <point x="241" y="104"/>
      <point x="372" y="104" type="curve" smooth="yes"/>
      <point x="507" y="104"/>
      <point x="570" y="195"/>
      <point x="582" y="310" type="curve"/>
    </contour>
    <contour>
      <point x="794" y="531" type="line"/>
      <point x="432" y="531" type="line"/>
      <point x="432" y="474" type="line"/>
      <point x="794" y="474" type="line"/>
    </contour>
    <contour>
      <point x="938" y="345" type="line"/>
      <point x="938" y="246"/>
      <point x="864" y="164"/>
      <point x="763" y="164" type="curve" smooth="yes"/>
      <point x="663" y="164"/>
      <point x="591" y="218"/>
      <point x="591" y="315" type="curve" smooth="yes"/>
      <point x="591" y="416"/>
      <point x="660" y="474"/>
      <point x="768" y="474" type="curve"/>
      <point x="757" y="503" type="line"/>
      <point x="625" y="513"/>
      <point x="526" y="443"/>
      <point x="526" y="312" type="curve" smooth="yes"/>
      <point x="526" y="188"/>
      <point x="628" y="104"/>
      <point x="753" y="104" type="curve" smooth="yes"/>
      <point x="901" y="104"/>
      <point x="951" y="205"/>
      <point x="959" y="257" type="curve"/>
    </contour>
    <contour>
      <point x="938" y="0" type="line"/>
      <point x="1003" y="0" type="line"/>
      <point x="1003" y="680" type="line"/>
      <point x="1143" y="680" type="line"/>
      <point x="1143" y="740" type="line"/>
      <point x="343" y="740" type="line"/>
      <point x="343" y="680" type="line"/>
      <point x="938" y="680" type="line"/>
    </contour>
  </outline>
</glyph>
<glyph name="dvC_CHA" format="1">
  <advance width="1266"/>
  <outline>
    <contour>
      <point x="915" y="-16" type="move" name="blwm.virama"/>
    </contour>
    <contour>
      <point x="1081" y="740" type="move" name="abvm.e"/>
    </contour>
    <contour>
      <point x="945" y="-88" type="move" name="blwm.u"/>
    </contour>
    <contour>
      <point x="1306" y="680" type="line"/>
      <point x="1306" y="740" type="line"/>
      <point x="409" y="740" type="line"/>
      <point x="409" y="680" type="line"/>
    </contour>
    <contour>
      <point x="1081" y="680" type="line"/>
      <point x="1016" y="680" type="line"/>
      <point x="1016" y="556" type="line"/>
      <point x="1081" y="539" type="line"/>
    </contour>
    <contour>
      <point x="1037" y="514" type="curve" smooth="yes"/>
      <point x="1103" y="514"/>
      <point x="1155" y="472"/>
      <point x="1155" y="354" type="curve" smooth="yes"/>
      <point x="1155" y="171"/>
      <point x="1029" y="92"/>
      <point x="858" y="92" type="curve" smooth="yes"/>
      <point x="729" y="92"/>
      <point x="594" y="126"/>
      <point x="594" y="249" type="curve" smooth="yes"/>
      <point x="594" y="342"/>
      <point x="665" y="386"/>
      <point x="769" y="386" type="curve"/>
      <point x="781" y="386" type="line"/>
      <point x="781" y="446" type="line"/>
      <point x="769" y="446" type="line" smooth="yes"/>
      <point x="639" y="446"/>
      <point x="617" y="497"/>
      <point x="617" y="628" type="curve" smooth="yes"/>
      <point x="617" y="680" type="line"/>
      <point x="552" y="690" type="line"/>
      <point x="552" y="634" type="line" smooth="yes"/>
      <point x="552" y="516"/>
      <point x="567" y="447"/>
      <point x="649" y="422" type="curve"/>
      <point x="649" y="416" type="line"/>
      <point x="578" y="390"/>
      <point x="530" y="334"/>
      <point x="530" y="250" type="curve" smooth="yes"/>
      <point x="530" y="90"/>
      <point x="689" y="32"/>
      <point x="858" y="32" type="curve" smooth="yes"/>
      <point x="1075" y="32"/>
      <point x="1215" y="152"/>
      <point x="1215" y="347" type="curve" smooth="yes"/>
      <point x="1215" y="484"/>
      <point x="1148" y="574"/>
      <point x="1037" y="574" type="curve"/>
      <point x="915" y="571"/>
      <point x="856" y="486"/>
      <point x="858" y="310" type="curve"/>
      <point x="918" y="310" type="line"/>
      <point x="916" y="489"/>
      <point x="972" y="514"/>
    </contour>
    <contour>
      <point x="618" y="740" type="line"/>
      <point x="-40" y="740" type="line"/>
      <point x="-40" y="680" type="line"/>
      <point x="618" y="680" type="line"/>
    </contour>
    <contour>
      <point x="411" y="531" type="line"/>
      <point x="49" y="531" type="line"/>
      <point x="49" y="474" type="line"/>
      <point x="411" y="474" type="line"/>
    </contour>
    <contour>
      <point x="536" y="298" type="line"/>
      <point x="521" y="213"/>
      <point x="473" y="164"/>
      <point x="378" y="164" type="curve" smooth="yes"/>
      <point x="276" y="164"/>
      <point x="208" y="218"/>
      <point x="208" y="315" type="curve" smooth="yes"/>
      <point x="208" y="416"/>
      <point x="277" y="474"/>
      <point x="385" y="474" type="curve"/>
      <point x="364" y="497" type="line"/>
      <point x="236" y="507"/>
      <point x="144" y="443"/>
      <point x="144" y="315" type="curve" smooth="yes"/>
      <point x="144" y="184"/>
      <point x="248" y="104"/>
      <point x="379" y="104" type="curve" smooth="yes"/>
      <point x="500" y="104"/>
      <point x="568" y="168"/>
      <point x="588" y="287" type="curve"/>
    </contour>
  </outline>
</glyph>
<glyph name="dvC_NA" format="1">
  <advance width="1241"/>
  <outline>
    <contour>
      <point x="599" y="740" type="line"/>
      <point x="-39" y="740" type="line"/>
      <point x="-39" y="680" type="line"/>
      <point x="599" y="680" type="line"/>
    </contour>
    <contour>
      <point x="422" y="531" type="line"/>
      <point x="50" y="531" type="line"/>
      <point x="50" y="474" type="line"/>
      <point x="422" y="474" type="line"/>
    </contour>
    <contour>
      <point x="535" y="323" type="line"/>
      <point x="529" y="230"/>
      <point x="485" y="164"/>
      <point x="374" y="164" type="curve" smooth="yes"/>
      <point x="272" y="164"/>
      <point x="209" y="218"/>
      <point x="209" y="315" type="curve" smooth="yes"/>
      <point x="209" y="416"/>
      <point x="278" y="474"/>
      <point x="386" y="474" type="curve"/>
      <point x="365" y="497" type="line"/>
      <point x="237" y="507"/>
      <point x="145" y="443"/>
      <point x="145" y="315" type="curve" smooth="yes"/>
      <point x="145" y="184"/>
      <point x="243" y="104"/>
      <point x="374" y="104" type="curve" smooth="yes"/>
      <point x="513" y="104"/>
      <point x="581" y="189"/>
      <point x="591" y="312" type="curve"/>
    </contour>
    <component base="dvNA" xOffset="466"/>
  </outline>
</glyph>
<glyph name="dvDDH_RA" format="1">
  <advance width="633"/>
  <outline>
    <contour>
      <point x="429" y="-112" type="move" name="blwm.virama"/>
    </contour>
    <contour>
      <point x="470" y="740" type="move" name="abvm.e"/>
    </contour>
    <contour>
      <point x="445" y="-195" type="move" name="blwm.u"/>
    </contour>
    <component base="dvRashtrasign" xOffset="618" yOffset="-35"/>
    <component base="dvDDHA"/>
  </outline>
</glyph>
<glyph name="dvDDH_VA" format="1">
  <advance width="636"/>
  <outline>
    <contour>
      <point x="240" y="272" type="curve"/>
      <point x="304" y="272" type="line"/>
      <point x="307" y="341"/>
      <point x="341" y="390"/>
      <point x="410" y="390" type="curve" smooth="yes"/>
      <point x="476" y="390"/>
      <point x="508" y="347"/>
      <point x="508" y="294" type="curve" smooth="yes"/>
      <point x="508" y="217"/>
      <point x="441" y="173"/>
      <point x="350" y="173" type="curve" smooth="yes"/>
      <point x="228" y="173"/>
      <point x="131" y="231"/>
      <point x="131" y="345" type="curve" smooth="yes"/>
      <point x="131" y="489"/>
      <point x="242" y="538"/>
      <point x="410" y="538" type="curve" smooth="yes"/>
      <point x="394" y="595" type="line"/>
      <point x="195" y="595"/>
      <point x="66" y="526"/>
      <point x="66" y="347" type="curve" smooth="yes"/>
      <point x="66" y="190"/>
      <point x="192" y="113"/>
      <point x="349" y="113" type="curve" smooth="yes"/>
      <point x="477" y="113"/>
      <point x="573" y="179"/>
      <point x="573" y="293" type="curve" smooth="yes"/>
      <point x="573" y="387"/>
      <point x="502" y="449"/>
      <point x="408" y="449" type="curve" smooth="yes"/>
      <point x="303" y="449"/>
      <point x="238" y="376"/>
    </contour>
    <contour>
      <point x="370" y="718" type="line"/>
      <point x="370" y="538" type="line"/>
      <point x="435" y="538" type="line"/>
      <point x="435" y="718" type="line"/>
    </contour>
    <contour>
      <point x="676" y="680" type="line"/>
      <point x="676" y="740" type="line"/>
      <point x="-40" y="740" type="line"/>
      <point x="-40" y="680" type="line"/>
    </contour>
    <contour>
      <point x="487" y="183" type="line"/>
      <point x="422" y="183" type="line"/>
      <point x="422" y="-247" type="line"/>
      <point x="487" y="-247" type="line"/>
    </contour>
    <contour>
      <point x="319" y="158" type="line"/>
      <point x="195" y="158"/>
      <point x="99" y="110"/>
      <point x="99" y="-8" type="curve" smooth="yes"/>
      <point x="99" y="-114"/>
      <point x="184" y="-187"/>
      <point x="289" y="-187" type="curve" smooth="yes"/>
      <point x="434" y="-187"/>
      <point x="461" y="-66"/>
      <point x="453" y="25" type="curve"/>
      <point x="422" y="33" type="line"/>
      <point x="423" y="-68"/>
      <point x="388" y="-127"/>
      <point x="289" y="-127" type="curve" smooth="yes"/>
      <point x="215" y="-127"/>
      <point x="164" y="-82"/>
      <point x="164" y="-8" type="curve" smooth="yes"/>
      <point x="164" y="75"/>
      <point x="238" y="115"/>
      <point x="316" y="115" type="curve"/>
    </contour>
  </outline>
</glyph>
<glyph name="dvDDH_YA" format="1">
  <advance width="1190"/>
  <outline>
    <contour>
      <point x="415" y="517" type="line"/>
      <point x="579" y="517" type="line"/>
      <point x="713" y="517"/>
      <point x="785" y="510"/>
      <point x="785" y="442" type="curve" smooth="yes"/>
      <point x="785" y="383"/>
      <point x="734" y="371"/>
      <point x="644" y="373" type="curve"/>
      <point x="630" y="202"/>
      <point x="698" y="85"/>
      <point x="857" y="85" type="curve" smooth="yes"/>
      <point x="998" y="85"/>
      <point x="1065" y="189"/>
      <point x="1044" y="319" type="curve"/>
      <point x="1025" y="360" type="line"/>
      <point x="1025" y="235"/>
      <point x="977" y="145"/>
      <point x="865" y="145" type="curve" smooth="yes"/>
      <point x="754" y="145"/>
      <point x="701" y="215"/>
      <point x="707" y="322" type="curve"/>
      <point x="768" y="329"/>
      <point x="850" y="348"/>
      <point x="850" y="444" type="curve" smooth="yes"/>
      <point x="850" y="561"/>
      <point x="730" y="577"/>
      <point x="581" y="577" type="curve"/>
      <point x="423" y="577" type="line"/>
    </contour>
    <contour>
      <point x="257" y="193" type="curve"/>
      <point x="321" y="193" type="line"/>
      <point x="321" y="260"/>
      <point x="348" y="311"/>
      <point x="421" y="311" type="curve" smooth="yes"/>
      <point x="498" y="311"/>
      <point x="524" y="260"/>
      <point x="524" y="202" type="curve" smooth="yes"/>
      <point x="524" y="126"/>
      <point x="474" y="72"/>
      <point x="372" y="72" type="curve" smooth="yes"/>
      <point x="245" y="72"/>
      <point x="143" y="145"/>
      <point x="143" y="288" type="curve" smooth="yes"/>
      <point x="143" y="445"/>
      <point x="250" y="514"/>
      <point x="393" y="517" type="curve" smooth="yes"/>
      <point x="406" y="517" type="line"/>
      <point x="406" y="577" type="line"/>
      <point x="392" y="577" type="line"/>
      <point x="233" y="575"/>
      <point x="78" y="494"/>
      <point x="78" y="288" type="curve" smooth="yes"/>
      <point x="78" y="116"/>
      <point x="205" y="12"/>
      <point x="371" y="12" type="curve" smooth="yes"/>
      <point x="502" y="12"/>
      <point x="589" y="86"/>
      <point x="589" y="203" type="curve" smooth="yes"/>
      <point x="589" y="307"/>
      <point x="520" y="370"/>
      <point x="419" y="370" type="curve" smooth="yes"/>
      <point x="308" y="370"/>
      <point x="257" y="290"/>
    </contour>
    <contour>
      <point x="405" y="517" type="line"/>
      <point x="470" y="517" type="line"/>
      <point x="470" y="680" type="line"/>
      <point x="1025" y="680" type="line"/>
      <point x="1025" y="0" type="line"/>
      <point x="1090" y="0" type="line"/>
      <point x="1090" y="680" type="line"/>
      <point x="1230" y="680" type="line"/>
      <point x="1230" y="740" type="line"/>
      <point x="-40" y="740" type="line"/>
      <point x="-40" y="680" type="line"/>
      <point x="405" y="680" type="line"/>
    </contour>
  </outline>
</glyph>
<glyph name="dvDD_DDHA" format="1">
  <advance width="562"/>
  <outline>
    <contour>
      <point x="373" y="-358" type="move" name="blwm.virama"/>
    </contour>
    <contour>
      <point x="462" y="740" type="move" name="abvm.e"/>
    </contour>
    <contour>
      <point x="390" y="-442" type="move" name="blwm.u"/>
    </contour>
    <contour>
      <point x="86" y="273" type="line"/>
      <point x="102" y="158"/>
      <point x="187" y="100"/>
      <point x="317" y="100" type="curve" smooth="yes"/>
      <point x="444" y="100"/>
      <point x="513" y="160"/>
      <point x="513" y="249" type="curve" smooth="yes"/>
      <point x="513" y="363"/>
      <point x="418" y="385"/>
      <point x="309" y="385" type="curve" smooth="yes"/>
      <point x="220" y="385"/>
      <point x="165" y="396"/>
      <point x="165" y="460" type="curve" smooth="yes"/>
      <point x="165" y="530"/>
      <point x="244" y="531"/>
      <point x="306" y="531" type="curve" smooth="yes"/>
      <point x="462" y="531" type="line"/>
      <point x="462" y="561" type="line"/>
      <point x="462" y="591" type="line"/>
      <point x="305" y="591" type="line" smooth="yes"/>
      <point x="202" y="591"/>
      <point x="100" y="572"/>
      <point x="100" y="461" type="curve" smooth="yes"/>
      <point x="100" y="357"/>
      <point x="186" y="327"/>
      <point x="305" y="327" type="curve" smooth="yes"/>
      <point x="393" y="327"/>
      <point x="448" y="316"/>
      <point x="448" y="249" type="curve" smooth="yes"/>
      <point x="448" y="183"/>
      <point x="391" y="159"/>
      <point x="314" y="159" type="curve" smooth="yes"/>
      <point x="210" y="159"/>
      <point x="161" y="200"/>
      <point x="150" y="273" type="curve"/>
    </contour>
    <contour>
      <point x="602" y="680" type="line"/>
      <point x="602" y="740" type="line"/>
      <point x="-40" y="740" type="line"/>
      <point x="-40" y="680" type="line"/>
    </contour>
    <contour>
      <point x="397" y="542" type="line"/>
      <point x="462" y="542" type="line"/>
      <point x="462" y="718" type="line"/>
      <point x="397" y="718" type="line"/>
    </contour>
    <contour>
      <point x="215" y="-168" type="curve"/>
      <point x="279" y="-168" type="line"/>
      <point x="282" y="-99"/>
      <point x="323" y="-53"/>
      <point x="387" y="-53" type="curve" smooth="yes"/>
      <point x="453" y="-53"/>
      <point x="485" y="-91"/>
      <point x="485" y="-144" type="curve" smooth="yes"/>
      <point x="485" y="-221"/>
      <point x="418" y="-265"/>
      <point x="327" y="-265" type="curve" smooth="yes"/>
      <point x="205" y="-265"/>
      <point x="108" y="-197"/>
      <point x="108" y="-83" type="curve" smooth="yes"/>
      <point x="108" y="35"/>
      <point x="196" y="92"/>
      <point x="315" y="100" type="curve"/>
      <point x="265" y="151" type="line"/>
      <point x="150" y="139"/>
      <point x="43" y="64"/>
      <point x="43" y="-81" type="curve" smooth="yes"/>
      <point x="43" y="-238"/>
      <point x="169" y="-325"/>
      <point x="326" y="-325" type="curve" smooth="yes"/>
      <point x="454" y="-325"/>
      <point x="550" y="-259"/>
      <point x="550" y="-145" type="curve" smooth="yes"/>
      <point x="550" y="-51"/>
      <point x="479" y="6"/>
      <point x="385" y="6" type="curve" smooth="yes"/>
      <point x="287" y="6"/>
      <point x="215" y="-66"/>
    </contour>
  </outline>
</glyph>
<glyph name="dvDD_RA" format="1">
  <advance width="586"/>
  <outline>
    <contour>
      <point x="363" y="-132" type="move" name="blwm.virama"/>
    </contour>
    <contour>
      <point x="469" y="740" type="move" name="abvm.e"/>
    </contour>
    <contour>
      <point x="383" y="-233" type="move" name="blwm.u"/>
    </contour>
    <component base="dvRashtrasign" xOffset="564" yOffset="-58"/>
    <component base="dvDDA"/>
  </outline>
</glyph>
<glyph name="dvDH_MA" format="1">
  <advance width="1171"/>
  <outline>
    <contour>
      <point x="1006" y="0" type="line"/>
      <point x="1071" y="0" type="line"/>
      <point x="1071" y="730" type="line"/>
      <point x="1006" y="730" type="line"/>
    </contour>
    <contour>
      <point x="1211" y="680" type="line"/>
      <point x="1211" y="740" type="line"/>
      <point x="489" y="740" type="line"/>
      <point x="489" y="680" type="line"/>
    </contour>
    <contour>
      <point x="744" y="329" type="line"/>
      <point x="744" y="231"/>
      <point x="723" y="172"/>
      <point x="635" y="172" type="curve" smooth="yes"/>
      <point x="570" y="172"/>
      <point x="525" y="217"/>
      <point x="525" y="281" type="curve" smooth="yes"/>
      <point x="525" y="372"/>
      <point x="588" y="393"/>
      <point x="682" y="393" type="curve" smooth="yes"/>
      <point x="1024" y="393" type="line"/>
      <point x="1024" y="451" type="line"/>
      <point x="689" y="451" type="line" smooth="yes"/>
      <point x="533" y="451"/>
      <point x="460" y="398"/>
      <point x="460" y="283" type="curve" smooth="yes"/>
      <point x="460" y="183"/>
      <point x="537" y="113"/>
      <point x="636" y="113" type="curve" smooth="yes"/>
      <point x="755" y="113"/>
      <point x="808" y="188"/>
      <point x="808" y="329" type="curve" smooth="yes"/>
      <point x="808" y="707" type="line"/>
      <point x="744" y="707" type="line"/>
    </contour>
    <contour>
      <point x="461" y="291" type="line"/>
      <point x="456" y="217"/>
      <point x="401" y="170"/>
      <point x="310" y="170" type="curve" smooth="yes"/>
      <point x="229" y="170"/>
      <point x="162" y="202"/>
      <point x="162" y="286" type="curve" smooth="yes"/>
      <point x="162" y="371"/>
      <point x="240" y="398"/>
      <point x="325" y="398" type="curve"/>
      <point x="373" y="398" type="line"/>
      <point x="373" y="457" type="line"/>
      <point x="325" y="457" type="line" smooth="yes"/>
      <point x="229" y="457"/>
      <point x="160" y="497"/>
      <point x="160" y="588" type="curve" smooth="yes"/>
      <point x="160" y="651"/>
      <point x="199" y="690"/>
      <point x="262" y="690" type="curve" smooth="yes"/>
      <point x="335" y="690"/>
      <point x="363" y="639"/>
      <point x="361" y="568" type="curve"/>
      <point x="423" y="568" type="line"/>
      <point x="430" y="674"/>
      <point x="369" y="750"/>
      <point x="261" y="750" type="curve" smooth="yes"/>
      <point x="161" y="750"/>
      <point x="95" y="681"/>
      <point x="95" y="586" type="curve" smooth="yes"/>
      <point x="95" y="510"/>
      <point x="143" y="457"/>
      <point x="201" y="433" type="curve"/>
      <point x="201" y="427" type="line"/>
      <point x="137" y="404"/>
      <point x="97" y="357"/>
      <point x="97" y="287" type="curve" smooth="yes"/>
      <point x="97" y="165"/>
      <point x="196" y="110"/>
      <point x="310" y="110" type="curve" smooth="yes"/>
      <point x="421" y="110"/>
      <point x="503" y="168"/>
      <point x="508" y="274" type="curve"/>
    </contour>
  </outline>
</glyph>
<glyph name="dvDH_YA" format="1">
  <advance width="1151"/>
  <outline>
    <contour>
      <point x="509" y="350" type="line"/>
      <point x="509" y="219"/>
      <point x="443" y="170"/>
      <point x="330" y="170" type="curve" smooth="yes"/>
      <point x="249" y="170"/>
      <point x="162" y="202"/>
      <point x="162" y="286" type="curve" smooth="yes"/>
      <point x="162" y="371"/>
      <point x="240" y="398"/>
      <point x="325" y="398" type="curve" smooth="yes"/>
      <point x="373" y="398" type="line"/>
      <point x="373" y="457" type="line"/>
      <point x="325" y="457" type="line" smooth="yes"/>
      <point x="229" y="457"/>
      <point x="160" y="497"/>
      <point x="160" y="588" type="curve" smooth="yes"/>
      <point x="160" y="651"/>
      <point x="199" y="690"/>
      <point x="262" y="690" type="curve" smooth="yes"/>
      <point x="335" y="690"/>
      <point x="363" y="639"/>
      <point x="361" y="568" type="curve"/>
      <point x="423" y="568" type="line"/>
      <point x="430" y="674"/>
      <point x="369" y="750"/>
      <point x="261" y="750" type="curve" smooth="yes"/>
      <point x="161" y="750"/>
      <point x="95" y="681"/>
      <point x="95" y="586" type="curve" smooth="yes"/>
      <point x="95" y="510"/>
      <point x="143" y="457"/>
      <point x="201" y="433" type="curve"/>
      <point x="201" y="427" type="line"/>
      <point x="137" y="404"/>
      <point x="97" y="357"/>
      <point x="97" y="287" type="curve" smooth="yes"/>
      <point x="97" y="165"/>
      <point x="211" y="110"/>
      <point x="330" y="110" type="curve" smooth="yes"/>
      <point x="483" y="110"/>
      <point x="569" y="189"/>
      <point x="569" y="350" type="curve"/>
    </contour>
    <contour>
      <point x="705" y="690" type="line"/>
      <point x="705" y="645" type="line"/>
      <point x="705" y="501"/>
      <point x="704" y="450"/>
      <point x="504" y="450" type="curve"/>
      <point x="495" y="245"/>
      <point x="591" y="114"/>
      <point x="776" y="114" type="curve" smooth="yes"/>
      <point x="938" y="114"/>
      <point x="1022" y="236"/>
      <point x="1002" y="358" type="curve"/>
      <point x="986" y="409" type="line"/>
      <point x="986" y="272"/>
      <point x="908" y="174"/>
      <point x="783" y="174" type="curve" smooth="yes"/>
      <point x="645" y="174"/>
      <point x="571" y="266"/>
      <point x="573" y="395" type="curve"/>
      <point x="749" y="404"/>
      <point x="770" y="490"/>
      <point x="770" y="644" type="curve"/>
      <point x="770" y="698" type="line"/>
    </contour>
    <contour>
      <point x="986" y="680" type="line"/>
      <point x="986" y="0" type="line"/>
      <point x="1051" y="0" type="line"/>
      <point x="1051" y="680" type="line"/>
      <point x="1191" y="680" type="line"/>
      <point x="1191" y="740" type="line"/>
      <point x="503" y="740" type="line"/>
      <point x="503" y="680" type="line"/>
    </contour>
  </outline>
</glyph>
<glyph name="dvD_MA" format="1">
  <advance width="791"/>
  <outline>
    <contour>
      <point x="626" y="-186" type="line"/>
      <point x="691" y="-186" type="line"/>
      <point x="691" y="691" type="line"/>
      <point x="626" y="691" type="line"/>
    </contour>
    <contour>
      <point x="458" y="324" type="line"/>
      <point x="286" y="324" type="line" smooth="yes"/>
      <point x="203" y="324"/>
      <point x="135" y="341"/>
      <point x="135" y="433" type="curve" smooth="yes"/>
      <point x="135" y="542"/>
      <point x="223" y="549"/>
      <point x="332" y="549" type="curve" smooth="yes"/>
      <point x="430" y="549" type="line"/>
      <point x="430" y="680" type="line"/>
      <point x="831" y="680" type="line"/>
      <point x="831" y="740" type="line"/>
      <point x="-40" y="740" type="line"/>
      <point x="-40" y="680" type="line"/>
      <point x="365" y="680" type="line"/>
      <point x="365" y="609" type="line"/>
      <point x="332" y="609" type="line" smooth="yes"/>
      <point x="170" y="609"/>
      <point x="69" y="569"/>
      <point x="69" y="433" type="curve" smooth="yes"/>
      <point x="69" y="312"/>
      <point x="162" y="264"/>
      <point x="280" y="264" type="curve"/>
      <point x="390" y="264" type="line"/>
      <point x="390" y="185" type="line"/>
      <point x="340" y="185" type="line" smooth="yes"/>
      <point x="193" y="185"/>
      <point x="150" y="118"/>
      <point x="150" y="35" type="curve" smooth="yes"/>
      <point x="150" y="-59"/>
      <point x="221" y="-114"/>
      <point x="308" y="-114" type="curve" smooth="yes"/>
      <point x="417" y="-114"/>
      <point x="458" y="-43"/>
      <point x="458" y="79" type="curve" smooth="yes"/>
      <point x="458" y="127" type="line"/>
      <point x="644" y="127" type="line"/>
      <point x="644" y="185" type="line"/>
      <point x="458" y="185" type="line"/>
    </contour>
    <contour>
      <point x="394" y="79" type="line"/>
      <point x="394" y="7"/>
      <point x="385" y="-55"/>
      <point x="308" y="-55" type="curve" smooth="yes"/>
      <point x="258" y="-55"/>
      <point x="214" y="-27"/>
      <point x="214" y="34" type="curve" smooth="yes"/>
      <point x="214" y="104"/>
      <point x="255" y="127"/>
      <point x="333" y="127" type="curve" smooth="yes"/>
      <point x="394" y="127" type="line"/>
    </contour>
  </outline>
</glyph>
<glyph name="dvEight" format="1">
  <advance width="631"/>
  <outline>
    <contour>
      <point x="198" y="387" type="curve"/>
      <point x="121" y="364"/>
      <point x="66" y="296"/>
      <point x="66" y="198" type="curve" smooth="yes"/>
      <point x="66" y="64"/>
      <point x="164" y="-21"/>
      <point x="315" y="-21" type="curve" smooth="yes"/>
      <point x="467" y="-21"/>
      <point x="565" y="64"/>
      <point x="565" y="198" type="curve" smooth="yes"/>
      <point x="565" y="296"/>
      <point x="508" y="364"/>
      <point x="433" y="387" type="curve"/>
      <point x="496" y="413"/>
      <point x="546" y="474"/>
      <point x="546" y="556" type="curve" smooth="yes"/>
      <point x="546" y="666"/>
      <point x="468" y="751"/>
      <point x="315" y="751" type="curve"/>
      <point x="163" y="751"/>
      <point x="85" y="666"/>
      <point x="85" y="556" type="curve" smooth="yes"/>
      <point x="85" y="474"/>
      <point x="131" y="418"/>
    </contour>
    <contour>
      <point x="315" y="691" type="curve" smooth="yes"/>
      <point x="418" y="691"/>
      <point x="481" y="643"/>
      <point x="481" y="551" type="curve" smooth="yes"/>
      <point x="481" y="474"/>
      <point x="415" y="415"/>
      <point x="315" y="415" type="curve"/>
      <point x="216" y="415"/>
      <point x="150" y="474"/>
      <point x="150" y="551" type="curve" smooth="yes"/>
      <point x="150" y="643"/>
      <point x="213" y="691"/>
    </contour>
    <contour>
      <point x="315" y="356" type="curve" smooth="yes"/>
      <point x="417" y="356"/>
      <point x="500" y="310"/>
      <point x="500" y="198" type="curve" smooth="yes"/>
      <point x="500" y="101"/>
      <point x="428" y="39"/>
      <point x="315" y="39" type="curve"/>
      <point x="203" y="39"/>
      <point x="131" y="101"/>
      <point x="131" y="198" type="curve" smooth="yes"/>
      <point x="131" y="310"/>
      <point x="214" y="356"/>
    </contour>
  </outline>
</glyph>
<glyph name="dvEyelash_HA" format="1">
  <advance width="695"/>
  <outline>
    <contour>
      <point x="288" y="349" type="line"/>
      <point x="270" y="347"/>
      <point x="249" y="345"/>
      <point x="223" y="345" type="curve" smooth="yes"/>
      <point x="139" y="345"/>
      <point x="45" y="377"/>
      <point x="42" y="483" type="curve"/>
      <point x="-10" y="483" type="line"/>
      <point x="-10" y="340"/>
      <point x="113" y="290"/>
      <point x="226" y="290" type="curve" smooth="yes"/>
      <point x="254" y="290"/>
      <point x="278" y="292"/>
      <point x="299" y="296" type="curve"/>
    </contour>
    <contour>
      <point x="414" y="310" type="line"/>
      <point x="350" y="308"/>
      <point x="262" y="338"/>
      <point x="262" y="410" type="curve" smooth="yes"/>
      <point x="262" y="472"/>
      <point x="319" y="500"/>
      <point x="394" y="500" type="curve" smooth="yes"/>
      <point x="570" y="500" type="line"/>
      <point x="570" y="530" type="line"/>
      <point x="570" y="560" type="line"/>
      <point x="393" y="560" type="line" smooth="yes"/>
      <point x="275" y="560"/>
      <point x="196" y="510"/>
      <point x="196" y="412" type="curve" smooth="yes"/>
      <point x="196" y="323"/>
      <point x="279" y="260"/>
      <point x="384" y="272" type="curve"/>
    </contour>
    <contour>
      <point x="407" y="270" type="curve" smooth="yes"/>
      <point x="500" y="270"/>
      <point x="544" y="229"/>
      <point x="559" y="173" type="curve"/>
      <point x="624" y="173" type="line"/>
      <point x="615" y="256"/>
      <point x="532" y="330"/>
      <point x="407" y="330" type="curve" smooth="yes"/>
      <point x="274" y="330"/>
      <point x="182" y="244"/>
      <point x="182" y="119" type="curve"/>
      <point x="182" y="-6"/>
      <point x="274" y="-92"/>
      <point x="407" y="-92" type="curve" smooth="yes"/>
      <point x="532" y="-92"/>
      <point x="615" y="-18"/>
      <point x="624" y="65" type="curve"/>
      <point x="559" y="65" type="line"/>
      <point x="544" y="9"/>
      <point x="500" y="-32"/>
      <point x="407" y="-32" type="curve" smooth="yes"/>
      <point x="308" y="-32"/>
      <point x="247" y="33"/>
      <point x="247" y="120" type="curve"/>
      <point x="247" y="207"/>
      <point x="308" y="270"/>
    </contour>
    <contour>
      <point x="505" y="509" type="line"/>
      <point x="570" y="509" type="line"/>
      <point x="570" y="680" type="line"/>
      <point x="735" y="680" type="line"/>
      <point x="735" y="740" type="line"/>
      <point x="-40" y="740" type="line"/>
      <point x="-40" y="680" type="line"/>
      <point x="505" y="680" type="line"/>
    </contour>
  </outline>
</glyph>
<glyph name="dvFive" format="1">
  <advance width="630"/>
  <outline>
    <contour>
      <point x="89" y="731" type="line"/>
      <point x="89" y="325" type="line"/>
      <point x="151" y="325" type="line"/>
      <point x="181" y="396"/>
      <point x="240" y="441"/>
      <point x="320" y="441" type="curve" smooth="yes"/>
      <point x="440" y="441"/>
      <point x="498" y="374"/>
      <point x="498" y="254" type="curve" smooth="yes"/>
      <point x="498" y="143"/>
      <point x="442" y="60"/>
      <point x="320" y="60" type="curve" smooth="yes"/>
      <point x="226" y="60"/>
      <point x="160" y="109"/>
      <point x="138" y="190" type="curve"/>
      <point x="73" y="190" type="line"/>
      <point x="95" y="79"/>
      <point x="178" y="0"/>
      <point x="320" y="0" type="curve" smooth="yes"/>
      <point x="489" y="0"/>
      <point x="563" y="117"/>
      <point x="563" y="256" type="curve" smooth="yes"/>
      <point x="563" y="372"/>
      <point x="507" y="502"/>
      <point x="330" y="502" type="curve" smooth="yes"/>
      <point x="254" y="502"/>
      <point x="183" y="462"/>
      <point x="154" y="415" type="curve"/>
      <point x="154" y="671" type="line"/>
      <point x="516" y="671" type="line"/>
      <point x="516" y="731" type="line"/>
    </contour>
  </outline>
</glyph>
<glyph name="dvGH_MA" format="1">
  <advance width="1151"/>
  <outline>
    <contour>
      <point x="986" y="0" type="line"/>
      <point x="1051" y="0" type="line"/>
      <point x="1051" y="730" type="line"/>
      <point x="986" y="730" type="line"/>
    </contour>
    <contour>
      <point x="1191" y="680" type="line"/>
      <point x="1191" y="740" type="line"/>
      <point x="348" y="740" type="line"/>
      <point x="348" y="680" type="line"/>
    </contour>
    <contour>
      <point x="724" y="329" type="line"/>
      <point x="724" y="231"/>
      <point x="703" y="172"/>
      <point x="615" y="172" type="curve" smooth="yes"/>
      <point x="550" y="172"/>
      <point x="503" y="217"/>
      <point x="503" y="281" type="curve" smooth="yes"/>
      <point x="503" y="372"/>
      <point x="568" y="393"/>
      <point x="662" y="393" type="curve" smooth="yes"/>
      <point x="1004" y="393" type="line"/>
      <point x="1004" y="451" type="line"/>
      <point x="669" y="451" type="line" smooth="yes"/>
      <point x="513" y="451"/>
      <point x="438" y="398"/>
      <point x="438" y="283" type="curve" smooth="yes"/>
      <point x="438" y="183"/>
      <point x="517" y="113"/>
      <point x="616" y="113" type="curve" smooth="yes"/>
      <point x="735" y="113"/>
      <point x="788" y="188"/>
      <point x="788" y="329" type="curve" smooth="yes"/>
      <point x="788" y="707" type="line"/>
      <point x="724" y="707" type="line"/>
    </contour>
    <contour>
      <point x="597" y="740" type="line"/>
      <point x="-40" y="740" type="line"/>
      <point x="-40" y="680" type="line"/>
      <point x="597" y="680" type="line"/>
    </contour>
    <contour>
      <point x="440" y="305" type="line"/>
      <point x="440" y="223"/>
      <point x="387" y="170"/>
      <point x="296" y="170" type="curve" smooth="yes"/>
      <point x="208" y="170"/>
      <point x="143" y="202"/>
      <point x="143" y="291" type="curve" smooth="yes"/>
      <point x="143" y="379"/>
      <point x="217" y="416"/>
      <point x="306" y="416" type="curve"/>
      <point x="359" y="416" type="line"/>
      <point x="359" y="475" type="line"/>
      <point x="306" y="475" type="line" smooth="yes"/>
      <point x="187" y="475"/>
      <point x="162" y="520"/>
      <point x="162" y="642" type="curve" smooth="yes"/>
      <point x="162" y="680" type="line"/>
      <point x="96" y="693" type="line"/>
      <point x="96" y="642" type="line" smooth="yes"/>
      <point x="96" y="546"/>
      <point x="107" y="484"/>
      <point x="182" y="451" type="curve"/>
      <point x="182" y="445" type="line"/>
      <point x="122" y="420"/>
      <point x="78" y="368"/>
      <point x="78" y="292" type="curve" smooth="yes"/>
      <point x="78" y="171"/>
      <point x="164" y="110"/>
      <point x="296" y="110" type="curve" smooth="yes"/>
      <point x="401" y="110"/>
      <point x="486" y="170"/>
      <point x="490" y="290" type="curve"/>
    </contour>
  </outline>
</glyph>
<glyph name="dvGH_NA" format="1">
  <advance width="1147"/>
  <outline>
    <contour>
      <point x="597" y="740" type="line"/>
      <point x="-40" y="740" type="line"/>
      <point x="-40" y="680" type="line"/>
      <point x="597" y="680" type="line"/>
    </contour>
    <contour>
      <point x="440" y="305" type="line"/>
      <point x="440" y="223"/>
      <point x="387" y="170"/>
      <point x="296" y="170" type="curve" smooth="yes"/>
      <point x="208" y="170"/>
      <point x="143" y="202"/>
      <point x="143" y="291" type="curve" smooth="yes"/>
      <point x="143" y="379"/>
      <point x="217" y="416"/>
      <point x="306" y="416" type="curve"/>
      <point x="359" y="416" type="line"/>
      <point x="359" y="475" type="line"/>
      <point x="306" y="475" type="line" smooth="yes"/>
      <point x="187" y="475"/>
      <point x="162" y="520"/>
      <point x="162" y="642" type="curve" smooth="yes"/>
      <point x="162" y="680" type="line"/>
      <point x="96" y="693" type="line"/>
      <point x="96" y="642" type="line" smooth="yes"/>
      <point x="96" y="546"/>
      <point x="107" y="484"/>
      <point x="182" y="451" type="curve"/>
      <point x="182" y="445" type="line"/>
      <point x="122" y="420"/>
      <point x="78" y="368"/>
      <point x="78" y="292" type="curve" smooth="yes"/>
      <point x="78" y="171"/>
      <point x="164" y="110"/>
      <point x="296" y="110" type="curve" smooth="yes"/>
      <point x="401" y="110"/>
      <point x="486" y="170"/>
      <point x="490" y="290" type="curve"/>
    </contour>
    <component base="dvNA" xOffset="372"/>
  </outline>
</glyph>
<glyph name="dvGH_RA" format="1">
  <advance width="694"/>
  <outline>
    <contour>
      <point x="223" y="-30" type="line"/>
      <point x="306" y="-30" type="line"/>
      <point x="570" y="258" type="line"/>
      <point x="427" y="174" type="line"/>
    </contour>
    <contour>
      <point x="734" y="740" type="line"/>
      <point x="-40" y="740" type="line"/>
      <point x="-40" y="680" type="line"/>
      <point x="734" y="680" type="line"/>
    </contour>
    <contour>
      <point x="594" y="0" type="line"/>
      <point x="594" y="690" type="line"/>
      <point x="529" y="698" type="line"/>
      <point x="529" y="0" type="line"/>
    </contour>
    <contour>
      <point x="559" y="316" type="curve"/>
      <point x="529" y="356" type="line"/>
      <point x="529" y="241"/>
      <point x="432" y="170"/>
      <point x="316" y="170" type="curve"/>
      <point x="227" y="170"/>
      <point x="143" y="201"/>
      <point x="143" y="291" type="curve" smooth="yes"/>
      <point x="143" y="379"/>
      <point x="217" y="416"/>
      <point x="306" y="416" type="curve" smooth="yes"/>
      <point x="339" y="416" type="line"/>
      <point x="339" y="475" type="line"/>
      <point x="306" y="475" type="line" smooth="yes"/>
      <point x="187" y="475"/>
      <point x="162" y="520"/>
      <point x="162" y="642" type="curve" smooth="yes"/>
      <point x="162" y="680" type="line"/>
      <point x="96" y="693" type="line"/>
      <point x="96" y="642" type="line" smooth="yes"/>
      <point x="96" y="546"/>
      <point x="107" y="484"/>
      <point x="182" y="451" type="curve"/>
      <point x="182" y="445" type="line"/>
      <point x="122" y="420"/>
      <point x="78" y="368"/>
      <point x="78" y="292" type="curve" smooth="yes"/>
      <point x="78" y="170"/>
      <point x="186" y="115"/>
      <point x="306" y="115" type="curve" smooth="yes"/>
      <point x="445" y="115"/>
      <point x="551" y="188"/>
    </contour>
  </outline>
</glyph>
<glyph name="dvGH_R" format="1">
  <advance width="411"/>
  <outline>
    <contour>
      <point x="587" y="740" type="line"/>
      <point x="-40" y="740" type="line"/>
      <point x="-40" y="680" type="line"/>
      <point x="587" y="680" type="line"/>
    </contour>
    <contour>
      <point x="588" y="355" type="curve"/>
      <point x="529" y="355" type="line"/>
      <point x="529" y="233"/>
      <point x="450" y="170"/>
      <point x="326" y="170" type="curve" smooth="yes"/>
      <point x="234" y="170"/>
      <point x="143" y="199"/>
      <point x="143" y="291" type="curve" smooth="yes"/>
      <point x="143" y="379"/>
      <point x="217" y="416"/>
      <point x="306" y="416" type="curve" smooth="yes"/>
      <point x="339" y="416" type="line"/>
      <point x="339" y="475" type="line"/>
      <point x="306" y="475" type="line" smooth="yes"/>
      <point x="187" y="475"/>
      <point x="162" y="520"/>
      <point x="162" y="642" type="curve" smooth="yes"/>
      <point x="162" y="680" type="line"/>
      <point x="96" y="693" type="line"/>
      <point x="96" y="642" type="line" smooth="yes"/>
      <point x="96" y="546"/>
      <point x="107" y="484"/>
      <point x="182" y="451" type="curve"/>
      <point x="182" y="445" type="line"/>
      <point x="122" y="420"/>
      <point x="78" y="368"/>
      <point x="78" y="292" type="curve" smooth="yes"/>
      <point x="78" y="168"/>
      <point x="193" y="110"/>
      <point x="326" y="110" type="curve" smooth="yes"/>
      <point x="470" y="110"/>
      <point x="588" y="184"/>
    </contour>
    <contour>
      <point x="220" y="-32" type="line"/>
      <point x="220" y="-36" type="line"/>
      <point x="303" y="-36" type="line"/>
      <point x="514" y="171" type="line"/>
      <point x="399" y="129" type="line"/>
    </contour>
  </outline>
</glyph>
